<svg xmlns="http://www.w3.org/2000/svg" version="1.1" width="600px" height="600px" xlink="http://www.w3.org/1999/xlink" style="overflow:hidden!important;"><g id="svga-group-wrapper" transform="scale(3 3)"><g id="svga-group-backs-single"><path id="SvgjsPath3933" opacity="1" fill="#ecf0f1" stroke-width="none" d="M 225 225 H -25 V -25 h 250 V 225 Z" /></g><g id="svga-group-subwrapper" ><g id="svga-group-hair-back" ><path id="SvgjsPath3934" opacity="1" fill="#2a232b" stroke-width="none" d="M 100.5 100.5 h -1 v -1 h 1 V 100.5 Z" /></g><g id="svga-group-humanbody-single"><path id="SvgjsPath2893" opacity="1" fill="#f0c7b1" stroke="none" stroke-width="none" d="M 195.417 199.778 c -2.196 -4.746 -8.195 -11.779 -14.86 -13.722 c -8.239 -2.403 -26.837 -5.308 -33.733 -6.923 c -5.528 -1.296 -16.662 -11.294 -20.564 -14.65 c -0.7 -0.6 -1.273 -1.839 -1.287 -2.76 c -0.139 -10.864 4.195 -39.724 4.195 -39.724 H 100 H 70.833 c 0 0 4.334 28.859 4.193 39.724 c -0.011 0.921 -0.587 2.16 -1.285 2.76 c -3.902 3.356 -15.036 13.354 -20.564 14.65 c -6.897 1.615 -25.495 4.619 -33.733 7.022 c -6.667 1.942 -12.664 8.876 -14.86 13.622 c -3.708 8.008 -4.584 22.5 -4.584 35 h 100 h 100 C 200 222.278 199.123 207.786 195.417 199.778 Z" /><path id="SvgjsPath2894" opacity="1" fill="#ffe4d6" stroke="none" stroke-width="none" d="M 159.156 184.058 c 24.342 3.542 34.586 8.708 37.794 50.721 H 200 c 0 -12.5 -0.877 -26.992 -4.583 -35 c -2.196 -4.746 -8.195 -11.779 -14.86 -13.722 c -8.239 -2.403 -26.837 -5.308 -33.733 -6.923 c -5.528 -1.296 -18.242 -12.069 -21.643 -16.35 c 3.36 4.704 12.791 15.605 21.054 18.46 C 150.188 182.61 153.48 183.232 159.156 184.058 Z M 53.766 181.244 c 8.263 -2.854 17.693 -13.756 21.054 -18.46 c -3.4 4.28 -16.114 15.054 -21.643 16.35 c -6.896 1.615 -25.494 4.619 -33.733 7.022 c -6.665 1.942 -12.664 8.876 -14.86 13.622 c -3.706 8.008 -4.583 22.5 -4.583 35 h 3.05 c 3.188 -41.744 13.475 -47.183 37.794 -50.721 C 46.52 183.232 49.813 182.61 53.766 181.244 Z" /><path id="SvgjsPath2895" opacity="1" fill="#e1ac8f" stroke="none" stroke-width="none" d="M 95.646 197.62 c 0 0 -5.074 -1.609 -7.083 -2.379 c -10.449 -4.009 -44.395 -6.607 -44.395 -6.607 s 35.754 1.419 43.644 2.779 c -0.458 -4.767 -3.017 -20.004 -3.017 -20.004 s 5.149 16.815 6.409 21.057 C 91.878 194.734 95.646 197.62 95.646 197.62 Z M 106.445 196.278 c -0.089 0.073 -0.191 0.168 -0.302 0.268 C 106.256 196.461 106.358 196.372 106.445 196.278 Z M 95.646 197.62 c 0 0 2.893 2.992 4.347 3.03 c 1.91 0.051 4.828 -2.899 6.151 -4.104 c -1.265 0.957 -4.159 1.391 -5.31 1.436 C 99.504 198.033 95.646 197.62 95.646 197.62 Z M 116.664 190.101 c -1.545 0.248 -4.386 0.789 -4.386 0.789 l 2.287 -14.89 c -0.646 3.071 -4.474 16.211 -8.12 20.278 c 1.91 -1.616 6.158 -2.391 8.324 -2.704 c 10.236 -1.484 10.232 -1.483 41.062 -4.94 C 155.831 188.634 126.76 188.479 116.664 190.101 Z" /><path id="SvgjsPath2896" opacity="1" fill="none" stroke="#c27b55" stroke-width="1.5" d="M 195.417 199.778 c -2.196 -4.746 -8.195 -11.779 -14.86 -13.722 c -8.239 -2.403 -26.837 -5.308 -33.733 -6.923 c -5.528 -1.296 -16.662 -11.294 -20.564 -14.65 c -0.7 -0.6 -1.273 -1.839 -1.287 -2.76 c -0.139 -10.864 4.195 -39.724 4.195 -39.724 H 100 H 70.833 c 0 0 4.334 28.859 4.193 39.724 c -0.011 0.921 -0.587 2.16 -1.285 2.76 c -3.902 3.356 -15.036 13.354 -20.564 14.65 c -6.897 1.615 -25.495 4.619 -33.733 7.022 c -6.667 1.942 -12.664 8.876 -14.86 13.622 c -3.708 8.008 -4.584 22.5 -4.584 35 h 100 h 100 C 200 222.278 199.123 207.786 195.417 199.778 Z" /></g><g id="svga-group-chinshadow-single"><path id="SvgjsPath3598" opacity="1" fill="url(#SvgjsLinearGradient3599)" d="M 124.253 159.292 c 0.209 -6.588 1.387 -16.822 2.44 -24.934 c -15.046 -2.317 -38.404 -2.272 -53.372 0.112 c 1.041 8.028 2.198 18.103 2.419 24.664 c 8.455 6.921 18.045 12.742 24.414 12.731 C 106.453 171.856 115.887 166.136 124.253 159.292 Z" /></g><g id="svga-group-clothes-single" ><path id="SvgjsPath3924" opacity="1" fill="#f5f4f5" stroke-width="none" d="M 42.77 235.757 l 1.323 -60.852 c 0 0 10.194 -2.487 16.635 -6.313 c 17.496 21.953 69.451 17.333 78.336 -0.62 c 1.489 0.525 2.721 1.197 4.262 1.713 c 5 3.386 9.213 4.494 9.213 4.494 l 0.935 61.685 C 139.188 236.052 42.77 235.757 42.77 235.757 Z" /><path id="SvgjsPath3925" opacity="1" fill="#ffffff" stroke-width="none" d="M 154.014 177.705 c -4.236 -0.719 -7.611 -1.697 -9.452 -3.544 c -5.343 10.025 -26.763 16.378 -33.855 17.309 c 20.554 -6.276 29.188 -10.813 32.598 -21.583 c 1.99 2.383 6.522 3.549 12.313 4.538 L 154.014 177.705 Z M 52.67 174.381 c 1.454 -0.312 2.18 -1.234 3.623 -1.593 l -1.528 -1.867 c -3.114 2.234 -8.971 3.305 -15.9 4.424 l 0.188 3.738 c 3.956 -0.79 7.817 -1.788 11.429 -3.323 c 7.483 8.485 19.168 12.659 31.06 14.387 C 66.624 186.562 58.07 180.511 52.67 174.381 Z" /><path id="SvgjsPath3926" opacity="1" fill="#dfdde2" stroke-width="none" d="M 137.861 170.055 c -5.929 11.361 -50.74 24.595 -76.009 0.866 c -1.571 0.615 -6.271 2.085 -6.271 2.085 c 18.406 23.08 72.345 23.227 86.702 -0.112 C 142.221 172.87 139.321 170.737 137.861 170.055 Z" /><path id="SvgjsPath3927" opacity="1" fill="#b8b6c9" stroke-width="none" d="M 139.008 167.841 c -10.087 18.575 -62.578 21.204 -78.239 0.625 c -5.72 1.556 -11.219 4.876 -16.756 5.707 l -1.243 61.584 l 110.703 0.107 l -0.855 -62.386 c -3.369 -0.707 -6.501 -2.737 -9.254 -3.894 C 141.842 168.945 140.55 168.37 139.008 167.841 Z M 60.39 169.087 c 13.903 23.086 68.817 18.455 79.419 0.099 c 1.286 0.499 1.615 0.696 3.106 1.183 c -10.982 21.208 -65.306 27.967 -87.525 1.147 C 55.546 171.476 58.823 169.629 60.39 169.087 Z M 54.287 172.418 c 17.963 27.046 77.26 22.856 89.583 -1.287 c 1.771 1.391 4.53 2.989 7.936 3.735 l 1.66 59.08 l -110.377 0.016 l 1.904 -58.299 C 47.777 174.264 52.247 173.232 54.287 172.418 Z" /><path id="SvgjsPath3928" opacity="1" fill="#386e77" stroke-width="none" d="M -4.529 235.566 c -2.574 -13.852 -2.292 -47.592 9.013 -47.521 c 13.136 -5.311 29.269 -11.404 42.802 -15.311 c 6.908 -7.246 13.436 -14.137 26.188 -21.314 c 0.389 2.599 1.874 8.541 0.011 11.773 c -1.355 2.352 -5.783 5.576 -9.554 8.368 c -2.029 2.72 -3.927 5.374 -6.599 9.089 c 5.168 22.301 9.601 33.78 10.097 53.123 c 0 0 -1.452 0.689 64.471 0.397 c 2.215 -22.339 4.993 -33.561 10.379 -54.098 c 0 0 -4.308 -5.014 -7.207 -8.87 c -2.054 -1.997 -8.36 -7.532 -8.84 -8.651 c -1.175 -2.741 -0.548 -6.188 0.11 -11.367 c 10.793 4.873 17 12.021 26.082 21.303 c 7.729 2.119 30.86 9.967 42.445 15.216 c 3.965 -0.11 6.203 1.999 7.872 5.466 c 5.405 11.195 4.126 27.297 2.18 42.789 C 185.83 235.989 49.887 238.17 -4.529 235.566 Z" /><path id="SvgjsPath3929" opacity="1" fill="#265e68" stroke-width="none" d="M 73.875 154.081 c 0.16 1.07 0.304 2.085 0.411 3.041 c -0.218 0.266 -17.212 23.353 -17.336 23.525 C 61.126 171.148 67.1 161.305 73.875 154.081 Z M 126.053 154.081 c -0.159 1.07 -0.184 2.085 -0.291 3.041 c 0.218 0.266 16.931 22.469 17.054 22.642 C 138.391 170.914 132.828 161.305 126.053 154.081 Z M 165.008 185.154 c -4.28 6.231 -5.194 8.382 -9.879 14.557 c 1.071 0 2.799 0.166 3.87 0.166 C 162.663 193.592 162.67 190.393 165.008 185.154 Z M 169.394 230.379 c 3.793 -8.9 6.934 -16.711 10.739 -25.624 l -1.247 -2.014 C 175.717 211.896 172.354 221.199 169.394 230.379 Z M 41.048 199.877 c 1.071 0 2.799 -0.166 3.871 -0.166 c -4.685 -6.175 -5.599 -6.561 -9.878 -12.792 C 37.377 192.158 37.384 193.592 41.048 199.877 Z M 21.161 202.741 l -1.247 2.014 c 3.806 8.913 4.765 16.724 8.559 25.624 C 25.512 221.199 24.33 211.896 21.161 202.741 Z" /><path id="SvgjsPath3930" opacity="1" fill="#184f58" stroke-width="none" d="M 65.638 169.283 c 1.181 -1.646 5.237 -7.272 8.601 -12.561 C 75.227 162.179 73.413 165.416 65.638 169.283 Z M 125.74 156.36 c 2.553 4.396 5.562 8.772 8.664 12.803 C 126 165.336 125.435 161.423 125.74 156.36 Z" /><path id="SvgjsPath3931" opacity="1" fill="#4d7e86" stroke-width="none" d="M 126.318 151.359 c 0.008 -0.061 0.017 -0.118 0.023 -0.174 c 18.093 9.999 28.576 25.02 40.747 36.217 c -0.448 0.721 -1.228 1.193 -1.687 1.905 C 152.656 179.609 146.599 164.946 126.318 151.359 Z M 71.736 152.022 c -15.034 8.213 -36.242 33.357 -38.318 35.269 c 0.448 0.724 0.691 0.577 1.15 1.288 C 47.314 178.882 50.793 169.283 71.736 152.022 Z M 194.869 187.704 c -1 -0.799 -24.646 -10.039 -42.59 -14.969 c 33.698 16.299 45.587 18.545 51.471 24.321 C 203.367 196.057 202.586 187.489 194.869 187.704 Z M 47.458 172.555 c -13.524 3.914 -30.839 10.098 -42.975 15.491 c -5.364 0.106 -9.208 7.93 -10.031 16.084 C 1.914 187.317 -1.773 198.62 47.458 172.555 Z" /><path id="SvgjsPath3932" opacity="1" fill="#0c4049" stroke-width="none" d="M 206.6 210.062 c -0.34 -8.635 -3.055 -23.103 -11.691 -22.46 c -0.714 -0.61 -20.822 -9.767 -42.285 -15.611 c -7.353 -7.455 -16.515 -17.598 -26.371 -20.957 c -0.711 6.428 -1.477 10.622 0.216 12.714 c 2.241 2.439 4.93 4.879 7.568 6.522 c 4.616 6.136 8.139 9.778 8.139 9.778 c -5.43 20.703 -8.815 31.314 -10.973 53.688 H 68.798 c -2.157 -22.373 -5.543 -32.984 -10.973 -53.688 c 0 0 3.522 -3.643 8.139 -9.778 c 2.639 -1.644 5.327 -4.083 7.568 -6.522 c 1.692 -2.092 0.927 -6.286 0.216 -12.714 c -9.856 3.359 -19.019 13.502 -26.371 20.957 c -21.463 5.845 -41.571 15.001 -42.285 15.611 c -8.637 -0.643 -11.352 13.825 -11.691 22.46 c -0.411 10.487 1.435 24.938 1.585 25.938 h 210.029 C 205.165 234.999 207.011 220.549 206.6 210.062 Z M 72.984 163.194 c -2.258 2.233 -3.658 3.181 -6.473 5.282 c 4.829 -6.271 4.341 -5.433 7.708 -11.229 C 74.37 159.739 73.433 162.751 72.984 163.194 Z M -3.172 234.028 c -1.082 -12.844 -2.916 -24.41 0.43 -36.992 c 1.281 -4.827 2.484 -8.095 7.455 -8.509 c 1.067 5.538 8.132 28.724 14.298 44.533 c -6.226 -24.192 -5.311 -18.81 -8.219 -28.452 c -0.964 -3.235 -1.854 -6.486 -2.979 -9.672 c -0.783 -2.214 -1.65 -4.387 -2.262 -6.653 l 40.433 -14.865 c -0.279 0.283 -12.895 13.434 -13.199 13.804 c 1.847 3.021 7.816 7.222 10.845 11.758 c -12.436 1.174 -18.508 3.173 -23 3.84 c 0.331 0.919 9.061 25.353 9.976 27.656 c -1.479 -7.917 -4.816 -20.297 -8.637 -27.211 c 1.41 -0.179 18.077 -2.492 23.393 -3.477 c -1.476 -2.854 -8.043 -8.437 -11.559 -12.619 c 20.646 -18.162 25.422 -27.402 39.593 -35.454 c 0.15 1.509 0.443 3.011 0.55 4.519 c -15.795 23.533 -17.649 23.567 -17.649 23.567 c 4.585 17.81 10.532 35.824 10.532 54.073 L -3.172 234.028 Z M 127.016 163.194 c -0.448 -0.443 -1.386 -3.455 -1.235 -5.947 c 3.367 5.797 2.879 4.958 7.708 11.229 C 130.674 166.375 129.273 165.428 127.016 163.194 Z M 203.172 234.028 l -70 -0.154 c 0 -18.249 5.947 -36.264 10.532 -54.073 c 0 0 -1.854 -0.034 -17.649 -23.567 c 0.106 -1.508 0.399 -3.01 0.55 -4.519 c 14.171 8.052 18.946 17.292 39.593 35.454 c -3.516 4.183 -10.083 9.766 -11.559 12.619 c 5.315 0.984 21.982 3.298 23.393 3.477 c -3.82 6.914 -7.157 19.294 -8.637 27.211 c 0.915 -2.304 9.645 -26.737 9.976 -27.656 c -4.492 -0.667 -10.564 -2.666 -23 -3.84 c 3.028 -4.536 8.998 -8.736 10.845 -11.758 c -0.305 -0.37 -12.92 -13.521 -13.199 -13.804 c 0.001 0 40.433 14.865 40.433 14.865 c -0.611 2.267 -1.479 4.439 -2.262 6.653 c -1.125 3.186 -2.015 6.437 -2.979 9.672 c -2.908 9.643 -1.993 4.26 -8.219 28.452 c 6.166 -15.81 13.23 -38.995 14.298 -44.533 c 4.971 0.414 6.174 3.682 7.455 8.509 C 206.088 209.618 204.254 221.185 203.172 234.028 Z" /></g><g id="svga-group-head" ><g id="svga-group-ears-left" ><path id="SvgjsPath3573" opacity="1" fill="#f0c7b1" stroke="#c27b55" stroke-width="1.5" d="M 47.001 83.231 c -1.376 -2.453 -5.638 -8.48 -9.98 -7.003 c -2.749 0.935 -3.293 3.993 -3.735 6.693 c -0.588 3.591 0.471 10.694 1.389 13.26 c 0.881 2.467 3.533 7.23 5.264 9.045 c 2.13 2.225 4.775 9.324 5.194 10.061 c 0.66 1.162 1.536 2.911 4.122 2.692 c 2.853 -0.244 4.584 -1.85 5.856 -2.121 C 58.253 115.192 50.582 89.616 47.001 83.231 Z" /><path id="SvgjsPath3574" opacity="1" fill="#c27b55" stroke-width="none" d="M 44.197 98.104 c -0.132 -0.581 0.007 -1.56 0.142 -2.504 c 0.124 -0.861 0.24 -1.675 0.169 -2.251 c -0.267 -2.154 -1.773 -6.249 -2.757 -8.467 c -1.132 -2.554 -2.963 -5.77 -5.262 -6.599 c -0.95 -0.343 -1.575 0.067 -1.938 0.484 c -0.266 0.305 -0.325 0.665 -0.238 0.707 c 0.086 0.042 0.285 -0.254 0.572 -0.535 c 0.235 -0.229 0.579 -0.426 1.051 -0.385 c -0.19 1.073 -1.167 6.883 -0.744 10.845 c 0.333 3.115 1.593 5.442 1.79 5.791 c 0.029 0.367 0.077 0.726 0.148 1.075 c 0.929 4.547 4.971 9.717 6.378 11.409 c 0.259 0.313 0.531 0.497 0.598 0.423 c 0.066 -0.076 -0.094 -0.387 -0.353 -0.7 c -1.388 -1.679 -5.391 -6.831 -6.289 -11.218 c -0.952 -4.656 2.318 -11.556 3.048 -13.017 c 0.371 0.685 0.687 1.344 0.93 1.893 c 0.19 0.431 0.402 0.936 0.619 1.479 c -0.429 0.762 -3.434 6.32 -2.338 10.767 c 0.406 1.641 2.235 3.755 3.447 4.333 c 0.667 0.32 0.919 0.797 1.209 1.349 c 0.336 0.64 0.718 1.365 1.828 1.892 c 0.225 0.108 0.429 0.151 0.61 0.151 c 0.313 0 0.551 -0.135 0.725 -0.293 c 0.018 0.28 0.017 0.64 0.009 0.97 c -0.012 0.431 0.042 0.783 0.137 0.791 c 0.094 0.008 0.196 -0.332 0.207 -0.76 c 0.016 -0.526 0.013 -1.177 -0.072 -1.488 c -0.248 -0.917 -1.008 -1.953 -1.813 -3.048 C 45.221 100.116 44.403 99.003 44.197 98.104 Z M 36.95 94.073 c -2.177 -7.139 0.656 -13.3 1.144 -14.28 c 0.85 0.822 1.6 1.919 2.21 2.995 C 39.86 83.646 37.041 89.271 36.95 94.073 Z M 46.341 104.515 c -1.004 -0.475 -1.339 -1.115 -1.666 -1.733 c -0.293 -0.559 -0.598 -1.136 -1.369 -1.505 c -0.168 -0.081 -0.352 -0.203 -0.542 -0.343 c -2.486 -6.263 0.272 -9.001 0.963 -9.562 c 0.211 0.766 0.369 1.468 0.439 2.031 c 0.063 0.517 -0.052 1.339 -0.167 2.134 c -0.142 0.985 -0.286 2.004 -0.137 2.664 c 0.226 0.982 1.069 2.131 1.884 3.242 c 0.723 0.986 1.466 2.003 1.721 2.832 C 47.359 104.439 47.017 104.836 46.341 104.515 Z" /></g><g id="svga-group-ears-right" ><path id="SvgjsPath3575" opacity="1" fill="#f0c7b1" stroke="#c27b55" stroke-width="1.5" d="M 152.736 83.231 c 1.377 -2.453 5.639 -8.48 9.98 -7.003 c 2.75 0.935 3.293 3.993 3.736 6.693 c 0.588 3.591 -0.471 10.694 -1.389 13.26 c -0.881 2.467 -3.533 7.23 -5.266 9.045 c -2.129 2.225 -4.775 9.324 -5.193 10.061 c -0.658 1.162 -1.535 2.911 -4.121 2.692 c -2.854 -0.244 -4.584 -1.85 -5.857 -2.121 C 141.484 115.192 149.156 89.616 152.736 83.231 Z" /><path id="SvgjsPath3576" opacity="1" fill="#c27b55" stroke-width="none" d="M 153.727 101.196 c -0.805 1.096 -1.564 2.131 -1.813 3.048 c -0.086 0.311 -0.088 0.962 -0.072 1.488 c 0.012 0.428 0.113 0.768 0.207 0.76 s 0.148 -0.36 0.137 -0.791 c -0.008 -0.331 -0.008 -0.69 0.01 -0.97 c 0.174 0.158 0.412 0.293 0.725 0.293 c 0.182 0 0.385 -0.043 0.609 -0.151 c 1.109 -0.526 1.492 -1.252 1.828 -1.892 c 0.289 -0.552 0.543 -1.028 1.209 -1.349 c 1.213 -0.578 3.041 -2.692 3.447 -4.333 c 1.096 -4.447 -1.908 -10.005 -2.338 -10.767 c 0.217 -0.544 0.43 -1.049 0.619 -1.479 c 0.244 -0.549 0.559 -1.208 0.93 -1.893 c 0.73 1.46 4 8.361 3.049 13.017 c -0.896 4.387 -4.9 9.539 -6.289 11.218 c -0.258 0.313 -0.418 0.624 -0.352 0.7 c 0.066 0.074 0.338 -0.109 0.598 -0.423 c 1.406 -1.692 5.449 -6.862 6.379 -11.409 c 0.07 -0.35 0.117 -0.708 0.146 -1.075 c 0.197 -0.349 1.459 -2.676 1.791 -5.791 c 0.422 -3.961 -0.555 -9.772 -0.744 -10.845 c 0.473 -0.042 0.814 0.156 1.051 0.385 c 0.287 0.281 0.486 0.577 0.572 0.535 c 0.086 -0.042 0.027 -0.402 -0.238 -0.707 c -0.363 -0.417 -0.988 -0.827 -1.938 -0.484 c -2.299 0.83 -4.131 4.045 -5.262 6.599 c -0.984 2.218 -2.49 6.313 -2.758 8.467 c -0.072 0.576 0.045 1.39 0.17 2.251 c 0.135 0.945 0.273 1.924 0.141 2.504 C 155.336 99.003 154.518 100.116 153.727 101.196 Z M 159.434 82.787 c 0.611 -1.075 1.361 -2.173 2.211 -2.995 c 0.488 0.98 3.32 7.141 1.145 14.28 C 162.697 89.271 159.879 83.646 159.434 82.787 Z M 152.27 104.275 c 0.254 -0.829 0.998 -1.846 1.721 -2.832 c 0.816 -1.111 1.658 -2.26 1.885 -3.242 c 0.148 -0.66 0.004 -1.679 -0.137 -2.664 c -0.115 -0.795 -0.23 -1.617 -0.166 -2.134 c 0.068 -0.563 0.227 -1.266 0.438 -2.031 c 0.691 0.561 3.449 3.299 0.965 9.562 c -0.191 0.14 -0.375 0.263 -0.543 0.343 c -0.771 0.369 -1.074 0.946 -1.369 1.505 c -0.326 0.618 -0.662 1.258 -1.666 1.733 C 152.721 104.836 152.379 104.439 152.27 104.275 Z" /></g><g id="svga-group-faceshape-wrap" ><g id="svga-group-faceshape-single" ><path id="SvgjsPath3595" opacity="1" fill="#f0c7b1" stroke-width="none" d="M 158.918 78.006 l -0.005 0 c -0.012 0.054 -9.983 41.375 -18.186 54.159 c -6.452 10.056 -28.899 29.684 -40.573 29.701 c -11.671 0.021 -34.17 -19.539 -40.652 -29.576 c -8.242 -12.758 -18.353 -54.042 -18.365 -54.096 h -0.001 c -1.298 -4.992 -1.994 -10.231 -2.002 -15.634 C 39.082 28.536 66.289 0.92 99.907 0.867 c 33.621 -0.053 60.913 27.476 60.963 61.499 C 160.879 67.769 160.201 73.01 158.918 78.006 Z" /><path id="SvgjsPath3596" opacity="1" fill="#e8b9a0" stroke-width="none" d="M 124.597 6.119 c 18.568 10.001 31.371 30.966 31.404 55.247 c 0.008 5.403 -0.616 10.644 -1.796 15.641 l -0.005 0 c -0.011 0.054 -9.185 41.375 -16.73 54.159 c -5.937 10.056 -26.588 29.684 -37.327 29.701 c -10.737 0.021 -31.437 -19.539 -37.4 -29.576 c -7.582 -12.758 -16.885 -54.042 -16.896 -54.096 h -0.001 c -1.195 -4.992 -1.835 -10.231 -1.842 -15.634 C 43.969 37.217 56.775 16.161 75.391 6.126 C 54.006 15.706 39.096 37.37 39.134 62.56 c 0.008 5.403 0.704 10.643 2.002 15.634 h 0.001 c 0.012 0.054 10.123 41.338 18.365 54.096 c 6.482 10.037 28.981 29.597 40.652 29.576 c 11.673 -0.018 34.121 -19.646 40.573 -29.701 c 8.202 -12.784 18.174 -54.105 18.186 -54.159 l 0.005 0 c 1.283 -4.997 1.961 -10.237 1.952 -15.641 C 160.833 37.238 145.928 15.667 124.597 6.119 Z" /><path id="SvgjsPath3597" opacity="1" fill="none" stroke="#c27b55" stroke-width="1.5" d="M 158.918 78.006 l -0.005 0 c -0.012 0.054 -9.983 41.375 -18.186 54.159 c -6.452 10.056 -28.899 29.684 -40.573 29.701 c -11.671 0.021 -34.17 -19.539 -40.652 -29.576 c -8.242 -12.758 -18.353 -54.042 -18.365 -54.096 h -0.001 c -1.298 -4.992 -1.994 -10.231 -2.002 -15.634 C 39.082 28.536 66.289 0.92 99.907 0.867 c 33.621 -0.053 60.913 27.476 60.963 61.499 C 160.879 67.769 160.201 73.01 158.918 78.006 Z" /></g></g><g id="svga-group-mouth-single" ><path id="SvgjsPath3552" opacity="1" fill="url(#SvgjsLinearGradient3553)" d="M 100.2 142.947 c -2.832 0.144 -3.644 -2.753 -3.644 -2.753 s 3.931 0.565 6.991 -0.353 C 103.548 139.842 102.692 142.822 100.2 142.947 Z" /><path id="SvgjsPath3556" opacity="1" fill="#c27b55" stroke-width="none" d="M 100.488 140.76 c -1.984 0.1 -3.765 -0.077 -3.877 -0.089 c -0.138 -0.014 -0.238 -0.136 -0.224 -0.272 c 0.015 -0.138 0.143 -0.233 0.274 -0.224 c 0.041 0.003 4.096 0.405 6.738 -0.337 c 0.131 -0.032 0.271 0.041 0.309 0.174 s -0.04 0.27 -0.173 0.308 C 102.601 140.582 101.517 140.708 100.488 140.76 Z" /><path id="SvgjsPath3557" opacity="1" fill="#ffffff" stroke-width="none" d="M 82.5 130.299 c 0 0 12.532 1.486 16.718 1.499 c 4.553 0.012 19.282 -1.499 19.282 -1.499 c -4.258 3.534 -8.943 6.932 -19.555 6.999 C 89.453 137.359 87.021 133.912 82.5 130.299 Z" /><path id="SvgjsPath3558" opacity="1" fill="none" stroke="#c27b55" stroke-width="0.75" d="M 82.5 130.299 c 0 0 12.532 1.486 16.718 1.499 c 4.553 0.012 19.282 -1.499 19.282 -1.499 c -4.258 3.534 -8.943 6.932 -19.555 6.999 C 89.453 137.359 87.021 133.912 82.5 130.299 Z" /></g><g id="svga-group-eyes-left" ><g id="svga-group-eyesback-left"><path id="SvgjsPath4576" opacity="1" fill="url(#SvgjsRadialGradient4577)" d="M 61.752 82.523 c -0.506 -2.285 5.191 -3.973 12.711 -3.051 c 7.518 0.923 12.738 5.524 12.052 7.844 c -0.38 1.286 -10.639 3.245 -14.253 2.847 C 68.598 89.758 62.974 88.04 61.752 82.523 Z" /></g><g id="svga-group-eyesiriswrapper-left" transform="translate(0.25 0.25)"><g id="svga-group-eyesiriscontrol-left" ><g id="svga-group-eyesiris-left" ><path id="SvgjsPath3752" opacity="1" fill="#4e60a3" stroke="#152975" stroke-width="0.5" d="M 79.788 85.588 c -0.869 3.192 -4.16 5.073 -7.358 4.196 c -3.195 -0.876 -5.083 -4.178 -4.212 -7.371 c 0.868 -3.195 4.167 -5.076 7.362 -4.198 C 78.773 79.09 80.658 82.392 79.788 85.588 Z" /><path id="SvgjsPath3753" opacity="1" fill="#6777b2" stroke-width="none" d="M 73.265 80.413 l -0.156 -0.279 c -0.548 0.218 -1.076 0.445 -1.575 0.687 l 0.37 0.894 l -0.047 0.517 l -1.426 -0.839 c -0.466 0.259 -0.898 0.529 -1.318 0.804 l 0.004 0.009 l -0.489 0.55 l 0.781 0.799 l -1.052 0.574 l 0.398 0.657 l 1.857 0.185 l -1.741 1.181 l 1.863 -0.103 l -0.982 1.693 l 2.297 -1.39 l -0.618 2.364 l 1.329 -2.184 l 0.256 2.343 l 0.384 -2.072 l 0.353 -0.043 l 0.5 2.35 l 0.152 -0.705 c 0.201 -0.052 0.718 0.704 0.915 0.651 L 74.736 86.5 l 1.282 2.556 l -0.52 -2.651 l 1.578 2.05 c 0.057 -0.018 0.196 -0.85 0.252 -0.867 l -0.982 -1.469 l 1.785 0.539 l -1.071 -1.16 l -0.86 -0.712 l 3.586 0.803 l -1.997 -1.217 l 1.411 -0.577 l -3.055 -0.309 l 3.021 -1.602 l -2.734 0.698 l -0.736 -0.399 l -0.181 -0.354 l 0.052 -0.846 l 0.061 -1.389 l -1.248 2.198 l -0.11 -1.609 l -0.157 -0.421 c -0.25 0.087 -0.495 0.172 -0.736 0.265 L 73.265 80.413 Z" /><path id="SvgjsPath3754" opacity="0.9" fill="#384b94" stroke-width="none" d="M 79.856 82.755 c -5.242 0.239 -7.907 1.36 -11.707 2.631 c -0.732 -3.229 1.298 -6.438 4.53 -7.164 S 79.125 79.525 79.856 82.755 Z" /><path id="SvgjsPath3755" opacity="0.8" fill="#000000" stroke-width="none" d="M 74.869 81.998 c -1.319 -0.378 -2.666 0.375 -3.005 1.69 c -0.342 1.308 0.452 2.678 1.771 3.056 c 1.32 0.379 2.667 -0.375 3.009 -1.684 C 76.987 83.745 76.19 82.376 74.869 81.998 Z" /><path id="SvgjsPath3756" opacity="1" fill="none" stroke="#152975" stroke-width="0.75" d="M 74.869 81.998 c -1.319 -0.378 -2.666 0.375 -3.005 1.69 c -0.342 1.308 0.452 2.678 1.771 3.056 c 1.32 0.379 2.667 -0.375 3.009 -1.684 C 76.987 83.745 76.19 82.376 74.869 81.998 Z" /><path id="SvgjsPath3757" opacity="0.4" fill="#ffffff" stroke-width="none" d="M 69.631 87.56 c 0.613 0.973 1.426 1.706 2.578 1.95 c 1.326 0.281 1.477 -1.483 0.528 -1.685 c -0.72 -0.152 -1.176 -0.505 -1.552 -1.102 C 70.497 85.63 69.079 86.684 69.631 87.56 L 69.631 87.56 Z" /><path id="SvgjsPath3758" opacity="1" fill="url(#SvgjsLinearGradient3759)" d="M 75.033 81.493 c 0.929 0.187 1.469 0.768 1.938 1.64 c 0.862 1.604 3.299 0.178 2.437 -1.425 c -0.757 -1.408 -2.019 -2.613 -3.625 -2.938 C 73.726 78.355 73.438 81.171 75.033 81.493 L 75.033 81.493 Z" /></g></g></g><g id="svga-group-eyesfront-left"><path id="SvgjsPath4598" opacity="1" fill="#f0c7b1" stroke-width="none" d="M 53.294 83 c 0.809 10.899 11.637 23.583 20.506 22.236 c 10.498 0.106 20.864 -7.868 20.864 -22.305 s -5.087 -26.528 -21.127 -26.528 C 62.037 56.402 53.294 68.563 53.294 83 Z M 61.752 82.523 c -0.506 -2.285 5.191 -3.973 12.711 -3.051 c 7.518 0.923 12.738 5.524 12.052 7.844 c -0.38 1.286 -10.639 3.245 -14.253 2.847 C 68.598 89.758 62.974 88.04 61.752 82.523 Z" /><path id="SvgjsPath4599" opacity="1" fill="url(#SvgjsRadialGradient4600)" d="M 72.262 90.163 c 3.614 0.398 13.873 -1.561 14.253 -2.847 c 0.687 -2.32 -4.534 -6.921 -12.052 -7.844 C 68.003 78.68 62.9 79.816 61.907 81.6 c 0.898 -6.4 7.7 -11.397 15.987 -11.434 c 8.911 -0.037 16.148 5.676 16.172 12.765 c 0.021 7.088 -7.185 12.862 -16.095 12.902 c -8.913 0.037 -16.149 -5.676 -16.173 -12.764 c 0 -0.105 0.016 -0.208 0.019 -0.313 C 63.147 88.083 68.651 89.764 72.262 90.163 Z" /><path id="SvgjsPath4604" opacity="1" fill="url(#SvgjsRadialGradient4605)" d="M 61.752 82.523 c -0.506 -2.285 5.191 -3.973 12.711 -3.051 c 7.518 0.923 12.738 5.524 12.052 7.844 c -0.38 1.286 -10.639 3.245 -14.253 2.847 C 68.598 89.758 62.974 88.04 61.752 82.523 Z" /><path id="SvgjsPath4608" opacity="1" fill="#c27b55" stroke-width="none" d="M 62.148 77.417 c 4.208 -1.978 9.35 -2.16 13.838 -1.005 c 2.404 0.561 4.965 1.285 7.063 2.638 c 1.945 1.135 3.525 2.5 5.002 4.19 c -1.342 -1.701 -2.773 -3.118 -4.623 -4.27 c -2.276 -1.416 -4.769 -2.294 -7.364 -2.916 C 71.478 74.928 66.342 75.184 62.148 77.417 Z" /><path id="SvgjsPath4609" opacity="1" fill="#000000" stroke-width="none" d="M 62.769 78.02 c 0.88 -0.352 4.065 -1 5.456 -1.066 c 1.687 -0.082 5.073 0.125 6.735 0.424 c 3.374 0.608 9.251 2.483 11.678 7.184 c 0.746 1.445 0.074 2.456 -0.123 2.675 c 0.3 -2.426 -4.838 -6.746 -12.052 -7.604 c -7.52 -0.894 -13.217 0.743 -12.711 2.958 c 1.222 5.348 6.846 7.013 10.51 7.405 c 4.099 0.439 11.684 -1.539 12.686 -1.753 c -1.999 1.009 -7.524 2.095 -9.767 2.303 c -0.744 0.07 -2.24 0.104 -2.986 0.085 c -5.949 -0.158 -10.169 -3.175 -11.729 -7.26 C 59.464 80.745 60.56 78.902 62.769 78.02 Z" /></g></g><g id="svga-group-eyes-right" ><g id="svga-group-eyesback-right"><path id="SvgjsPath4583" opacity="1" fill="url(#SvgjsRadialGradient4584)" d="M 137.849 82.523 c 0.506 -2.285 -5.191 -3.973 -12.711 -3.051 c -7.518 0.923 -12.738 5.524 -12.052 7.844 c 0.38 1.286 10.639 3.245 14.253 2.847 C 131.003 89.758 136.627 88.04 137.849 82.523 Z" /></g><g id="svga-group-eyesiriswrapper-right" transform="translate(-0.25 0.25)"><g id="svga-group-eyesiriscontrol-right" ><g id="svga-group-eyesiris-right" ><path id="SvgjsPath3762" opacity="1" fill="#4e60a3" stroke="#152975" stroke-width="0.5" d="M 131.788 85.587 c -0.869 3.193 -4.16 5.074 -7.358 4.196 c -3.195 -0.876 -5.082 -4.178 -4.212 -7.371 c 0.867 -3.195 4.167 -5.076 7.361 -4.198 C 130.774 79.091 132.658 82.393 131.788 85.587 Z" /><path id="SvgjsPath3763" opacity="1" fill="#6777b2" stroke-width="none" d="M 125.266 80.413 l -0.155 -0.278 c -0.548 0.217 -1.076 0.445 -1.576 0.686 l 0.37 0.894 l -0.047 0.517 l -1.426 -0.839 c -0.467 0.259 -0.898 0.529 -1.317 0.804 l 0.004 0.009 l -0.49 0.551 l 0.782 0.799 l -1.052 0.573 l 0.397 0.657 l 1.857 0.185 l -1.741 1.181 l 1.863 -0.103 l -0.982 1.692 l 2.296 -1.39 l -0.616 2.364 l 1.328 -2.184 l 0.257 2.343 l 0.384 -2.073 l 0.353 -0.043 l 0.501 2.35 l 0.151 -0.704 c 0.201 -0.052 0.719 0.703 0.915 0.651 l -0.585 -2.556 l 1.283 2.556 l -0.521 -2.651 l 1.577 2.05 c 0.057 -0.018 0.197 -0.85 0.253 -0.867 l -0.982 -1.469 l 1.786 0.538 l -1.071 -1.16 l -0.859 -0.712 l 3.586 0.802 l -1.997 -1.216 l 1.411 -0.577 l -3.054 -0.308 l 3.021 -1.603 l -2.734 0.698 l -0.736 -0.399 l -0.18 -0.354 l 0.052 -0.847 l 0.061 -1.388 l -1.247 2.198 l -0.11 -1.609 l -0.156 -0.422 c -0.25 0.087 -0.495 0.173 -0.735 0.265 L 125.266 80.413 Z" /><path id="SvgjsPath3764" opacity="0.9" fill="#384b94" stroke-width="none" d="M 131.855 82.755 c -5.24 0.239 -7.906 1.36 -11.706 2.631 c -0.731 -3.229 1.298 -6.438 4.53 -7.164 C 127.911 77.495 131.126 79.525 131.855 82.755 Z" /><path id="SvgjsPath3765" opacity="0.8" fill="#000000" stroke-width="none" d="M 126.87 81.998 c -1.319 -0.378 -2.666 0.376 -3.005 1.69 c -0.343 1.308 0.451 2.678 1.77 3.056 c 1.322 0.379 2.668 -0.375 3.009 -1.684 C 128.987 83.745 128.189 82.376 126.87 81.998 Z" /><path id="SvgjsPath3766" opacity="1" fill="none" stroke="#152975" stroke-width="0.75" d="M 126.87 81.998 c -1.319 -0.378 -2.666 0.376 -3.005 1.69 c -0.343 1.308 0.451 2.678 1.77 3.056 c 1.322 0.379 2.668 -0.375 3.009 -1.684 C 128.987 83.745 128.189 82.376 126.87 81.998 Z" /><path id="SvgjsPath3767" opacity="0.4" fill="#ffffff" stroke-width="none" d="M 121.632 87.56 c 0.612 0.973 1.426 1.706 2.577 1.95 c 1.326 0.281 1.478 -1.482 0.528 -1.685 c -0.72 -0.152 -1.177 -0.504 -1.552 -1.102 C 122.498 85.63 121.079 86.684 121.632 87.56 L 121.632 87.56 Z" /><path id="SvgjsPath3768" opacity="1" fill="url(#SvgjsLinearGradient3769)" d="M 127.034 81.493 c 0.929 0.187 1.469 0.767 1.938 1.639 c 0.862 1.604 3.3 0.178 2.437 -1.425 c -0.757 -1.408 -2.018 -2.613 -3.625 -2.938 C 125.727 78.355 125.438 81.171 127.034 81.493 L 127.034 81.493 Z" /></g></g></g><g id="svga-group-eyesfront-right"><path id="SvgjsPath4618" opacity="1" fill="#f0c7b1" stroke-width="none" d="M 126.063 56.402 c -16.04 0 -21.127 12.091 -21.127 26.528 s 10.366 22.412 20.864 22.305 c 8.869 1.347 19.697 -11.337 20.506 -22.236 C 146.307 68.563 137.563 56.402 126.063 56.402 Z M 127.339 90.163 c -3.614 0.398 -13.873 -1.561 -14.253 -2.847 c -0.687 -2.32 4.534 -6.921 12.052 -7.844 c 7.52 -0.922 13.217 0.767 12.711 3.051 C 136.627 88.04 131.003 89.758 127.339 90.163 Z" /><path id="SvgjsPath4619" opacity="1" fill="url(#SvgjsRadialGradient4620)" d="M 127.339 90.163 c -3.614 0.398 -13.873 -1.561 -14.253 -2.847 c -0.687 -2.32 4.534 -6.921 12.052 -7.844 c 6.46 -0.792 11.563 0.345 12.556 2.128 c -0.898 -6.4 -7.7 -11.397 -15.987 -11.434 c -8.911 -0.037 -16.148 5.676 -16.172 12.765 c -0.021 7.088 7.185 12.862 16.095 12.902 c 8.913 0.037 16.149 -5.676 16.173 -12.764 c 0 -0.105 -0.016 -0.208 -0.019 -0.313 C 136.453 88.083 130.949 89.764 127.339 90.163 Z" /><path id="SvgjsPath4624" opacity="1" fill="url(#SvgjsRadialGradient4625)" d="M 137.849 82.523 c 0.506 -2.285 -5.191 -3.973 -12.711 -3.051 c -7.518 0.923 -12.738 5.524 -12.052 7.844 c 0.38 1.286 10.639 3.245 14.253 2.847 C 131.003 89.758 136.627 88.04 137.849 82.523 Z" /><path id="SvgjsPath4628" opacity="1" fill="#c27b55" stroke-width="none" d="M 137.452 77.417 c -4.208 -1.978 -9.35 -2.16 -13.838 -1.005 c -2.404 0.561 -4.965 1.285 -7.063 2.638 c -1.945 1.135 -3.525 2.5 -5.002 4.19 c 1.342 -1.701 2.773 -3.118 4.623 -4.27 c 2.276 -1.416 4.769 -2.294 7.364 -2.916 C 128.123 74.928 133.259 75.184 137.452 77.417 Z" /><path id="SvgjsPath4629" opacity="1" fill="#000000" stroke-width="none" d="M 136.832 78.02 c -0.88 -0.352 -4.065 -1 -5.456 -1.066 c -1.687 -0.082 -5.073 0.125 -6.735 0.424 c -3.374 0.608 -9.251 2.483 -11.678 7.184 c -0.746 1.445 -0.074 2.456 0.123 2.675 c -0.3 -2.426 4.838 -6.746 12.052 -7.604 c 7.52 -0.894 13.217 0.743 12.711 2.958 c -1.222 5.348 -6.846 7.013 -10.51 7.405 c -4.099 0.439 -11.684 -1.539 -12.686 -1.753 c 1.999 1.009 7.524 2.095 9.767 2.303 c 0.744 0.07 2.24 0.104 2.986 0.085 c 5.949 -0.158 10.169 -3.175 11.729 -7.26 C 140.137 80.745 139.041 78.902 136.832 78.02 Z" /></g></g><g id="svga-group-facehighlight-single" ><path id="SvgjsPath2885" opacity="1" fill="url(#SvgjsRadialGradient2886)" d="M 141 113.974 c 0.035 22.622 -18.292 40.994 -40.938 41.025 c -22.642 0.037 -41.028 -18.273 -41.063 -40.9 c -0.035 -22.62 18.292 -41.064 40.937 -41.1 C 122.579 72.964 140.967 91.349 141 113.974 Z" /><path id="SvgjsPath2889" opacity="1" fill="url(#SvgjsRadialGradient2890)" d="M 137.5 53.999 c 0 20.711 -16.789 37.5 -37.499 37.5 c -20.711 0 -37.501 -16.789 -37.501 -37.5 s 16.79 -37.5 37.501 -37.5 C 120.711 16.499 137.5 33.288 137.5 53.999 Z" /></g><g id="svga-group-eyebrows-left" ><path id="SvgjsPath4666" opacity="1" fill="#2a232b" stroke-width="none" d="M 53.149 74.996 c 9.743 -15.115 36.491 5.148 38.018 -1.191 c 0.299 -1.271 -0.407 -2.015 -1.564 -2.492 C 75.982 65.807 57.955 61.18 53.149 74.996 Z" /></g><g id="svga-group-eyebrows-right" ><path id="SvgjsPath4667" opacity="1" fill="#2a232b" stroke-width="none" d="M 146.851 74.996 c -9.743 -15.115 -36.491 5.148 -38.018 -1.191 c -0.299 -1.271 0.407 -2.015 1.564 -2.492 C 124.018 65.807 142.045 61.18 146.851 74.996 Z" /></g><g id="svga-group-nose-single" ><path id="SvgjsPath3559" opacity="1" fill="#e1ac8f" stroke-width="none" d="M 100.729 120.838 c -0.354 0.161 -1.185 0.161 -1.448 -0.103 c 0 0 -6.296 -2.153 -5.498 -4.215 c 1.264 -3.262 12.727 -0.761 12.717 0 C 106.475 118.462 100.729 120.838 100.729 120.838 Z" /><path id="SvgjsPath3560" opacity="1" fill="#c27b55" stroke-width="none" d="M 92.215 113.609 c 0 0 5.448 -18.624 6.008 -22.61 c 1.063 6.47 -1.503 20.873 -1.774 23.812 c -0.329 3.569 3.455 5.688 3.455 5.688 c 0.293 0.371 -0.061 0.602 -0.516 0.456 l -6.631 -2.559 C 91.186 117.061 91.186 115.79 92.215 113.609 Z M 103.176 116.911 c 0.915 0.207 1.106 0.576 1.035 0.957 c -0.069 0.385 -0.462 0.911 -1.288 0.43 c -0.907 -0.526 -2.619 -0.767 -2.619 -0.767 S 102.261 116.701 103.176 116.911 Z" /></g><g id="svga-group-beardwrap" ><g id="svga-group-beard-single" ><path id="SvgjsPath3021" opacity="1" fill="#2a232b" stroke-width="none" d="M 100 18.13 L 100 18.13 L 100 18.13 L 100 18.13 Z" /></g></g><g id="svga-group-mustache-single" ><path id="SvgjsPath3019" opacity="1" fill="#2a232b" stroke-width="none" d="M 100 18.13 L 100 18.13 L 100 18.13 L 100 18.13 Z" /></g><g id="svga-group-hair-front" ><path id="SvgjsPath3936" opacity="1" fill="#2a232b" stroke-width="none" d="M 158.43 41.325 C 140 -4.765 100 0.405 100 0.405 s -40 -5.169 -58.43 40.92 c -9.245 23.12 2.158 50.324 2.158 50.324 h 5.826 c -5.094 -21.752 0.796 -17.662 1.176 -21.722 c 0.118 -1.255 -0.3 -3.367 -0.421 -4.622 c -0.592 -6.112 1.982 -18.029 5.245 -23.173 c 1.603 -2.526 5.369 -6.659 8.174 -7.699 c 9.97 -3.694 20.044 0.715 22.854 1.421 c 4.461 1.12 22.373 1.12 26.836 0 c 3.343 -0.839 13.182 -4.905 22.854 -1.321 c 2.806 1.04 6.871 4.972 8.474 7.499 c 3.263 5.144 5.537 16.16 4.945 22.272 c -0.121 1.255 -0.539 4.367 -0.422 5.623 c 0.107 1.147 2.617 3.689 2.898 4.807 c 1.16 4.612 -1.722 16.915 -1.722 16.915 h 5.825 C 156.271 91.649 167.676 64.445 158.43 41.325 Z" /><path id="SvgjsPath3937" opacity="1" fill="#000000" stroke-width="none" d="M 154.938 31.163 C 136.178 -3.114 101.979 -0.631 100 -0.455 c -1.979 -0.176 -36.177 -2.659 -54.938 31.618 C 30.57 57.641 41.57 88.137 42.907 91.612 c 0.076 0.197 1.576 0.038 1.576 0.038 c -0.006 -0.015 -0.104 -0.392 -0.166 -0.55 c -1.209 -3.12 -12.189 -33.18 2.061 -59.216 C 65.111 -2.342 99.595 1.007 99.94 1.046 L 100 0.504 l 0.06 0.542 c 0.345 -0.039 34.829 -3.388 53.563 30.837 c 14.563 26.61 2.773 57.423 1.996 59.383 c -0.021 0.055 -0.107 0.375 -0.111 0.383 c 0 0 1.506 0.169 1.575 -0.011 C 158.374 88.294 169.467 57.709 154.938 31.163 Z" /></g><g id="svga-group-glasses-single" ><path id="SvgjsPath3603" opacity="0.2" fill="#ffffff" stroke-width="none" d="M 52.7 78.99 c 11.69 3.22 28.34 -0.15 40.03 7.14 c -0.08 0.44 -0.16 0.87 -0.25 1.31 c -0.64 2.91 -3.23 4.82 -6.36 5.38 c -8.44 1.51 -22.57 1.32 -30.84 0.74 c -1.19 -0.08 -2.16 -0.9 -2.36 -2 C 52.11 87.2 51.8 83.54 52.7 78.99 Z M 106.69 80.35 c 0.05 2.48 0.32 4.73 0.83 7.1 c 0.63 2.91 3.23 4.82 6.36 5.38 c 8.44 1.51 22.57 1.32 30.84 0.74 c 1.19 -0.08 2.16 -0.9 2.36 -2 c 0.31 -1.69 0.55 -3.28 0.67 -4.85 c -11.7 -8.04 -28.85 -4.44 -40.84 -7.71 C 106.77 79.44 106.68 79.89 106.69 80.35 Z" /><path id="SvgjsPath3604" opacity="0.4" fill="#ffffff" stroke-width="none" d="M 93.31 80.35 c -0.05 2.02 -0.24 3.88 -0.58 5.78 c -11.69 -7.3 -28.35 -3.92 -40.03 -7.14 c 0.03 -0.12 0.04 -0.24 0.07 -0.37 c 0.26 -1.24 1.34 -2.15 2.68 -2.28 c 12.7 -1.18 21.35 -1.08 33.89 -0.11 C 91.61 76.42 93.36 78.22 93.31 80.35 Z M 147.24 78.63 c -0.26 -1.24 -1.34 -2.15 -2.68 -2.28 c -12.7 -1.18 -21.35 -1.08 -33.89 -0.11 c -1.78 0.14 -3.22 1.27 -3.75 2.78 c 11.98 3.27 29.14 -0.33 40.84 7.71 C 147.96 84.13 147.85 81.57 147.24 78.63 Z" /><path id="SvgjsPath3605" opacity="1" fill="#26120b" stroke-width="none" d="M 153 78.74 h -5.22 c -0.02 -0.07 -0.02 -0.14 -0.04 -0.21 c -0.3 -1.44 -1.57 -2.52 -3.13 -2.67 c -12.9 -1.2 -21.6 -1.07 -33.98 -0.11 c -0.15 0.01 -0.29 0.05 -0.43 0.07 l 0.03 -0.03 c 0 0 -0.12 0.03 -0.33 0.08 c -0.09 0.02 -0.19 0.04 -0.28 0.06 c -1.08 0.24 -3.42 0.7 -5.37 0.76 c -3.91 0.12 -4.75 0.11 -8.5 0 c -1.95 -0.06 -4.29 -0.52 -5.37 -0.76 c -0.09 -0.03 -0.18 -0.04 -0.28 -0.06 c -0.21 -0.05 -0.33 -0.08 -0.33 -0.08 l 0.03 0.03 c -0.14 -0.02 -0.28 -0.06 -0.43 -0.07 c -12.39 -0.96 -21.09 -1.09 -33.98 0.11 c -1.56 0.15 -2.83 1.23 -3.13 2.67 c -0.02 0.07 -0.02 0.14 -0.04 0.21 H 47 v 2.92 h 4.79 c -0.17 1.7 -0.19 3.33 -0.07 4.97 h 1.06 c -0.2 -2.54 -0.09 -5.05 0.51 -7.92 c 0.21 -1.02 1.1 -1.78 2.21 -1.88 c 6.3 -0.59 11.69 -0.86 16.98 -0.86 c 4.97 0 9.99 0.22 16.81 0.75 c 2 0.15 3.53 1.74 3.49 3.61 c -0.05 2.2 -0.28 4.22 -0.69 6.29 h 1.07 c 0.39 -2.02 0.62 -4.02 0.67 -6.27 c 0.01 -0.66 -0.13 -1.28 -0.39 -1.85 c 0.33 -0.07 0.85 -0.16 1.51 -0.21 c 2.51 -0.18 8.07 -0.14 10.11 0 c 0.66 0.05 1.19 0.14 1.51 0.21 c -0.26 0.57 -0.41 1.19 -0.39 1.85 c 0.05 2.25 0.28 4.25 0.67 6.27 h 1.07 c -0.41 -2.07 -0.64 -4.09 -0.68 -6.29 c -0.04 -1.87 1.49 -3.46 3.49 -3.61 c 6.82 -0.53 11.84 -0.75 16.81 -0.75 c 5.29 0 10.69 0.27 16.98 0.86 c 1.11 0.1 2 0.86 2.21 1.88 c 0.6 2.87 0.71 5.38 0.51 7.92 h 1.05 c 0.13 -1.64 0.1 -3.27 -0.07 -4.97 H 153 V 78.74 Z" /></g></g></g><rect id="SvgjsRect1036" style="display:none;" opacity="0.5" fill="#ecf0f1" x="0" y="185" width="200" height="15" /><text id="SvgjsText1037" font-family="&quot;Roboto&quot;,&quot;Helvetica Neue&quot;,Helvetica,Arial,sans-serif" font-size="0.84em" font-weight="400" style="font-size:0.84em;font-family:&quot;Roboto&quot;, &quot;Helvetica Neue&quot;, Helvetica, Arial, sans-serif;text-anchor:middle;font-weight:400;display:none;" fill="#000000" text-anchor="middle" x="100" y="185"><tspan id="SvgjsTspan1038" style="font-size:0.84em;font-family:&quot;Roboto&quot;, &quot;Helvetica Neue&quot;, Helvetica, Arial, sans-serif;text-anchor:middle;font-weight:400;" x="100" dy="1.2em">Created on AvatarMaker.com</tspan></text></g><defs id="SvgjsDefs1001"><radialGradient class="svga-on-canvas-facehighlight-gradient-single-0" id="SvgjsRadialGradient2886" gradientUnits="userSpaceOnUse" cx="100" cy="114" r="41"><stop id="SvgjsStop2887" stop-color="rgb(255, 228, 214)" stop-opacity="0.5" offset="0" /><stop id="SvgjsStop2888" stop-color="rgb(240, 199, 177)" stop-opacity="0" offset="0.9" /></radialGradient><radialGradient class="svga-on-canvas-facehighlight-gradient-single-1" id="SvgjsRadialGradient2890" gradientUnits="userSpaceOnUse" cx="100" cy="54" r="37"><stop id="SvgjsStop2891" stop-color="rgb(255, 228, 214)" stop-opacity="0.5" offset="0" /><stop id="SvgjsStop2892" stop-color="rgb(240, 199, 177)" stop-opacity="0" offset="0.9" /></radialGradient><radialGradient class="svga-on-canvas-eyesiris-gradient-left-2" id="SvgjsRadialGradient3421" gradientUnits="userSpaceOnUse" gradientTransform="matrix(0.0991, 0.000885632, -0.0011, 0.0991, 131.113, 135.986)" cx="-582.838" cy="-519.099" r="59.745"><stop id="SvgjsStop3422" stop-color="rgb(255, 255, 255)" stop-opacity="1" offset="0" /><stop id="SvgjsStop3423" stop-color="rgb(255, 255, 255)" stop-opacity="0" offset="1" /></radialGradient><linearGradient class="svga-on-canvas-eyesiris-gradient-left-5" id="SvgjsLinearGradient3427" gradientUnits="userSpaceOnUse" gradientTransform="matrix(1, 0, 0, 1, -52, 0)" x1="122.67" y1="88.268" x2="123.606" y2="87.152"><stop id="SvgjsStop3428" stop-color="rgb(255, 255, 255)" stop-opacity="1" offset="0" /><stop id="SvgjsStop3429" stop-color="rgb(255, 255, 255)" stop-opacity="0" offset="1" /></linearGradient><linearGradient class="svga-on-canvas-eyesiris-gradient-left-7" id="SvgjsLinearGradient3435" gradientUnits="userSpaceOnUse" gradientTransform="matrix(1, 0, 0, 1, -52, 0)" x1="129.636" y1="79.822" x2="127.91" y2="81.879"><stop id="SvgjsStop3436" stop-color="rgb(255, 255, 255)" stop-opacity="1" offset="0" /><stop id="SvgjsStop3437" stop-color="rgb(255, 255, 255)" stop-opacity="0" offset="1" /></linearGradient><radialGradient class="svga-on-canvas-eyesiris-gradient-right-2" id="SvgjsRadialGradient3444" gradientUnits="userSpaceOnUse" gradientTransform="matrix(0.0991, 0.000885632, -0.0011, 0.0991, 183.113, 135.986)" cx="-582.833" cy="-519.102" r="59.747"><stop id="SvgjsStop3445" stop-color="rgb(255, 255, 255)" stop-opacity="1" offset="0" /><stop id="SvgjsStop3446" stop-color="rgb(255, 255, 255)" stop-opacity="0" offset="1" /></radialGradient><linearGradient class="svga-on-canvas-eyesiris-gradient-right-5" id="SvgjsLinearGradient3450" gradientUnits="userSpaceOnUse" x1="122.67" y1="88.268" x2="123.606" y2="87.152"><stop id="SvgjsStop3451" stop-color="rgb(255, 255, 255)" stop-opacity="1" offset="0" /><stop id="SvgjsStop3452" stop-color="rgb(255, 255, 255)" stop-opacity="0" offset="1" /></linearGradient><linearGradient class="svga-on-canvas-eyesiris-gradient-right-7" id="SvgjsLinearGradient3458" gradientUnits="userSpaceOnUse" x1="129.636" y1="79.822" x2="127.91" y2="81.879"><stop id="SvgjsStop3459" stop-color="rgb(255, 255, 255)" stop-opacity="1" offset="0" /><stop id="SvgjsStop3460" stop-color="rgb(255, 255, 255)" stop-opacity="0" offset="1" /></linearGradient><linearGradient class="svga-on-canvas-mouth-gradient-single-0" id="SvgjsLinearGradient3553" gradientUnits="userSpaceOnUse" x1="100" y1="142" x2="100" y2="139"><stop id="SvgjsStop3554" stop-color="rgb(232, 185, 160)" stop-opacity="1" offset="0.1" /><stop id="SvgjsStop3555" stop-color="rgb(225, 172, 143)" stop-opacity="1" offset="1" /></linearGradient><linearGradient class="svga-on-canvas-chinshadow-gradient-single-0" id="SvgjsLinearGradient3599" gradientUnits="userSpaceOnUse" x1="100" y1="172" x2="100" y2="133"><stop id="SvgjsStop3600" stop-color="rgb(225, 172, 143)" stop-opacity="0.8" offset="0" /><stop id="SvgjsStop3601" stop-color="rgb(194, 123, 85)" stop-opacity="1" offset="0.7" /></linearGradient><linearGradient class="svga-on-canvas-eyesiris-gradient-left-1" id="SvgjsLinearGradient3732" gradientUnits="userSpaceOnUse" gradientTransform="matrix(1, 0, 0, 1, -50, 0)" x1="127.637" y1="79.822" x2="125.91" y2="81.88"><stop id="SvgjsStop3733" stop-color="rgb(255, 255, 255)" stop-opacity="1" offset="0" /><stop id="SvgjsStop3734" stop-color="rgb(255, 255, 255)" stop-opacity="0" offset="1" /></linearGradient><linearGradient class="svga-on-canvas-eyesiris-gradient-right-1" id="SvgjsLinearGradient3737" gradientUnits="userSpaceOnUse" x1="129.637" y1="79.823" x2="127.91" y2="81.881"><stop id="SvgjsStop3738" stop-color="rgb(255, 255, 255)" stop-opacity="1" offset="0" /><stop id="SvgjsStop3739" stop-color="rgb(255, 255, 255)" stop-opacity="0" offset="1" /></linearGradient><linearGradient class="svga-on-canvas-eyesiris-gradient-left-6" id="SvgjsLinearGradient3759" gradientUnits="userSpaceOnUse" gradientTransform="matrix(1, 0, 0, 1, -50, 0)" x1="132" y1="78" x2="126" y2="84"><stop id="SvgjsStop3760" stop-color="rgb(255, 255, 255)" stop-opacity="1" offset="0" /><stop id="SvgjsStop3761" stop-color="rgb(255, 255, 255)" stop-opacity="0" offset="1" /></linearGradient><linearGradient class="svga-on-canvas-eyesiris-gradient-right-6" id="SvgjsLinearGradient3769" gradientUnits="userSpaceOnUse" x1="132" y1="78" x2="126" y2="84"><stop id="SvgjsStop3770" stop-color="rgb(255, 255, 255)" stop-opacity="1" offset="0" /><stop id="SvgjsStop3771" stop-color="rgb(255, 255, 255)" stop-opacity="0" offset="1" /></linearGradient><radialGradient class="svga-on-canvas-eyesback-gradient-left-0" id="SvgjsRadialGradient4577" gradientUnits="userSpaceOnUse" gradientTransform="matrix(-0.9945, 0.1042, 0.1042, 0.9945, 192.828, -12.4633)" cx="129.041" cy="83.945" r="15.117"><stop id="SvgjsStop4578" stop-color="rgb(255, 255, 255)" stop-opacity="1" offset="0" /><stop id="SvgjsStop4579" stop-color="rgb(252, 253, 253)" stop-opacity="1" offset="0.315" /><stop id="SvgjsStop4580" stop-color="rgb(244, 247, 248)" stop-opacity="1" offset="0.504" /><stop id="SvgjsStop4581" stop-color="rgb(229, 236, 239)" stop-opacity="1" offset="0.66" /><stop id="SvgjsStop4582" stop-color="rgb(216, 226, 231)" stop-opacity="1" offset="0.76" /></radialGradient><radialGradient class="svga-on-canvas-eyesback-gradient-right-0" id="SvgjsRadialGradient4584" gradientUnits="userSpaceOnUse" gradientTransform="matrix(0.9945, 0.1042, -0.1042, 0.9945, 7.1738, -12.4633)" cx="128.643" cy="83.986" r="15.116"><stop id="SvgjsStop4585" stop-color="rgb(255, 255, 255)" stop-opacity="1" offset="0" /><stop id="SvgjsStop4586" stop-color="rgb(252, 253, 253)" stop-opacity="1" offset="0.316" /><stop id="SvgjsStop4587" stop-color="rgb(244, 247, 248)" stop-opacity="1" offset="0.505" /><stop id="SvgjsStop4588" stop-color="rgb(229, 236, 239)" stop-opacity="1" offset="0.661" /><stop id="SvgjsStop4589" stop-color="rgb(216, 226, 231)" stop-opacity="1" offset="0.76" /></radialGradient><radialGradient class="svga-on-canvas-eyesfront-gradient-left-0" id="SvgjsRadialGradient4591" gradientUnits="userSpaceOnUse" gradientTransform="matrix(-0.9945, 0.1042, 0.1042, 0.9945, 192.828, -12.4633)" cx="129.041" cy="83.945" r="15.117"><stop id="SvgjsStop4592" stop-color="rgb(255, 255, 255)" stop-opacity="1" offset="0" /><stop id="SvgjsStop4593" stop-color="rgb(252, 253, 253)" stop-opacity="1" offset="0.316" /><stop id="SvgjsStop4594" stop-color="rgb(244, 247, 248)" stop-opacity="1" offset="0.505" /><stop id="SvgjsStop4595" stop-color="rgb(229, 236, 239)" stop-opacity="1" offset="0.661" /><stop id="SvgjsStop4596" stop-color="rgb(216, 226, 231)" stop-opacity="1" offset="0.76" /></radialGradient><radialGradient class="svga-on-canvas-eyesfront-gradient-left-3" id="SvgjsRadialGradient4600" gradientUnits="userSpaceOnUse" gradientTransform="matrix(0.9998, 0.0208, 0.0166, -0.7998, -45.3195, 145.939)" cx="121.986" cy="82.496" r="16.003" fx="133.239" fy="82.527"><stop id="SvgjsStop4601" stop-color="rgb(225, 172, 143)" stop-opacity="1" offset="0" /><stop id="SvgjsStop4602" stop-color="rgb(225, 172, 143)" stop-opacity="0.3" offset="0.7" /><stop id="SvgjsStop4603" stop-color="rgb(240, 199, 177)" stop-opacity="0" offset="1" /></radialGradient><radialGradient class="svga-on-canvas-eyesfront-gradient-left-4" id="SvgjsRadialGradient4605" gradientUnits="userSpaceOnUse" gradientTransform="matrix(1.0336, 0, 0, 1.0336, -1.6796, 1.3127)" cx="68.931" cy="105.995" r="29.524"><stop id="SvgjsStop4606" stop-color="rgb(0, 0, 0)" stop-opacity="0" offset="0.95" /><stop id="SvgjsStop4607" stop-color="rgb(0, 0, 0)" stop-opacity="0.2" offset="1" /></radialGradient><radialGradient class="svga-on-canvas-eyesfront-gradient-right-0" id="SvgjsRadialGradient4611" gradientUnits="userSpaceOnUse" gradientTransform="matrix(0.9945, 0.1042, -0.1042, 0.9945, 7.1738, -12.4633)" cx="128.643" cy="83.986" r="15.116"><stop id="SvgjsStop4612" stop-color="rgb(255, 255, 255)" stop-opacity="1" offset="0" /><stop id="SvgjsStop4613" stop-color="rgb(252, 253, 253)" stop-opacity="1" offset="0.316" /><stop id="SvgjsStop4614" stop-color="rgb(244, 247, 248)" stop-opacity="1" offset="0.505" /><stop id="SvgjsStop4615" stop-color="rgb(229, 236, 239)" stop-opacity="1" offset="0.661" /><stop id="SvgjsStop4616" stop-color="rgb(216, 226, 231)" stop-opacity="1" offset="0.76" /></radialGradient><radialGradient class="svga-on-canvas-eyesfront-gradient-right-3" id="SvgjsRadialGradient4620" gradientUnits="userSpaceOnUse" gradientTransform="matrix(-0.9998, 0.0208, -0.0166, -0.7998, 244.521, 145.948)" cx="121.587" cy="82.496" r="16.003" fx="132.839" fy="82.527"><stop id="SvgjsStop4621" stop-color="rgb(225, 172, 143)" stop-opacity="1" offset="0" /><stop id="SvgjsStop4622" stop-color="rgb(225, 172, 143)" stop-opacity="0.3" offset="0.7" /><stop id="SvgjsStop4623" stop-color="rgb(240, 199, 177)" stop-opacity="0" offset="1" /></radialGradient><radialGradient class="svga-on-canvas-eyesfront-gradient-right-4" id="SvgjsRadialGradient4625" gradientUnits="userSpaceOnUse" gradientTransform="matrix(-1.0336, 0, 0, 1.0336, 201.68, 1.3127)" cx="69.316" cy="105.995" r="29.524"><stop id="SvgjsStop4626" stop-color="rgb(0, 0, 0)" stop-opacity="0" offset="0.95" /><stop id="SvgjsStop4627" stop-color="rgb(0, 0, 0)" stop-opacity="0.2" offset="1" /></radialGradient></defs></svg>