<svg xmlns="http://www.w3.org/2000/svg" version="1.1" width="600px" height="600px" xlink="http://www.w3.org/1999/xlink" style="overflow:hidden!important;"><g id="svga-group-wrapper" transform="scale(3 3)"><g id="svga-group-backs-single"><path id="SvgjsPath4403" opacity="1" fill="#ecf0f1" stroke-width="none" d="M 225 225 H -25 V -25 h 250 V 225 Z" /></g><g id="svga-group-subwrapper" ><g id="svga-group-hair-back" ><path id="SvgjsPath4409" opacity="1" fill="#0c080c" stroke-width="none" d="M 160.527 108.896 c -0.826 32.13 -25.267 102.589 -58.469 102.589 c -33.201 0 -60.969 -69.5 -61.767 -102.589 c -1.15 -47.67 26.917 -86.339 60.118 -86.339 C 133.611 22.558 161.753 61.229 160.527 108.896 Z" /></g><g id="svga-group-humanbody-single"><path id="SvgjsPath2761" opacity="1" fill="#f3d4cf" stroke="none" stroke-width="none" d="M 190.858 199.866 c -6.008 -10.158 -13.474 -11.973 -19.628 -13.936 c -6.323 -2.016 -19.346 -3.178 -26.449 -4.6 c -6.86 -1.373 -23.153 -5.789 -23.339 -13.488 c -0.192 -8.066 4.291 -40.09 4.291 -40.09 H 74.005 c 0 0 4.487 32.023 4.294 40.09 c -0.184 7.699 -16.48 12.115 -23.341 13.488 c -7.104 1.422 -20.125 2.584 -26.448 4.6 c -6.156 1.963 -13.624 3.777 -19.632 13.936 c -3.644 6.16 -6.008 16.133 -6.008 27.133 h 194 C 196.869 215.999 194.509 206.026 190.858 199.866 Z" /><path id="SvgjsPath2762" opacity="1" fill="#fff4f3" stroke="none" stroke-width="none" d="M 121.442 167.843 c 2.495 10.929 18.165 13.698 26.293 15.325 c 21.909 4.379 33.772 5.134 42.297 19.539 c 2.903 4.916 5.459 15.864 5.962 24.153 c 1.835 0.291 0.531 -17.432 -5.136 -26.994 c -9.742 -16.472 -29.089 -15.135 -46.077 -18.535 C 137.921 179.958 121.628 175.542 121.442 167.843 L 121.442 167.843 Z M 78.558 167.843 c -0.186 7.699 -16.479 12.115 -23.339 13.488 c -16.988 3.4 -36.335 2.063 -46.077 18.535 c -5.667 9.563 -6.971 27.285 -5.136 26.994 c 0.503 -8.289 3.059 -19.237 5.962 -24.153 c 8.524 -14.405 20.388 -15.16 42.297 -19.539 C 60.393 181.541 76.063 178.771 78.558 167.843 L 78.558 167.843 Z" /><path id="SvgjsPath2763" opacity="1" fill="#e4b3ab" stroke="none" stroke-width="none" d="M 51.206 189.513 c 0 0 28.641 0.299 33.473 1.885 c 2.314 0.758 8.372 5.633 8.372 5.633 s -6.556 -3.17 -8.658 -3.758 C 79.51 191.909 51.206 189.513 51.206 189.513 Z M 99.795 199.999 c 2.053 -0.041 7.887 -3.799 7.887 -3.799 s -5.574 2.059 -7.342 2.16 c -1.491 0.086 -6.366 -1.238 -6.366 -1.238 S 98.112 200.032 99.795 199.999 Z M 117.008 192.757 c 6.75 -1.818 29.786 -3.23 29.786 -3.23 s -23.791 -0.516 -30.51 1.725 c -2.252 0.752 -7.562 5.16 -7.562 5.16 S 114.786 193.354 117.008 192.757 Z" /><path id="SvgjsPath2764" opacity="1" fill="none" stroke="#c5796d" stroke-width="1.5" d="M 190.858 199.866 c -9.741 -16.471 -29.122 -15.142 -46.077 -18.535 c -6.86 -1.373 -23.153 -5.789 -23.339 -13.488 c -0.192 -8.066 4.291 -40.09 4.291 -40.09 H 74.005 c 0 0 4.487 32.023 4.294 40.09 c -0.184 7.699 -16.48 12.115 -23.341 13.488 c -7.104 1.422 -20.125 2.584 -26.448 4.6 c -6.156 1.963 -13.624 3.777 -19.632 13.936 c -3.644 6.16 -6.008 16.133 -6.008 27.133 h 194 C 196.869 215.999 194.509 206.026 190.858 199.866 Z" /></g><g id="svga-group-chinshadow-single"><path id="SvgjsPath4420" opacity="1" fill="url(#SvgjsLinearGradient4421)" d="M 100.021 171.27 c 5.607 -0.009 13.53 -3.627 20.967 -8.478 c 0.485 -6.84 1.756 -17.341 2.758 -25.098 c -13.972 -1.825 -33.828 -1.785 -47.741 0.101 c 0.995 7.702 2.249 18.065 2.739 24.877 C 86.278 167.593 94.344 171.279 100.021 171.27 Z" /></g><g id="svga-group-clothes-single" ><path id="SvgjsPath4405" opacity="1" fill="#1fbad4" stroke-width="none" d="M 3.229 223.031 c -0.622 -0.007 -0.456 -0.006 -0.92 -0.006 c 0.025 -17.784 6.689 -31.059 17.837 -35.518 c 1.466 0.314 3.037 0.725 4.514 1.033 C 11.551 194.886 4.531 208.814 3.229 223.031 Z M 181.643 188.404 c -1.855 0.251 -3.683 0.491 -5.504 0.729 c 13.353 5.75 17.424 20.534 19.434 33.854 c 0.344 -0.001 0.655 -0.002 0.931 -0.002 C 195.421 206.217 195.152 195.351 181.643 188.404 Z" /><path id="SvgjsPath4406" opacity="1" fill="#09aac5" stroke-width="none" d="M 181.509 192.193 c 0.734 -0.111 2.033 -0.324 2.761 -0.438 c -1.678 -1.271 -2.67 -1.958 -3.67 -2.549 c -5.851 1.009 -59.284 7.112 -88.51 7.112 c -38.337 0 -66.622 -6.76 -71.951 -8.293 c -1.09 0.62 -2.15 1.301 -3.15 2.061 c 1 0.257 2.201 0.598 3.218 0.841 c -10.338 7.09 -15.825 19.518 -16.978 32.104 c 30.39 0.341 61.447 0.514 92.321 0.514 c 0.005 0 0.01 0 0.015 0 c 40.676 0 71.674 -0.298 88.328 -0.458 c 5.388 -0.052 9.327 -0.09 11.679 -0.1 C 193.85 211.572 190.635 199.159 181.509 192.193 Z" /><path id="SvgjsPath4407" opacity="1" fill="#009cb6" stroke-width="none" d="M 23.439 189.002 c -1.117 0.595 -2.181 1.252 -3.204 1.955 c 49.803 12.038 110.22 9.005 161.174 1.236 c -1.131 -0.854 -2.354 -1.625 -3.673 -2.303 C 129.006 198.106 71.062 201.817 23.439 189.002 Z" /><path id="SvgjsPath4408" opacity="1" fill="#008197" stroke-width="none" d="M 181.629 188.306 c -89.42 12.081 -124.385 7.031 -161.52 -0.891 c -13.279 5.312 -17.9 21.352 -17.9 35.71 c 0.17 0 0.33 0 0.49 0 c 105.661 1.193 182.323 -0.04 193.91 -0.04 C 195.509 206.252 195.316 195.321 181.629 188.306 Z M 20.239 188.125 c 49.132 14.134 109.964 10.021 160.36 1.28 c 1 0.591 1.992 1.079 3.67 2.35 c -52.607 8.26 -115.869 11.615 -167.18 -1.569 C 18.089 189.426 19.149 188.745 20.239 188.125 Z M 2.769 222.605 c 1.961 -14.393 4.62 -24.719 13.97 -32.15 c 50.694 14.553 116.182 11.469 168.26 1.86 c 8.309 6.651 7.884 13.707 11.01 30.32 C 140.967 222.022 68.396 221.847 2.769 222.605 Z" /></g><g id="svga-group-head" ><g id="svga-group-ears-left" ><path id="SvgjsPath2774" opacity="1" fill="#f3d4cf" stroke="#c5796d" stroke-width="1.5" d="M 47.001 83.974 c -1.376 -2.313 -5.638 -7.997 -9.98 -6.603 c -2.749 0.882 -3.293 3.765 -3.735 6.311 c -0.588 3.386 0.471 10.083 1.389 12.503 c 0.881 2.325 3.533 6.816 5.264 8.527 c 2.13 2.1 4.775 8.793 5.194 9.487 c 0.66 1.097 1.536 2.745 4.122 2.538 c 2.853 -0.229 4.584 -1.742 5.856 -1.999 C 58.253 114.109 50.582 89.995 47.001 83.974 Z" /><path id="SvgjsPath2775" opacity="1" fill="#c5796d" stroke="none" stroke-width="none" d="M 44.197 97.997 c -0.132 -0.548 0.007 -1.47 0.142 -2.362 c 0.124 -0.812 0.24 -1.579 0.169 -2.121 c -0.267 -2.032 -1.773 -5.893 -2.757 -7.985 c -1.132 -2.407 -2.963 -5.439 -5.262 -6.221 c -0.95 -0.324 -1.575 0.063 -1.938 0.456 c -0.266 0.289 -0.325 0.627 -0.238 0.667 c 0.086 0.04 0.285 -0.24 0.572 -0.504 c 0.235 -0.216 0.579 -0.402 1.051 -0.363 c -0.19 1.011 -1.167 6.49 -0.744 10.225 c 0.333 2.938 1.593 5.131 1.79 5.46 c 0.029 0.346 0.077 0.685 0.148 1.014 c 0.929 4.287 4.971 9.163 6.378 10.758 c 0.259 0.295 0.531 0.47 0.598 0.398 c 0.066 -0.072 -0.094 -0.364 -0.353 -0.66 c -1.388 -1.585 -5.391 -6.442 -6.289 -10.579 c -0.952 -4.389 2.318 -10.896 3.048 -12.272 c 0.371 0.646 0.687 1.267 0.93 1.785 c 0.19 0.406 0.402 0.881 0.619 1.395 c -0.429 0.718 -3.434 5.958 -2.338 10.153 c 0.406 1.546 2.235 3.54 3.447 4.086 c 0.667 0.301 0.919 0.75 1.209 1.271 c 0.336 0.604 0.718 1.288 1.828 1.784 c 0.225 0.102 0.429 0.142 0.61 0.142 c 0.313 0 0.551 -0.126 0.725 -0.276 c 0.018 0.266 0.017 0.604 0.009 0.917 c -0.012 0.404 0.042 0.737 0.137 0.745 c 0.094 0.008 0.196 -0.313 0.207 -0.717 c 0.016 -0.496 0.013 -1.11 -0.072 -1.403 c -0.248 -0.865 -1.008 -1.841 -1.813 -2.875 C 45.221 99.896 44.403 98.844 44.197 97.997 Z M 36.95 94.196 c -2.177 -6.731 0.656 -12.54 1.144 -13.464 c 0.85 0.775 1.6 1.811 2.21 2.824 C 39.86 84.365 37.041 89.669 36.95 94.196 Z M 46.341 104.042 c -1.004 -0.447 -1.339 -1.051 -1.666 -1.633 c -0.293 -0.527 -0.598 -1.072 -1.369 -1.42 c -0.168 -0.075 -0.352 -0.191 -0.542 -0.323 c -2.486 -5.906 0.272 -8.488 0.963 -9.017 c 0.211 0.722 0.369 1.384 0.439 1.915 c 0.063 0.488 -0.052 1.263 -0.167 2.012 c -0.142 0.929 -0.286 1.89 -0.137 2.512 c 0.226 0.926 1.069 2.009 1.884 3.057 c 0.723 0.929 1.466 1.888 1.721 2.67 C 47.359 103.972 47.017 104.345 46.341 104.042 Z" /></g><g id="svga-group-ears-right" ><path id="SvgjsPath2776" opacity="1" fill="#f3d4cf" stroke="#c5796d" stroke-width="1.5" d="M 152.736 83.974 c 1.377 -2.313 5.639 -7.997 9.98 -6.603 c 2.75 0.882 3.293 3.765 3.736 6.311 c 0.588 3.386 -0.471 10.083 -1.389 12.503 c -0.881 2.325 -3.533 6.816 -5.266 8.527 c -2.129 2.1 -4.775 8.793 -5.193 9.487 c -0.658 1.097 -1.535 2.745 -4.121 2.538 c -2.854 -0.229 -4.584 -1.742 -5.857 -1.999 C 141.484 114.109 149.156 89.995 152.736 83.974 Z" /><path id="SvgjsPath2777" opacity="1" fill="#c5796d" stroke="none" stroke-width="none" d="M 153.727 100.913 c -0.805 1.033 -1.564 2.009 -1.813 2.875 c -0.086 0.293 -0.088 0.907 -0.072 1.403 c 0.012 0.404 0.113 0.725 0.207 0.717 s 0.148 -0.341 0.137 -0.745 c -0.008 -0.313 -0.008 -0.651 0.01 -0.917 c 0.174 0.15 0.412 0.276 0.725 0.276 c 0.182 0 0.385 -0.04 0.609 -0.142 c 1.109 -0.496 1.492 -1.18 1.828 -1.784 c 0.289 -0.52 0.543 -0.969 1.209 -1.271 c 1.213 -0.546 3.041 -2.54 3.447 -4.086 c 1.096 -4.194 -1.908 -9.435 -2.338 -10.153 c 0.217 -0.513 0.43 -0.988 0.619 -1.395 c 0.244 -0.518 0.559 -1.139 0.93 -1.785 c 0.73 1.377 4 7.883 3.049 12.272 c -0.896 4.137 -4.9 8.994 -6.289 10.579 c -0.258 0.296 -0.418 0.588 -0.352 0.66 c 0.066 0.071 0.338 -0.104 0.598 -0.398 c 1.406 -1.596 5.449 -6.471 6.379 -10.758 c 0.07 -0.329 0.117 -0.668 0.146 -1.014 c 0.197 -0.329 1.459 -2.523 1.791 -5.46 c 0.422 -3.735 -0.555 -9.214 -0.744 -10.225 c 0.473 -0.039 0.814 0.146 1.051 0.363 c 0.287 0.264 0.486 0.544 0.572 0.504 s 0.027 -0.378 -0.238 -0.667 c -0.363 -0.393 -0.988 -0.779 -1.938 -0.456 c -2.299 0.782 -4.131 3.814 -5.262 6.221 c -0.984 2.093 -2.49 5.953 -2.758 7.985 c -0.072 0.542 0.045 1.309 0.17 2.121 c 0.135 0.892 0.273 1.814 0.141 2.362 C 155.336 98.844 154.518 99.896 153.727 100.913 Z M 159.434 83.555 c 0.611 -1.013 1.361 -2.049 2.211 -2.824 c 0.488 0.925 3.32 6.733 1.145 13.464 C 162.697 89.669 159.879 84.365 159.434 83.555 Z M 152.27 103.816 c 0.254 -0.782 0.998 -1.741 1.721 -2.67 c 0.816 -1.048 1.658 -2.131 1.885 -3.057 c 0.148 -0.622 0.004 -1.583 -0.137 -2.512 c -0.115 -0.749 -0.23 -1.524 -0.166 -2.012 c 0.068 -0.531 0.227 -1.193 0.438 -1.915 c 0.691 0.529 3.449 3.111 0.965 9.017 c -0.191 0.132 -0.375 0.248 -0.543 0.323 c -0.771 0.348 -1.074 0.893 -1.369 1.42 c -0.326 0.582 -0.662 1.186 -1.666 1.633 C 152.721 104.345 152.379 103.972 152.27 103.816 Z" /></g><g id="svga-group-faceshape-wrap" ><g id="svga-group-faceshape-single" ><path id="SvgjsPath4417" opacity="1" fill="#f3d4cf" stroke-width="none" d="M 158.785 76.762 l -0.005 0 c -0.012 0.053 -10.717 44.373 -18.919 56.95 c -6.452 9.895 -28.166 25.54 -39.84 25.558 c -11.671 0.02 -33.437 -15.559 -39.918 -25.433 C 51.861 121.285 41.017 77 41.005 76.946 h -0.001 c -1.298 -4.911 -1.994 -10.066 -2.002 -15.382 C 38.949 28.09 66.155 0.919 99.773 0.867 c 33.621 -0.052 60.913 27.033 60.964 60.507 C 160.746 66.69 160.068 71.846 158.785 76.762 Z" /><path id="SvgjsPath4418" opacity="1" fill="#ebc3bd" stroke-width="none" d="M 125.766 6.622 c 19.104 10.248 32.075 30.355 32.039 53.476 c -0.009 5.316 -0.704 10.471 -2.003 15.382 h -0.001 c -0.012 0.053 -10.856 44.339 -19.099 56.891 c -5.946 9.061 -24.555 25.121 -36.833 25.121 c -12.279 0 -30.886 -16.061 -36.833 -25.121 c -8.242 -12.552 -19.086 -56.837 -19.098 -56.891 h -0.001 c -1.298 -4.911 -1.994 -10.066 -2.002 -15.382 C 41.898 36.977 54.87 16.87 73.972 6.622 C 53.277 16.324 38.963 37.28 39.001 61.564 c 0.008 5.316 0.704 10.471 2.002 15.382 h 0.001 c 0.012 0.053 10.856 44.339 19.098 56.891 c 4.416 6.728 15.922 16.095 26.5 21.382 c -0.529 -0.226 -1.062 -0.466 -1.599 -0.717 c 5.408 2.875 10.664 4.763 14.713 4.768 c 0.049 0 0.103 -0.005 0.152 -0.005 s 0.103 0.005 0.152 0.005 c 4.049 -0.005 9.305 -1.893 14.714 -4.768 c -0.538 0.253 -1.071 0.491 -1.601 0.718 c 10.577 -5.287 22.085 -14.655 26.501 -21.383 c 8.242 -12.552 19.087 -56.837 19.098 -56.891 h 0.002 c 1.298 -4.911 1.994 -10.066 2.002 -15.382 C 160.775 37.28 146.462 16.324 125.766 6.622 Z" /><path id="SvgjsPath4419" opacity="1" fill="none" stroke="#c5796d" stroke-width="1.5" d="M 158.785 76.762 l -0.005 0 c -0.012 0.053 -10.717 44.373 -18.919 56.95 c -6.452 9.895 -28.166 25.54 -39.84 25.558 c -11.671 0.02 -33.437 -15.559 -39.918 -25.433 C 51.861 121.285 41.017 77 41.005 76.946 h -0.001 c -1.298 -4.911 -1.994 -10.066 -2.002 -15.382 C 38.949 28.09 66.155 0.919 99.773 0.867 c 33.621 -0.052 60.913 27.033 60.964 60.507 C 160.746 66.69 160.068 71.846 158.785 76.762 Z" /></g></g><g id="svga-group-mouth-single" ><path id="SvgjsPath2882" opacity="1" fill="url(#SvgjsLinearGradient2883)" d="M 100.002 141.435 c -4.158 0 -5.133 -3.232 -5.133 -3.232 h 10.267 C 105.136 138.202 103.659 141.435 100.002 141.435 Z" /><path id="SvgjsPath2886" opacity="1" fill="#f771a9" stroke="#e85391" stroke-width="0.75" d="M 87.536 132.96 c 2.756 -0.951 6.239 -3.625 8.432 -3.723 c 1.133 -0.051 2.351 0.87 3.574 1.166 c 0.851 0.207 3.264 -1.156 4.13 -1.166 c 2.272 -0.022 6.326 2.771 8.769 3.723 c 0.135 0.055 0 0 0 0 s -5.056 6.021 -12.452 6.021 C 91.618 138.98 87.536 132.96 87.536 132.96 S 87.399 133.01 87.536 132.96 Z" /><path id="SvgjsPath2887" opacity="1" fill="#c92066" stroke="none" stroke-width="none" d="M 112.808 132.902 c -0.187 -0.076 -0.606 -0.028 -0.753 -0.021 c -0.304 0.016 -0.546 -0.117 -1.214 -0.129 c -0.742 -0.012 -3.945 -0.268 -5.003 -0.338 c -2.129 -0.143 -3.824 0.666 -5.848 0.666 c -2.025 0 -3.868 -0.883 -5.996 -0.74 c -1.057 0.072 -4.113 0.395 -4.857 0.412 c -0.663 0.019 -0.923 0.133 -1.231 0.12 c -0.143 -0.007 -0.595 -0.05 -0.771 0.05 c -0.147 0.086 -0.09 0.559 0.027 0.683 c 0.285 0.298 1.397 -0.233 1.959 -0.22 c 0.777 0.017 3.843 -0.05 4.917 -0.121 c 2.081 -0.142 3.936 0.821 5.952 0.821 s 3.725 -0.889 5.806 -0.749 c 1.071 0.072 4.281 0.064 5.06 0.049 c 0.563 -0.014 1.764 0.449 2.052 0.22 C 113.043 133.495 112.972 132.969 112.808 132.902 Z" /><path id="SvgjsPath2888" opacity="1" fill="#ff8ebd" stroke="none" stroke-width="none" d="M 99.989 137.439 c -3.37 0 -6.645 -1.154 -9.241 -3.306 c 1.307 -0.072 2.652 -0.277 3.961 -0.219 c 1.613 0.07 3.144 0.705 4.756 0.813 c 1.742 0.116 3.358 -0.488 5.064 -0.695 c 1.422 -0.171 2.931 0.059 4.357 0.111 C 106.335 136.101 103.244 137.439 99.989 137.439 Z M 104.78 131.682 c 1.313 -0.08 2.661 0.088 3.974 0.141 c -1.43 -0.712 -2.953 -1.553 -4.549 -1.807 c -1.374 -0.218 -2.71 0.882 -4.045 1.104 c -1.506 0.25 -2.69 -1.15 -4.16 -1.15 c -1.592 0.07 -3.198 1.099 -4.576 1.805 c 1.282 -0.076 2.6 -0.263 3.884 -0.141 c 1.572 0.147 3.094 0.714 4.682 0.714 C 101.612 132.348 103.161 131.78 104.78 131.682 Z" /><path id="SvgjsPath2889" opacity="1" fill="#ffa8cc" stroke="none" stroke-width="none" d="M 99.941 136.486 c -2.029 0 -4.007 -0.701 -5.707 -2.001 c 0.38 -0.037 0.764 -0.066 1.133 -0.066 c 0.117 0 0.234 0.003 0.351 0.009 c 0.609 0.033 1.209 0.208 1.846 0.394 c 0.618 0.178 1.256 0.363 1.923 0.419 c 0.132 0.012 0.264 0.016 0.395 0.016 c 0.819 0 1.596 -0.204 2.348 -0.399 c 0.477 -0.126 0.928 -0.245 1.392 -0.313 c 0.253 -0.04 0.527 -0.058 0.837 -0.058 c 0.268 0 0.544 0.014 0.818 0.034 C 103.862 135.572 102.03 136.486 99.941 136.486 Z" /></g><g id="svga-group-eyes-left" ><g id="svga-group-eyesback-left"><path id="SvgjsPath4166" opacity="1" fill="url(#SvgjsRadialGradient4167)" d="M 83.271 92.712 c -3.293 -0.892 -4.969 1.202 -9.809 1.324 c -8.057 0.203 -9.938 -0.703 -11.199 -2.996 C 61.74 90.088 61.24 88.849 61 88.083 l -0.1 -4.715 c 1.328 -4.488 19.541 -4.944 25.9 2.027 c 0.287 0.757 0.433 1.463 0.465 2.122 c -0.19 1.09 -0.512 2.136 -0.947 3.124 C 85.611 91.562 84.556 92.262 83.271 92.712 Z" /></g><g id="svga-group-eyesiriswrapper-left" transform="translate(-0.5)"><g id="svga-group-eyesiriscontrol-left" ><g id="svga-group-eyesiris-left" ><path id="SvgjsPath4349" opacity="1" fill="#4e60a3" stroke-width="none" d="M 83.5 87 c 0 4.694 -3.806 8.5 -8.499 8.5 c -4.694 0 -8.501 -3.806 -8.501 -8.5 l 0 0 c 0 -4.694 3.807 -8.5 8.501 -8.5 C 79.694 78.499 83.5 82.305 83.5 87 L 83.5 87 Z" /><path id="SvgjsPath4350" opacity="1" fill="url(#SvgjsRadialGradient4351)" d="M 74.048 78.595 c -0.033 0.004 -0.066 0.008 -0.101 0.012 c 0.041 0.191 0.081 0.384 0.12 0.575 C 74.06 78.987 74.055 78.789 74.048 78.595 Z M 74.066 79.18 c 0.099 2.793 0.262 5.282 0.732 6.183 C 75.047 84.377 74.625 81.92 74.066 79.18 Z M 74.8 85.365 c -0.061 0.236 -0.153 0.397 -0.294 0.452 c -0.142 0.053 -0.319 -0.008 -0.521 -0.146 c 0.058 0.236 0.052 0.422 -0.051 0.537 c -0.102 0.114 -0.285 0.142 -0.527 0.11 c 0.16 0.184 0.242 0.353 0.206 0.5 c -0.039 0.148 -0.189 0.258 -0.415 0.343 c 0.225 0.088 0.376 0.199 0.411 0.347 c 0.036 0.148 -0.046 0.315 -0.205 0.498 c 0.241 -0.029 0.426 0.001 0.525 0.115 c 0.101 0.114 0.106 0.301 0.05 0.537 c 0.199 -0.137 0.376 -0.197 0.518 -0.142 c 0.143 0.053 0.234 0.216 0.291 0.454 c 0.114 -0.215 0.243 -0.353 0.396 -0.368 c 0.148 -0.02 0.307 0.084 0.466 0.267 c 0.002 -0.244 0.053 -0.423 0.181 -0.51 c 0.124 -0.086 0.311 -0.069 0.537 0.018 c -0.11 -0.216 -0.148 -0.398 -0.078 -0.534 c 0.071 -0.135 0.245 -0.207 0.487 -0.235 c -0.199 -0.14 -0.321 -0.283 -0.318 -0.436 c -0.001 -0.153 0.119 -0.296 0.321 -0.434 c -0.241 -0.03 -0.412 -0.103 -0.484 -0.237 c -0.07 -0.135 -0.031 -0.319 0.081 -0.535 c -0.229 0.085 -0.413 0.102 -0.538 0.016 c -0.126 -0.086 -0.177 -0.267 -0.178 -0.51 c -0.158 0.182 -0.316 0.282 -0.468 0.262 C 75.041 85.714 74.911 85.58 74.8 85.365 Z M 75.66 85.471 c 0.679 -0.758 1.446 -3.13 2.224 -5.813 C 76.674 82.174 75.662 84.453 75.66 85.471 Z M 77.883 79.657 c 0.085 -0.172 0.172 -0.348 0.253 -0.524 c -0.03 -0.011 -0.06 -0.024 -0.09 -0.037 C 77.992 79.284 77.938 79.472 77.883 79.657 Z M 76.377 85.965 c 0.953 -0.357 2.736 -2.101 4.671 -4.115 C 78.808 83.517 76.851 85.065 76.377 85.965 Z M 81.048 81.851 c 0.142 -0.106 0.287 -0.213 0.433 -0.318 c -0.021 -0.025 -0.043 -0.047 -0.06 -0.07 C 81.297 81.59 81.174 81.722 81.048 81.851 Z M 76.777 86.738 c 1.01 0.125 3.399 -0.591 6.052 -1.475 C 80.068 85.698 77.617 86.159 76.777 86.738 Z M 82.829 85.263 c 0.156 -0.022 0.318 -0.048 0.478 -0.073 c -0.007 -0.026 -0.013 -0.054 -0.02 -0.081 C 83.135 85.16 82.979 85.212 82.829 85.263 Z M 76.775 87.606 c 0.836 0.583 3.284 1.057 6.038 1.505 C 80.171 88.214 77.786 87.484 76.775 87.606 Z M 82.813 89.111 c 0.135 0.047 0.271 0.095 0.404 0.138 c 0.007 -0.024 0.013 -0.047 0.018 -0.071 C 83.098 89.158 82.954 89.135 82.813 89.111 Z M 76.367 88.375 c 0.471 0.902 2.42 2.462 4.649 4.142 C 79.092 90.492 77.32 88.737 76.367 88.375 Z M 81.018 92.514 c 0.083 0.087 0.17 0.179 0.253 0.268 c 0.014 -0.017 0.027 -0.031 0.043 -0.046 C 81.215 92.662 81.113 92.587 81.018 92.514 Z M 75.652 88.867 c -0.004 1.019 0.995 3.302 2.191 5.827 C 77.079 92.006 76.327 89.628 75.652 88.867 Z M 77.844 94.694 c 0.03 0.106 0.062 0.215 0.09 0.324 c 0.021 -0.008 0.036 -0.015 0.055 -0.02 C 77.941 94.896 77.892 94.793 77.844 94.694 Z M 74.788 88.968 c -0.476 0.902 -0.653 3.386 -0.768 6.178 C 74.594 92.413 75.031 89.958 74.788 88.968 Z M 74.021 95.146 c -0.023 0.106 -0.044 0.214 -0.066 0.323 c 0.02 0.004 0.035 0.005 0.055 0.007 C 74.013 95.368 74.018 95.254 74.021 95.146 Z M 73.979 88.657 c -0.844 0.576 -2.154 2.697 -3.553 5.114 C 72.204 91.617 73.733 89.645 73.979 88.657 Z M 70.427 93.771 c -0.074 0.09 -0.152 0.185 -0.229 0.274 c 0.018 0.012 0.034 0.02 0.053 0.034 C 70.309 93.976 70.369 93.873 70.427 93.771 Z M 73.405 88.006 c -1.015 0.119 -3.16 1.385 -5.522 2.875 C 70.46 89.801 72.726 88.768 73.405 88.006 Z M 67.883 90.884 c -0.122 0.051 -0.247 0.102 -0.372 0.156 c 0.009 0.019 0.021 0.038 0.033 0.057 C 67.658 91.027 67.771 90.954 67.883 90.884 Z M 73.198 87.161 c -0.951 -0.365 -3.441 -0.238 -6.227 -0.016 C 69.755 87.383 72.244 87.521 73.198 87.161 Z M 66.972 87.145 c -0.151 -0.014 -0.308 -0.028 -0.457 -0.041 c -0.001 0.027 -0.003 0.053 -0.001 0.08 C 66.669 87.169 66.822 87.156 66.972 87.145 Z M 73.407 86.318 c -0.67 -0.763 -2.932 -1.809 -5.499 -2.905 C 70.259 84.915 72.397 86.196 73.407 86.318 Z M 67.908 83.413 c -0.147 -0.095 -0.297 -0.189 -0.446 -0.285 c -0.013 0.026 -0.026 0.053 -0.041 0.078 C 67.585 83.276 67.75 83.344 67.908 83.413 Z M 73.985 85.67 c -0.239 -0.989 -1.758 -2.967 -3.521 -5.132 C 71.849 82.963 73.147 85.09 73.985 85.67 Z M 70.465 80.538 c -0.095 -0.163 -0.188 -0.329 -0.281 -0.494 c -0.026 0.018 -0.055 0.037 -0.079 0.054 C 70.224 80.245 70.348 80.393 70.465 80.538 Z" /><path id="SvgjsPath4354" opacity="1" fill="url(#SvgjsRadialGradient4355)" d="M 76.255 78.622 c -0.034 -0.004 -0.066 -0.01 -0.1 -0.014 c -0.011 0.196 -0.022 0.393 -0.034 0.586 C 76.164 79.004 76.211 78.812 76.255 78.622 Z M 76.12 79.193 c -0.627 2.724 -1.114 5.17 -0.892 6.162 C 75.724 84.467 75.95 81.984 76.12 79.193 Z M 75.229 85.356 c -0.119 0.212 -0.25 0.344 -0.401 0.36 c -0.15 0.014 -0.306 -0.091 -0.464 -0.276 c -0.006 0.243 -0.06 0.421 -0.188 0.505 c -0.128 0.083 -0.313 0.063 -0.539 -0.03 c 0.107 0.219 0.143 0.403 0.069 0.536 c -0.075 0.133 -0.249 0.201 -0.489 0.224 c 0.194 0.144 0.312 0.289 0.308 0.441 c -0.003 0.152 -0.126 0.292 -0.327 0.428 c 0.24 0.034 0.41 0.111 0.478 0.247 c 0.067 0.136 0.025 0.318 -0.091 0.532 c 0.229 -0.081 0.414 -0.093 0.537 -0.003 c 0.123 0.088 0.17 0.27 0.164 0.514 c 0.166 -0.177 0.325 -0.278 0.478 -0.253 c 0.148 0.02 0.274 0.16 0.382 0.379 c 0.064 -0.236 0.16 -0.396 0.306 -0.447 c 0.143 -0.051 0.318 0.014 0.515 0.157 c -0.051 -0.237 -0.041 -0.423 0.063 -0.536 s 0.29 -0.136 0.532 -0.102 c -0.157 -0.187 -0.238 -0.356 -0.195 -0.504 c 0.039 -0.148 0.192 -0.255 0.423 -0.336 c -0.226 -0.091 -0.372 -0.206 -0.407 -0.354 c -0.032 -0.149 0.053 -0.316 0.218 -0.495 c -0.243 0.023 -0.427 -0.009 -0.524 -0.125 c -0.099 -0.115 -0.102 -0.303 -0.039 -0.538 c -0.201 0.134 -0.38 0.19 -0.521 0.132 C 75.37 85.756 75.281 85.593 75.229 85.356 Z M 76.033 85.683 c 0.852 -0.558 2.206 -2.65 3.652 -5.04 C 77.865 82.76 76.298 84.699 76.033 85.683 Z M 79.685 80.641 c 0.126 -0.145 0.255 -0.292 0.38 -0.44 c -0.027 -0.019 -0.052 -0.04 -0.078 -0.06 C 79.886 80.31 79.785 80.477 79.685 80.641 Z M 76.597 86.345 c 1.013 -0.099 3.187 -1.322 5.577 -2.767 C 79.578 84.609 77.287 85.598 76.597 86.345 Z M 82.173 83.579 c 0.165 -0.065 0.333 -0.131 0.501 -0.195 c -0.014 -0.029 -0.029 -0.056 -0.04 -0.083 C 82.481 83.392 82.328 83.487 82.173 83.579 Z M 76.783 87.194 c 0.943 0.382 3.437 0.309 6.227 0.142 C 80.231 87.042 77.745 86.853 76.783 87.194 Z M 83.01 87.336 c 0.158 0.019 0.32 0.036 0.48 0.053 c 0.001 -0.027 0.002 -0.055 0.003 -0.083 C 83.332 87.316 83.168 87.326 83.01 87.336 Z M 76.558 88.033 c 0.655 0.78 2.898 1.871 5.442 3.017 C 79.679 89.499 77.565 88.177 76.558 88.033 Z M 82 91.049 c 0.117 0.08 0.236 0.161 0.354 0.238 c 0.013 -0.021 0.024 -0.042 0.035 -0.063 C 82.262 91.168 82.129 91.109 82 91.049 Z M 75.964 88.67 c 0.221 0.993 1.699 3.004 3.419 5.205 C 78.048 91.419 76.791 89.266 75.964 88.67 Z M 79.384 93.872 c 0.059 0.106 0.117 0.217 0.176 0.325 c 0.018 -0.013 0.034 -0.023 0.053 -0.034 C 79.536 94.065 79.458 93.967 79.384 93.872 Z M 75.146 88.96 c -0.267 0.982 0.107 3.447 0.608 6.195 C 75.711 92.361 75.601 89.87 75.146 88.96 Z M 75.754 95.155 c 0.002 0.11 0.004 0.224 0.004 0.337 c 0.021 -0.003 0.038 -0.005 0.058 -0.005 C 75.796 95.376 75.775 95.264 75.754 95.155 Z M 74.285 88.834 c -0.693 0.748 -1.508 3.102 -2.341 5.769 C 73.205 92.11 74.265 89.853 74.285 88.834 Z M 71.944 94.603 c -0.05 0.096 -0.099 0.195 -0.147 0.295 c 0.017 0.008 0.032 0.013 0.051 0.021 C 71.879 94.815 71.913 94.707 71.944 94.603 Z M 73.584 88.324 c -0.964 0.338 -2.779 2.048 -4.756 4.021 C 71.104 90.724 73.091 89.215 73.584 88.324 Z M 68.828 92.345 c -0.095 0.067 -0.194 0.138 -0.29 0.206 c 0.014 0.016 0.027 0.028 0.041 0.045 C 68.661 92.511 68.746 92.428 68.828 92.345 Z M 73.197 87.546 c -1.01 -0.148 -3.409 0.521 -6.078 1.349 C 69.889 88.518 72.345 88.106 73.197 87.546 Z M 67.119 88.897 c -0.131 0.018 -0.265 0.034 -0.4 0.054 c 0.005 0.021 0.011 0.042 0.018 0.063 C 66.865 88.977 66.993 88.936 67.119 88.897 Z M 73.217 86.677 c -0.824 -0.599 -3.263 -1.121 -6.01 -1.627 C 69.833 86 72.202 86.777 73.217 86.677 Z M 67.207 85.05 c -0.143 -0.052 -0.29 -0.106 -0.432 -0.158 c -0.008 0.026 -0.016 0.051 -0.021 0.077 C 66.907 84.995 67.06 85.022 67.207 85.05 Z M 73.637 85.917 c -0.45 -0.911 -2.363 -2.506 -4.561 -4.23 C 70.959 83.747 72.693 85.538 73.637 85.917 Z M 69.076 81.688 c -0.118 -0.13 -0.236 -0.26 -0.355 -0.391 c -0.021 0.022 -0.041 0.044 -0.061 0.065 C 68.8 81.471 68.941 81.58 69.076 81.688 Z M 74.363 85.44 c 0.024 -1.017 -0.93 -3.321 -2.073 -5.868 C 72.999 82.273 73.704 84.663 74.363 85.44 Z M 72.29 79.572 c -0.049 -0.182 -0.096 -0.366 -0.144 -0.55 c -0.029 0.01 -0.062 0.021 -0.09 0.032 C 72.134 79.227 72.214 79.401 72.29 79.572 Z" /><path id="SvgjsPath4358" opacity="1" fill="#4e60a3" stroke-width="none" d="M 78.334 87 c 0 1.842 -1.492 3.333 -3.333 3.333 S 71.666 88.841 71.666 87 c 0 -1.841 1.494 -3.334 3.335 -3.334 C 76.844 83.666 78.334 85.159 78.334 87 Z" /><path id="SvgjsPath4359" opacity="0.9" fill="#000000" stroke-width="none" d="M 78.334 87 c 0 1.842 -1.492 3.333 -3.333 3.333 S 71.666 88.841 71.666 87 c 0 -1.841 1.494 -3.334 3.335 -3.334 C 76.844 83.666 78.334 85.159 78.334 87 Z" /><path id="SvgjsPath4360" opacity="0.5" fill="url(#SvgjsLinearGradient4361)" d="M 70.35 90.893 c 0.636 -0.427 1.5 -0.255 1.927 0.38 c 0.427 0.637 0.258 1.5 -0.379 1.927 c -0.638 0.429 -1.5 0.258 -1.927 -0.378 C 69.544 92.185 69.713 91.32 70.35 90.893 L 70.35 90.893 Z" /><path id="SvgjsPath4364" opacity="0.5" fill="url(#SvgjsLinearGradient4365)" d="M 77.635 86.536 c -0.356 0.53 -1.373 0.468 -2.275 -0.136 c -0.903 -0.605 -1.346 -1.526 -0.991 -2.055 l 0.001 -0.001 c 0.354 -0.53 1.372 -0.469 2.274 0.137 c 0.903 0.604 1.346 1.524 0.992 2.054 C 77.635 86.536 77.635 86.536 77.635 86.536 Z" /><path id="SvgjsPath4368" opacity="0.75" fill="url(#SvgjsLinearGradient4369)" d="M 81.682 85.121 c -0.806 1.237 -2.884 1.31 -4.641 0.166 c -1.756 -1.145 -2.527 -3.075 -1.722 -4.311 c 0.806 -1.235 2.884 -1.31 4.641 -0.166 C 81.715 81.956 82.485 83.887 81.682 85.121 L 81.682 85.121 Z" /></g></g></g><g id="svga-group-eyesfront-left"><path id="SvgjsPath4191" opacity="1" fill="#f3d4cf" stroke-width="none" d="M 55.5 87 c 0 13.808 8.283 24.999 18.5 24.999 S 92.5 100.808 92.5 87 c 0 -13.809 -8.283 -25.001 -18.5 -25.001 S 55.5 73.191 55.5 87 Z M 61 88.083 l -0.1 -4.715 c 1.328 -4.488 19.541 -4.944 25.9 2.027 c 1.396 3.674 -0.409 6.224 -3.529 7.317 c -3.293 -0.892 -4.969 1.202 -9.809 1.324 c -8.057 0.203 -9.938 -0.703 -11.199 -2.996 C 61.74 90.088 61.24 88.849 61 88.083 Z" /><path id="SvgjsPath4192" opacity="1" fill="url(#SvgjsRadialGradient4193)" d="M 59.898 85.083 c 0.023 8.56 7.646 15.459 17.038 15.416 c 9.389 -0.049 16.985 -7.022 16.961 -15.583 c -0.023 -8.562 -7.647 -15.463 -17.04 -15.417 C 67.465 69.549 59.874 76.522 59.898 85.083 Z M 61 88.083 l -0.1 -4.715 c 1.328 -4.488 19.541 -4.944 25.9 2.027 c 1.396 3.674 -0.409 6.224 -3.529 7.317 c -3.293 -0.892 -4.969 1.202 -9.809 1.324 c -8.057 0.203 -9.938 -0.703 -11.199 -2.996 C 61.74 90.088 61.24 88.849 61 88.083 Z" /><path id="SvgjsPath4197" opacity="1" fill="url(#SvgjsRadialGradient4198)" d="M 62.264 91.041 C 61.74 90.088 61.24 88.849 61 88.083 l -0.1 -4.715 c 1.328 -4.488 19.541 -4.944 25.9 2.027 c 1.396 3.674 -0.409 6.224 -3.529 7.317 c -3.293 -0.892 -4.969 1.202 -9.809 1.324 C 65.406 94.239 63.524 93.333 62.264 91.041 Z" /><path id="SvgjsPath4201" opacity="1" fill="#c5796d" stroke-width="none" d="M 89.665 83.698 c -9.617 -6.546 -16.701 -6.963 -28.117 -6.129 C 71.077 75.863 82.052 77.099 89.665 83.698 Z" /><path id="SvgjsPath4202" opacity="1" fill="#000000" stroke-width="none" d="M 87.697 85.861 c 0.371 0.625 0.543 0.968 0.733 2.484 C 85.19 78.896 62.487 78.841 61 83.593 v 4.427 c -1.021 -1.75 -1.494 -3.878 -1.931 -5.889 c -0.093 -0.428 -2.348 -2.602 -2.348 -2.602 s 2.435 1.326 2.798 1.349 c -0.182 -0.216 -1.127 -1.248 -1.127 -1.248 s 2.251 0.931 2.576 0.843 c -0.436 -0.186 -1.071 -0.823 -1.071 -0.823 c 0.483 0.141 1.646 0.604 2.723 0.369 c 10.863 -2.365 22.558 0.247 26.703 8 C 88.648 87.037 88.225 86.47 87.697 85.861 Z M 84.943 93.048 c -4.625 -2.25 -5.94 0.428 -11.563 0.563 c -8.004 0.191 -9.567 -0.871 -11.125 -2.813 c 0.813 2.375 1.375 3.504 10.875 3.438 C 78.506 94.198 81.443 91.673 84.943 93.048 Z" /></g></g><g id="svga-group-eyes-right" ><g id="svga-group-eyesback-right"><path id="SvgjsPath4174" opacity="1" fill="url(#SvgjsRadialGradient4175)" d="M 116.729 92.712 c 3.293 -0.892 4.969 1.202 9.809 1.324 c 8.057 0.203 9.938 -0.703 11.199 -2.996 c 0.523 -0.952 1.023 -2.191 1.264 -2.958 l 0.1 -4.715 c -1.328 -4.488 -19.541 -4.944 -25.9 2.027 c -0.287 0.757 -0.433 1.463 -0.465 2.122 c 0.19 1.09 0.512 2.136 0.947 3.124 C 114.389 91.562 115.444 92.262 116.729 92.712 Z" /></g><g id="svga-group-eyesiriswrapper-right" transform="translate(0.5)"><g id="svga-group-eyesiriscontrol-right" ><g id="svga-group-eyesiris-right" ><path id="SvgjsPath4372" opacity="1" fill="#4e60a3" stroke-width="none" d="M 133.5 87 c 0 4.694 -3.806 8.5 -8.499 8.5 c -4.694 0 -8.501 -3.806 -8.501 -8.5 l 0 0 c 0 -4.694 3.807 -8.5 8.501 -8.5 C 129.694 78.499 133.5 82.305 133.5 87 L 133.5 87 Z" /><path id="SvgjsPath4373" opacity="1" fill="url(#SvgjsRadialGradient4374)" d="M 124.048 78.595 c -0.033 0.004 -0.066 0.008 -0.101 0.012 c 0.041 0.191 0.081 0.384 0.12 0.575 C 124.06 78.987 124.055 78.789 124.048 78.595 Z M 124.066 79.18 c 0.099 2.793 0.262 5.282 0.732 6.183 C 125.047 84.377 124.625 81.92 124.066 79.18 Z M 124.8 85.365 c -0.061 0.236 -0.153 0.397 -0.294 0.452 c -0.142 0.053 -0.319 -0.008 -0.521 -0.146 c 0.058 0.236 0.052 0.422 -0.051 0.537 c -0.102 0.114 -0.285 0.142 -0.527 0.11 c 0.16 0.184 0.242 0.353 0.206 0.5 c -0.039 0.148 -0.189 0.258 -0.415 0.343 c 0.225 0.088 0.376 0.199 0.411 0.347 c 0.036 0.148 -0.046 0.315 -0.205 0.498 c 0.241 -0.029 0.426 0.001 0.525 0.115 c 0.101 0.114 0.106 0.301 0.05 0.537 c 0.199 -0.137 0.376 -0.197 0.518 -0.142 c 0.143 0.053 0.234 0.216 0.291 0.454 c 0.114 -0.215 0.243 -0.353 0.396 -0.368 c 0.148 -0.02 0.307 0.084 0.466 0.267 c 0.002 -0.244 0.053 -0.423 0.181 -0.51 c 0.124 -0.086 0.311 -0.069 0.537 0.018 c -0.11 -0.216 -0.148 -0.398 -0.078 -0.534 c 0.071 -0.135 0.245 -0.207 0.487 -0.235 c -0.199 -0.14 -0.321 -0.283 -0.318 -0.436 c -0.001 -0.153 0.119 -0.296 0.321 -0.434 c -0.241 -0.03 -0.412 -0.103 -0.484 -0.237 c -0.07 -0.135 -0.031 -0.319 0.081 -0.535 c -0.229 0.085 -0.413 0.102 -0.538 0.016 c -0.126 -0.086 -0.177 -0.267 -0.178 -0.51 c -0.158 0.182 -0.316 0.282 -0.468 0.262 C 125.041 85.714 124.911 85.58 124.8 85.365 Z M 125.66 85.471 c 0.679 -0.758 1.446 -3.13 2.224 -5.813 C 126.674 82.174 125.662 84.453 125.66 85.471 Z M 127.883 79.657 c 0.085 -0.172 0.172 -0.348 0.253 -0.524 c -0.03 -0.011 -0.06 -0.024 -0.09 -0.037 C 127.992 79.284 127.938 79.472 127.883 79.657 Z M 126.377 85.965 c 0.953 -0.357 2.736 -2.101 4.671 -4.115 C 128.808 83.517 126.851 85.065 126.377 85.965 Z M 131.048 81.851 c 0.142 -0.106 0.287 -0.213 0.433 -0.318 c -0.021 -0.025 -0.043 -0.047 -0.06 -0.07 C 131.297 81.59 131.174 81.722 131.048 81.851 Z M 126.777 86.738 c 1.01 0.125 3.399 -0.591 6.052 -1.475 C 130.068 85.698 127.617 86.159 126.777 86.738 Z M 132.829 85.263 c 0.156 -0.022 0.318 -0.048 0.478 -0.073 c -0.007 -0.026 -0.013 -0.054 -0.02 -0.081 C 133.135 85.16 132.979 85.212 132.829 85.263 Z M 126.775 87.606 c 0.836 0.583 3.284 1.057 6.038 1.505 C 130.171 88.214 127.786 87.484 126.775 87.606 Z M 132.813 89.111 c 0.135 0.047 0.271 0.095 0.404 0.138 c 0.007 -0.024 0.013 -0.047 0.018 -0.071 C 133.098 89.158 132.954 89.135 132.813 89.111 Z M 126.367 88.375 c 0.471 0.902 2.42 2.462 4.649 4.142 C 129.092 90.492 127.32 88.737 126.367 88.375 Z M 131.018 92.514 c 0.083 0.087 0.17 0.179 0.253 0.268 c 0.014 -0.017 0.027 -0.031 0.043 -0.046 C 131.215 92.662 131.113 92.587 131.018 92.514 Z M 125.652 88.867 c -0.004 1.019 0.995 3.302 2.191 5.827 C 127.079 92.006 126.327 89.628 125.652 88.867 Z M 127.844 94.694 c 0.03 0.106 0.062 0.215 0.09 0.324 c 0.021 -0.008 0.036 -0.015 0.055 -0.02 C 127.941 94.896 127.892 94.793 127.844 94.694 Z M 124.788 88.968 c -0.476 0.902 -0.653 3.386 -0.768 6.178 C 124.594 92.413 125.031 89.958 124.788 88.968 Z M 124.021 95.146 c -0.023 0.106 -0.044 0.214 -0.066 0.323 c 0.02 0.004 0.035 0.005 0.055 0.007 C 124.013 95.368 124.018 95.254 124.021 95.146 Z M 123.979 88.657 c -0.844 0.576 -2.154 2.697 -3.553 5.114 C 122.204 91.617 123.733 89.645 123.979 88.657 Z M 120.427 93.771 c -0.074 0.09 -0.152 0.185 -0.229 0.274 c 0.018 0.012 0.034 0.02 0.053 0.034 C 120.309 93.976 120.369 93.873 120.427 93.771 Z M 123.405 88.006 c -1.015 0.119 -3.16 1.385 -5.522 2.875 C 120.46 89.801 122.726 88.768 123.405 88.006 Z M 117.883 90.884 c -0.122 0.051 -0.247 0.102 -0.372 0.156 c 0.009 0.019 0.021 0.038 0.033 0.057 C 117.658 91.027 117.771 90.954 117.883 90.884 Z M 123.198 87.161 c -0.951 -0.365 -3.441 -0.238 -6.227 -0.016 C 119.755 87.383 122.244 87.521 123.198 87.161 Z M 116.972 87.145 c -0.151 -0.014 -0.308 -0.028 -0.457 -0.041 c -0.001 0.027 -0.003 0.053 -0.001 0.08 C 116.669 87.169 116.822 87.156 116.972 87.145 Z M 123.407 86.318 c -0.67 -0.763 -2.932 -1.809 -5.499 -2.905 C 120.259 84.915 122.397 86.196 123.407 86.318 Z M 117.908 83.413 c -0.147 -0.095 -0.297 -0.189 -0.446 -0.285 c -0.013 0.026 -0.026 0.053 -0.041 0.078 C 117.585 83.276 117.75 83.344 117.908 83.413 Z M 123.985 85.67 c -0.239 -0.989 -1.758 -2.967 -3.521 -5.132 C 121.849 82.963 123.147 85.09 123.985 85.67 Z M 120.465 80.538 c -0.095 -0.163 -0.188 -0.329 -0.281 -0.494 c -0.026 0.018 -0.055 0.037 -0.079 0.054 C 120.224 80.245 120.348 80.393 120.465 80.538 Z" /><path id="SvgjsPath4377" opacity="1" fill="url(#SvgjsRadialGradient4378)" d="M 126.255 78.622 c -0.034 -0.004 -0.066 -0.01 -0.1 -0.014 c -0.011 0.196 -0.022 0.393 -0.034 0.586 C 126.164 79.004 126.211 78.812 126.255 78.622 Z M 126.12 79.193 c -0.627 2.724 -1.114 5.17 -0.892 6.162 C 125.724 84.467 125.95 81.984 126.12 79.193 Z M 125.229 85.356 c -0.119 0.212 -0.25 0.344 -0.401 0.36 c -0.15 0.014 -0.306 -0.091 -0.464 -0.276 c -0.006 0.243 -0.06 0.421 -0.188 0.505 c -0.128 0.083 -0.313 0.063 -0.539 -0.03 c 0.107 0.219 0.143 0.403 0.069 0.536 c -0.075 0.133 -0.249 0.201 -0.489 0.224 c 0.194 0.144 0.312 0.289 0.308 0.441 c -0.003 0.152 -0.126 0.292 -0.327 0.428 c 0.24 0.034 0.41 0.111 0.478 0.247 c 0.067 0.136 0.025 0.318 -0.091 0.532 c 0.229 -0.081 0.414 -0.093 0.537 -0.003 c 0.123 0.088 0.17 0.27 0.164 0.514 c 0.166 -0.177 0.325 -0.278 0.478 -0.253 c 0.148 0.02 0.274 0.16 0.382 0.379 c 0.064 -0.236 0.16 -0.396 0.306 -0.447 c 0.143 -0.051 0.318 0.014 0.515 0.157 c -0.051 -0.237 -0.041 -0.423 0.063 -0.536 s 0.29 -0.136 0.532 -0.102 c -0.157 -0.187 -0.238 -0.356 -0.195 -0.504 c 0.039 -0.148 0.192 -0.255 0.423 -0.336 c -0.226 -0.091 -0.372 -0.206 -0.407 -0.354 c -0.032 -0.149 0.053 -0.316 0.218 -0.495 c -0.243 0.023 -0.427 -0.009 -0.524 -0.125 c -0.099 -0.115 -0.102 -0.303 -0.039 -0.538 c -0.201 0.134 -0.38 0.19 -0.521 0.132 C 125.37 85.756 125.281 85.593 125.229 85.356 Z M 126.033 85.683 c 0.852 -0.558 2.206 -2.65 3.652 -5.04 C 127.865 82.76 126.298 84.699 126.033 85.683 Z M 129.685 80.641 c 0.126 -0.145 0.255 -0.292 0.38 -0.44 c -0.027 -0.019 -0.052 -0.04 -0.078 -0.06 C 129.886 80.31 129.785 80.477 129.685 80.641 Z M 126.597 86.345 c 1.013 -0.099 3.187 -1.322 5.577 -2.767 C 129.578 84.609 127.287 85.598 126.597 86.345 Z M 132.173 83.579 c 0.165 -0.065 0.333 -0.131 0.501 -0.195 c -0.014 -0.029 -0.029 -0.056 -0.04 -0.083 C 132.481 83.392 132.328 83.487 132.173 83.579 Z M 126.783 87.194 c 0.943 0.382 3.437 0.309 6.227 0.142 C 130.231 87.042 127.745 86.853 126.783 87.194 Z M 133.01 87.336 c 0.158 0.019 0.32 0.036 0.48 0.053 c 0.001 -0.027 0.002 -0.055 0.003 -0.083 C 133.332 87.316 133.168 87.326 133.01 87.336 Z M 126.558 88.033 c 0.655 0.78 2.898 1.871 5.442 3.017 C 129.679 89.499 127.565 88.177 126.558 88.033 Z M 132 91.049 c 0.117 0.08 0.236 0.161 0.354 0.238 c 0.013 -0.021 0.024 -0.042 0.035 -0.063 C 132.262 91.168 132.129 91.109 132 91.049 Z M 125.964 88.67 c 0.221 0.993 1.699 3.004 3.419 5.205 C 128.048 91.419 126.791 89.266 125.964 88.67 Z M 129.384 93.872 c 0.059 0.106 0.117 0.217 0.176 0.325 c 0.018 -0.013 0.034 -0.023 0.053 -0.034 C 129.536 94.065 129.458 93.967 129.384 93.872 Z M 125.146 88.96 c -0.267 0.982 0.107 3.447 0.608 6.195 C 125.711 92.361 125.601 89.87 125.146 88.96 Z M 125.754 95.155 c 0.002 0.11 0.004 0.224 0.004 0.337 c 0.021 -0.003 0.038 -0.005 0.058 -0.005 C 125.796 95.376 125.775 95.264 125.754 95.155 Z M 124.285 88.834 c -0.693 0.748 -1.508 3.102 -2.341 5.769 C 123.205 92.11 124.265 89.853 124.285 88.834 Z M 121.944 94.603 c -0.05 0.096 -0.099 0.195 -0.147 0.295 c 0.017 0.008 0.032 0.013 0.051 0.021 C 121.879 94.815 121.913 94.707 121.944 94.603 Z M 123.584 88.324 c -0.964 0.338 -2.779 2.048 -4.756 4.021 C 121.104 90.724 123.091 89.215 123.584 88.324 Z M 118.828 92.345 c -0.095 0.067 -0.194 0.138 -0.29 0.206 c 0.014 0.016 0.027 0.028 0.041 0.045 C 118.661 92.511 118.746 92.428 118.828 92.345 Z M 123.197 87.546 c -1.01 -0.148 -3.409 0.521 -6.078 1.349 C 119.889 88.518 122.345 88.106 123.197 87.546 Z M 117.119 88.897 c -0.131 0.018 -0.265 0.034 -0.4 0.054 c 0.005 0.021 0.011 0.042 0.018 0.063 C 116.865 88.977 116.993 88.936 117.119 88.897 Z M 123.217 86.677 c -0.824 -0.599 -3.263 -1.121 -6.01 -1.627 C 119.833 86 122.202 86.777 123.217 86.677 Z M 117.207 85.05 c -0.143 -0.052 -0.29 -0.106 -0.432 -0.158 c -0.008 0.026 -0.016 0.051 -0.021 0.077 C 116.907 84.995 117.06 85.022 117.207 85.05 Z M 123.637 85.917 c -0.45 -0.911 -2.363 -2.506 -4.561 -4.23 C 120.959 83.747 122.693 85.538 123.637 85.917 Z M 119.076 81.688 c -0.118 -0.13 -0.236 -0.26 -0.355 -0.391 c -0.021 0.022 -0.041 0.044 -0.061 0.065 C 118.8 81.471 118.941 81.58 119.076 81.688 Z M 124.363 85.44 c 0.024 -1.017 -0.93 -3.321 -2.073 -5.868 C 122.999 82.273 123.704 84.663 124.363 85.44 Z M 122.29 79.572 c -0.049 -0.182 -0.096 -0.366 -0.144 -0.55 c -0.029 0.01 -0.062 0.021 -0.09 0.032 C 122.134 79.227 122.214 79.401 122.29 79.572 Z" /><path id="SvgjsPath4381" opacity="1" fill="#4e60a3" stroke-width="none" d="M 128.334 87 c 0 1.842 -1.492 3.333 -3.333 3.333 s -3.335 -1.492 -3.335 -3.333 c 0 -1.841 1.494 -3.334 3.335 -3.334 C 126.844 83.666 128.334 85.159 128.334 87 Z" /><path id="SvgjsPath4382" opacity="0.9" fill="#000000" stroke-width="none" d="M 128.334 87 c 0 1.842 -1.492 3.333 -3.333 3.333 s -3.335 -1.492 -3.335 -3.333 c 0 -1.841 1.494 -3.334 3.335 -3.334 C 126.844 83.666 128.334 85.159 128.334 87 Z" /><path id="SvgjsPath4383" opacity="0.5" fill="url(#SvgjsLinearGradient4384)" d="M 120.35 90.893 c 0.636 -0.427 1.5 -0.255 1.927 0.38 c 0.427 0.637 0.258 1.5 -0.379 1.927 c -0.638 0.429 -1.5 0.258 -1.927 -0.378 C 119.544 92.185 119.713 91.32 120.35 90.893 L 120.35 90.893 Z" /><path id="SvgjsPath4387" opacity="0.5" fill="url(#SvgjsLinearGradient4388)" d="M 127.635 86.536 c -0.356 0.53 -1.373 0.468 -2.275 -0.136 c -0.903 -0.605 -1.346 -1.526 -0.991 -2.055 l 0.001 -0.001 c 0.354 -0.53 1.372 -0.469 2.274 0.137 c 0.903 0.604 1.346 1.524 0.992 2.054 C 127.635 86.536 127.635 86.536 127.635 86.536 Z" /><path id="SvgjsPath4391" opacity="0.75" fill="url(#SvgjsLinearGradient4392)" d="M 131.682 85.121 c -0.806 1.237 -2.884 1.31 -4.641 0.166 c -1.756 -1.145 -2.527 -3.075 -1.722 -4.311 c 0.806 -1.235 2.884 -1.31 4.641 -0.166 C 131.715 81.956 132.485 83.887 131.682 85.121 L 131.682 85.121 Z" /></g></g></g><g id="svga-group-eyesfront-right"><path id="SvgjsPath4212" opacity="1" fill="#f3d4cf" stroke-width="none" d="M 126 61.999 c -10.217 0 -18.5 11.192 -18.5 25.001 c 0 13.808 8.283 24.999 18.5 24.999 S 144.5 100.808 144.5 87 C 144.5 73.191 136.217 61.999 126 61.999 Z M 137.736 91.041 c -1.261 2.293 -3.143 3.199 -11.199 2.996 c -4.84 -0.122 -6.516 -2.216 -9.809 -1.324 c -3.12 -1.093 -4.925 -3.643 -3.529 -7.317 c 6.359 -6.971 24.572 -6.516 25.9 -2.027 l -0.1 4.715 C 138.76 88.849 138.26 90.088 137.736 91.041 Z" /><path id="SvgjsPath4213" opacity="1" fill="url(#SvgjsRadialGradient4214)" d="M 123.146 69.499 c -9.393 -0.045 -17.017 6.856 -17.04 15.417 c -0.024 8.56 7.572 15.533 16.961 15.583 c 9.392 0.043 17.015 -6.856 17.038 -15.416 C 140.129 76.522 132.537 69.549 123.146 69.499 Z M 137.736 91.041 c -1.261 2.293 -3.143 3.199 -11.199 2.996 c -4.84 -0.122 -6.516 -2.216 -9.809 -1.324 c -3.12 -1.093 -4.925 -3.643 -3.529 -7.317 c 6.359 -6.971 24.572 -6.516 25.9 -2.027 l -0.1 4.715 C 138.76 88.849 138.26 90.088 137.736 91.041 Z" /><path id="SvgjsPath4218" opacity="1" fill="url(#SvgjsRadialGradient4219)" d="M 137.736 91.041 c 0.523 -0.952 1.023 -2.191 1.264 -2.958 l 0.1 -4.715 c -1.328 -4.488 -19.541 -4.944 -25.9 2.027 c -1.396 3.674 0.409 6.224 3.529 7.317 c 3.293 -0.892 4.969 1.202 9.809 1.324 C 134.594 94.239 136.476 93.333 137.736 91.041 Z" /><path id="SvgjsPath4222" opacity="1" fill="#c5796d" stroke-width="none" d="M 110.335 83.698 c 9.617 -6.546 16.701 -6.963 28.117 -6.129 C 128.923 75.863 117.948 77.099 110.335 83.698 Z" /><path id="SvgjsPath4223" opacity="1" fill="#000000" stroke-width="none" d="M 110.677 88.021 c 4.146 -7.754 15.84 -10.365 26.703 -8 c 1.077 0.234 2.239 -0.229 2.723 -0.369 c 0 0 -0.636 0.637 -1.071 0.823 c 0.325 0.088 2.576 -0.843 2.576 -0.843 s -0.945 1.032 -1.127 1.248 c 0.363 -0.022 2.798 -1.349 2.798 -1.349 s -2.255 2.174 -2.348 2.602 c -0.437 2.011 -0.91 4.139 -1.931 5.889 v -4.427 c -1.487 -4.752 -24.19 -4.698 -27.431 4.751 c 0.19 -1.516 0.362 -1.859 0.733 -2.484 C 111.775 86.47 111.352 87.037 110.677 88.021 Z M 126.869 94.235 c 9.5 0.066 10.063 -1.063 10.875 -3.438 c -1.558 1.941 -3.121 3.004 -11.125 2.813 c -5.622 -0.134 -6.938 -2.813 -11.563 -0.563 C 118.557 91.673 121.494 94.198 126.869 94.235 Z" /></g></g><g id="svga-group-facehighlight-single" ><path id="SvgjsPath2753" opacity="1" fill="url(#SvgjsRadialGradient2754)" d="M 140.204 113.007 c 0.035 22.275 -17.995 40.365 -40.273 40.396 c -22.274 0.036 -40.361 -17.993 -40.396 -40.272 C 59.501 90.857 77.53 72.77 99.808 72.735 C 122.083 72.701 140.171 90.73 140.204 113.007 Z" /><path id="SvgjsPath2757" opacity="1" fill="url(#SvgjsRadialGradient2758)" d="M 135 55.999 c 0 19.329 -15.671 35 -35 35 c -19.329 0 -35 -15.671 -35 -35 s 15.671 -35 35 -35 C 119.329 20.999 135 36.67 135 55.999 Z" /></g><g id="svga-group-eyebrows-left" ><path id="SvgjsPath2778" opacity="1" fill="#2a232b" stroke-width="none" d="M 74.799 69.068 c -4.425 -0.475 -21.252 3.714 -21.252 3.714 s 16.789 -6.74 23.757 -5.667 c 5.188 0.798 14.397 5.077 12.706 7.339 C 88.649 76.275 84.408 70.1 74.799 69.068 Z" /></g><g id="svga-group-eyebrows-right" ><path id="SvgjsPath2779" opacity="1" fill="#2a232b" stroke-width="none" d="M 109.731 74.187 c -1.713 -2.292 7.592 -6.31 13.546 -6.804 c 7.117 -0.59 22.914 4.085 22.914 4.085 s -15.9 -2.628 -20.377 -2.106 C 115.998 70.506 111.11 76.031 109.731 74.187 Z" /></g><g id="svga-group-nose-single" ><path id="SvgjsPath2890" opacity="1" fill="#e4b3ab" stroke="none" stroke-width="none" d="M 92.281 116.235 c -0.745 2.063 5.028 4.289 7.218 4.426 c 2.374 0.147 9.024 -2.899 7.896 -4.991 c -1.185 -2.197 -5.63 -0.286 -7.547 -0.286 C 97.94 115.384 93.276 113.479 92.281 116.235 Z" /><path id="SvgjsPath2891" opacity="1" fill="#c5796d" stroke="none" stroke-width="none" d="M 102.207 117.221 c -0.243 -0.522 1.194 -1.333 1.748 -1.493 c 0.777 -0.226 2.505 0.238 2.438 0.831 c -0.06 0.521 -1.603 -0.169 -2.105 -0.022 C 103.767 116.687 102.435 117.712 102.207 117.221 Z M 95.214 116.742 c 0.706 0 1.753 0.457 1.945 0.057 c 0.229 -0.479 -1.56 -1.065 -2.086 -1 c -0.434 0.052 -1.991 0.958 -1.777 1.338 C 93.496 117.49 94.284 116.742 95.214 116.742 Z" /><path id="SvgjsPath2892" opacity="0.2" fill="#ffffff" stroke="none" stroke-width="none" d="M 99.857 113.479 c 0.669 0 1.807 -0.637 1.978 -1.9 c 0.754 -5.575 -0.521 -20.246 -1.978 -20.246 c -1.365 0 -2.508 15.024 -2.155 20.246 C 97.789 112.86 99.099 113.479 99.857 113.479" /></g><g id="svga-group-hair-front" ><path id="SvgjsPath4411" opacity="0.1" fill="#2a232b" stroke-width="none" d="M 146.93 34.899 H 51.19 l 2.047 63.665 c 0.413 -1.002 6.167 -11.347 6.883 -9.885 c 27.017 -13.333 35.79 -30.203 41.162 -43.761 c -8.006 33.653 -27.315 38.394 -27.315 38.394 c 4.23 -0.47 16.372 -1.724 24.386 -10.048 c 1.049 -1.109 9.917 -7.806 17.639 -28.686 c 1.598 17.179 9.102 35.856 21.778 43.817 c -4.244 -8.364 -9.812 -29.919 -10.834 -45.113 c 7.041 34.369 14.163 52.434 20.596 64.606 c 2.186 4.135 6.498 11.445 5.991 11.344 C 155.064 127.09 146.93 34.899 146.93 34.899 Z" /><path id="SvgjsPath4412" opacity="1" fill="#2a232b" stroke-width="none" d="M 123.977 2.768 c -3.083 -1.172 -5.286 -2.017 -8.009 -2.746 c -0.046 -1 -52.547 -15.95 -79.211 46.22 C 30 65.827 26.418 96.013 32.644 115.821 c 1.439 4.387 5.438 10.615 9.24 31.491 c 1.83 10.049 3.275 17.985 14.18 29.005 c 2.863 2.896 10.198 8.648 11.516 13.763 c 4.04 -22.237 -3.639 -28.484 -10.942 -34.448 c -5.008 -4.09 -9.886 -5.026 3.084 -1.95 c 0 0 2.742 -0.172 8.082 -3.547 c -8.452 1.78 -14.496 -1.088 -18.395 -7.845 c -5.153 -8.931 -5.126 -22.432 0.063 -31.404 c 5.211 2.94 4.943 17.158 5.213 18.975 c 2.336 -7.38 -1.068 -29.004 -1.447 -31.296 c -0.086 -1.031 1.344 -4.568 1.344 -4.568 c 0.413 -1.002 4.823 -9.035 5.539 -7.572 c 27.017 -13.333 35.79 -30.203 41.162 -43.761 c -8.006 33.653 -26.338 40.13 -26.338 40.13 c 4.23 -0.47 15.395 -3.46 23.408 -11.784 c 1.049 -1.109 10.575 -11.543 18.297 -32.423 c 1.598 17.179 9.354 36.563 19.454 48.129 c -4.244 -8.364 -8.146 -30.494 -9.168 -45.688 c 7.041 34.369 15.773 50.895 22.206 63.066 c 2.186 4.135 4.633 11.112 4.126 11.011 c 1.542 7.857 -1.689 25.994 -16.881 30.317 c 2.979 0.559 5.525 0.628 7.732 0.33 c -16.469 16.26 -7.259 25.821 -4.188 43.015 c 0.856 -3.048 0.825 -6.172 5.466 -12.909 c 8.701 -12.646 1.984 -12.887 12.664 -33.732 c 11.454 -22.361 10.121 -31.09 11.148 -37.028 C 169.358 104.3 175.752 22.291 123.977 2.768 Z" /><path id="SvgjsPath4413" opacity="1" fill="#1b141c" stroke-width="none" d="M 67.764 188.989 c 0.423 -2.594 0.691 -4.943 0.835 -7.097 C 68.471 184.053 68.198 186.411 67.764 188.989 Z M 74 74 c 12.458 -18.076 20 -31 24 -50 c -9.526 21.91 -26.401 39.19 -40.852 57.299 c -0.179 -4.145 0.471 -27.813 19.151 -56.07 C 53.909 45.714 44.072 74.808 50 92.329 c -4.381 -9.265 -7.631 -27.423 -4.534 -39.992 C 32.93 82.071 50.324 95.5 55.201 114.308 c -1.344 -18.182 -3.149 -14.727 -0.619 -20.983 c 0.353 -0.856 2.804 -5.552 2.941 -4.476 c 1.148 -1.746 2.267 -3.1 2.597 -2.425 c 27.017 -13.333 35.79 -30.203 41.162 -43.761 c -8.006 33.653 -26.338 40.13 -26.338 40.13 c 12.432 -1.38 32.048 -22.872 29.337 -54.052 C 99.279 46.741 86.458 62.405 74 74 Z M 167.643 69.768 C 168.346 85.58 166.535 100.791 164 116 c -2 -14 -5.646 -30.432 -12.166 -48.964 c 5.535 25.6 4.855 34.796 5.16 44.698 c -13.146 -28.627 -26.344 -53.284 -31.411 -82.828 C 124.631 39.739 127.384 55.924 129 68 c -4.369 -9.761 -9.298 -21.428 -11.084 -39.259 c 0 3.435 -0.399 5.222 -1.558 9.477 c 1.731 17.014 9.773 37.078 19.745 48.497 c -4.244 -8.364 -8.146 -30.494 -9.168 -45.688 c 7.041 34.369 15.773 50.895 22.206 63.066 c 1.876 3.549 3.938 9.179 4.167 10.643 c 0.038 0.242 0.031 0.383 -0.041 0.368 c 0.158 0.808 0.264 1.729 0.313 2.728 c 1.77 4.593 2.528 7.402 1.474 10.785 c -1.525 4.895 -9.049 15.63 -18.668 16.805 c 8.743 2.063 14.341 -2.79 18.97 -8.827 c -6.923 15.946 -21.127 8.797 -15.486 51.65 c 0.701 -2.468 1.708 -6.844 5.527 -12.388 c 8.701 -12.646 1.984 -12.887 12.664 -33.732 c 11.454 -22.361 10.121 -31.09 11.148 -37.028 C 169.274 104.75 170.52 89.027 167.643 69.768 Z M 44.483 143.565 c 2.989 1.909 6.538 10.618 16.535 9.841 C 41.105 148.271 42 120.18 42 103 c -1.471 4.902 -2.685 10.05 -3.438 15.315 c -11.3 -30.764 -4.969 -64.11 9.831 -92.716 c -4.203 5.701 -8.144 12.5 -11.637 20.643 c -16.692 48.389 -0.499 78.419 0.992 83.356 c 6.717 22.247 2.683 30.923 18.315 46.719 c 2.863 2.896 10.198 8.648 11.516 13.763 C 71.369 164.985 48.613 158.099 44.483 143.565 Z M 142.95 25.75 c 15.545 14.046 21.195 45.833 21.328 69.442 C 164.39 100.162 164.413 46.131 142.95 25.75 Z M 154.875 82.765 c 3.342 20.038 -2.521 -42.627 -24.576 -58.441 C 143.508 35.305 152.316 67.792 154.875 82.765 Z M 70.88 22.753 c 5.942 -4.945 -2.793 2 -5.802 4.808 C 54.54 37.09 50.033 46.996 47.94 57.751 C 51.505 42.729 59.444 32.739 70.88 22.753 Z M 84.705 24.485 c 2.822 -2.594 -13.942 8.265 -22.912 41.27 C 68.529 45.157 77.302 31.847 84.705 24.485 Z" /><path id="SvgjsPath4414" opacity="1" fill="#3a353a" stroke-width="none" d="M 151.671 107.902 c 17.19 26.816 3.447 35.355 1.861 40.974 C 155.307 142.587 164.622 133.223 151.671 107.902 Z M 163.42 128.026 c 0.103 -1 3.263 -9.188 0.12 -24.545 c -1.706 -8.337 -4.72 -16.315 -6.759 -24.558 C 160.708 97.38 165.319 109.35 163.42 128.026 Z M 40.778 139.904 c 0.025 -1.461 -5.489 -18.724 2.449 -40.017 C 31.997 123.286 40.828 137.053 40.778 139.904 Z M 47.054 108.148 c -0.2 -0.831 -0.822 -1.722 -1.174 -2.497 c -13.39 -29.399 -4.231 -52.055 7.184 -80.645 C 37.802 57.778 30.55 77.146 47.054 108.148 Z M 76.707 21.78 c 0.036 -0.038 3.867 -3.963 3.917 -3.95 c -0.095 -0.025 -0.761 0.712 -0.836 0.781 C 58.372 38.149 45.057 58.889 48.989 87.389 C 46.38 61.056 58.712 40.895 76.707 21.78 Z M 99.998 17.774 c -3.237 8.17 -26.894 43.475 -42.375 62.038 C 83.633 50.897 99.614 20.587 99.998 17.774 Z M 82.755 80.445 c -0.234 0.139 -2.196 1.563 -2.301 1.506 c 0.045 0.024 1.552 -0.942 1.671 -1.005 c 26.81 -14.112 29.966 -31.518 36.614 -59.983 C 111.34 47.604 106.258 66.473 82.755 80.445 Z M 155.396 106.15 c -4.141 -9.261 -29.368 -64.249 -29.976 -80.447 C 125.997 52.586 154.947 105.149 155.396 106.15 Z M 148.657 74.301 c 0.361 1.587 0.849 3.182 1.121 4.785 c -3.42 -20.115 -5.357 -34.698 -17.969 -50.635 C 140.228 39.304 143.225 50.447 148.657 74.301 Z M 136.445 21.347 c 0 0.068 -0.079 0.248 -0.18 0.171 c 16.048 12.281 24.425 58.902 24.777 59.902 c -1.188 -3.375 0.299 -28.648 -19.299 -53.957 c -1.58 -2.04 -3.319 -4.493 -5.468 -5.976 c 0.061 0.017 0.187 -0.063 0.143 -0.136 c 0.066 0.106 0.143 0.201 0.221 0.3 C 136.731 21.704 136.445 21.53 136.445 21.347 Z" /><path id="SvgjsPath4415" opacity="1" fill="#2a232b" stroke-width="none" d="M 152.811 150.46 c -5.664 16.369 -6.497 17.491 -6.497 17.491 C 145.881 168.951 149.452 157.542 152.811 150.46 Z M 145.609 171.244 c -0.081 0.287 -0.612 2.203 -0.539 1.967 c 1.925 -5.472 3.814 -6.661 5.754 -14.988 C 148.631 165.023 148.427 163.099 145.609 171.244 Z M 146.069 171.593 c -3.171 4.709 -3.991 7.679 -3.865 7.369 c 0.093 -0.278 0.782 -1.668 1.515 -2.844 c 1.649 -2.668 3.643 -4.701 5.109 -9.896 C 148.427 167.289 147.835 169.096 146.069 171.593 Z M 50.233 166.038 c 3.835 4.714 -0.635 0.469 -6.922 -14.783 C 45.74 159.453 47.645 162.625 50.233 166.038 Z M 55.452 171.15 c -1.002 -0.743 -7.178 -6.813 -9.562 -11.396 C 49.341 167.897 56.454 171.917 55.452 171.15 Z M 52.553 170.327 c 10.604 9.982 -2.789 -2.537 -3.953 -4.89 C 48.6 165.438 48.617 166.515 52.553 170.327 Z" /><path id="SvgjsPath4416" opacity="1" fill="#000000" stroke-width="none" d="M 167.879 61.476 c -12.103 -57.797 -52.05 -61.709 -49.288 -60.534 C 82.706 -11.776 39.498 11.482 30.849 62.735 c -2.427 14.398 -3.457 40.922 0.152 51.061 c 2.023 5.684 3.274 8.689 5.778 15.28 c 7.917 21.966 -0.744 33.347 24.319 52.629 c 3.111 2.404 5.166 5.576 6.57 9.28 c 0.011 -0.021 0.206 -1.185 0.21 -1.21 c 3.034 -17.218 1.952 -26.859 -14.556 -37.602 c 4.582 2.664 10.785 1.913 14.707 -2.328 c -18.17 5.154 -26.956 -19.264 -18.035 -37.71 c 3.31 7.742 4.615 15.037 4.415 19.26 c 3.667 -11.231 1.363 -15.783 -0.26 -36.23 c 1.382 -3.195 3.084 -5.784 5.23 -8.52 c 18.811 -9.406 32.957 -18.133 42.583 -45.857 c -2.319 7.76 -3.984 15.355 -10.583 25.527 c -8.651 13.359 -12.577 13.816 -17.96 16.7 c 4.453 0 10.501 -1.322 18.886 -6.369 c -1.375 1.17 -2.601 2.299 -5.326 4.209 c 13.693 -8.82 23.971 -21.423 29.379 -42.638 c -3.583 16.868 -5.419 32.085 -22.899 41.488 c 17.491 -8.862 20.781 -21.575 23.227 -41.07 c 1.759 30.597 16.143 46.195 21.084 49.76 c -6.279 -10.305 -9.001 -34.624 -11.224 -50.274 c 2.413 14.985 1.465 10.331 5.243 24.954 c 6.901 26.356 15.578 41.213 20.585 51.722 c 2.062 14.443 -4.134 27.799 -17.385 30.438 c 3.135 1.249 6.225 1.409 8.729 0.8 c -18.508 18.508 -7.2 24.044 -3.8 43.63 c 1.291 -8.023 5.813 -11.861 9.25 -18.229 c 3.456 -6.434 2.206 -13.346 6.01 -21.3 C 167.924 123.713 178.348 111.793 167.879 61.476 Z M 136.719 145.355 c 10.184 -1.965 18.639 -15.794 17.193 -27.181 c 3.127 7.31 3.785 12.573 -0.413 18.921 C 149.909 143.246 143.775 147.014 136.719 145.355 Z M 155.356 136.595 L 155.356 136.595 c -0.008 -0.008 -0.009 -0.01 -0.027 -0.01 C 155.316 136.585 155.341 136.58 155.356 136.595 Z M 168.709 105.035 c -2.086 29.331 -15.352 38.543 -17.63 54 c -2.551 17.787 -8.397 14.561 -11.22 28.42 c -3.092 -17.286 -11.779 -25.501 4.99 -41.729 c 7.597 -2.349 15.125 -11.563 12.619 -23.141 c -3.939 -18.205 -19.696 -28.375 -30.75 -85.2 c 0.001 0.021 0.004 0.041 0.005 0.062 c -0.188 -0.892 -0.424 -1.969 -0.574 -2.721 c -0.041 -0.039 -1.392 -8.322 0.028 1.145 c 0.448 15.911 4.518 40.049 9.187 49.243 c -14.321 -18.218 -17.941 -38.157 -18.659 -46.634 c 0.132 -1.054 0.262 -2.123 0.391 -3.217 v 0.001 c 0.594 -4.784 1.755 -12.568 -0.516 1.36 c -7.278 20.704 -16.344 31.664 -18.591 34.042 c -7.751 8.047 -19.589 11.732 -22.89 12.03 c 19.078 -8.456 25.617 -31.208 28.85 -51.12 c -0.116 0.562 -1.372 6.57 -1.26 6.01 c -5.817 15.457 -13.401 33.887 -42.791 48.39 c 21.149 -26.064 32.342 -46.549 37.38 -60.3 c -10.229 24.39 -39.564 59.988 -42.96 68.23 c -1.051 -33.877 10.756 -57.804 22.45 -68.31 c -12.185 9.517 -27.02 37.211 -24.03 73.01 c 1.093 6.624 3.499 23.741 2.033 30.36 c 0.267 -4.023 -0.573 -9.699 -1.343 -12.41 v -0.011 c -3.027 -10.95 -10.455 -19.118 -11.85 -31.479 c -1.26 -11.15 -0.79 -22.64 4.16 -32.88 c -3.67 6.9 -5.469 14.376 -5.76 22.17 c -0.845 22.599 5.915 24.877 9.065 36.278 c -9.468 16.356 -1.527 45.11 17.855 39.802 c -11.657 9.495 -21.668 -7.561 -23.435 -10.817 c -2.728 -6.707 -3.268 -14.404 -3.604 -21.543 c -0.12 51.119 33.988 27.358 27.697 71.093 c -0.804 -3.887 -10.145 -12.2 -11.137 -13.202 c -15.067 -15.233 -11.885 -24.441 -17 -41.98 c -2.092 -9.778 -4.664 -13.319 -6.303 -18.315 c -6.389 -20.335 -2.216 -50.915 4.113 -69.265 c 12.133 -28.275 31.378 -46.868 62 -47.87 c 7.224 -0.239 22.339 2.489 13.6 1.26 c 4.341 0.897 6.861 1.884 10.97 3.44 c 50.765 19.143 45.277 99.834 44.92 101.77 C 168.719 105.005 168.709 105.015 168.709 105.035 Z" /></g><g id="svga-group-glasses-single" ><path id="SvgjsPath2880" opacity="1" fill="#26120b" stroke-width="none" d="M 100 18.13 L 100 18.13 L 100 18.13 L 100 18.13 Z" /></g></g></g><rect id="SvgjsRect1033" style="display:none;" opacity="0.5" fill="#ecf0f1" x="0" y="185" width="200" height="15" /><text id="SvgjsText1034" font-family="&quot;Roboto&quot;,&quot;Helvetica Neue&quot;,Helvetica,Arial,sans-serif" font-size="0.84em" font-weight="400" style="font-size:0.84em;font-family:&quot;Roboto&quot;, &quot;Helvetica Neue&quot;, Helvetica, Arial, sans-serif;text-anchor:middle;font-weight:400;display:none;" fill="#000000" text-anchor="middle" x="100" y="185"><tspan id="SvgjsTspan1035" style="font-size:0.84em;font-family:&quot;Roboto&quot;, &quot;Helvetica Neue&quot;, Helvetica, Arial, sans-serif;text-anchor:middle;font-weight:400;" x="100" dy="1.2em">Created on AvatarMaker.com</tspan></text></g><defs id="SvgjsDefs1001"><radialGradient class="svga-on-canvas-facehighlight-gradient-single-0" id="SvgjsRadialGradient2754" gradientUnits="userSpaceOnUse" cx="100" cy="113" r="40"><stop id="SvgjsStop2755" stop-color="rgb(255, 244, 243)" stop-opacity="0.5" offset="0" /><stop id="SvgjsStop2756" stop-color="rgb(243, 212, 207)" stop-opacity="0" offset="0.9" /></radialGradient><radialGradient class="svga-on-canvas-facehighlight-gradient-single-1" id="SvgjsRadialGradient2758" gradientUnits="userSpaceOnUse" cx="100" cy="57" r="36"><stop id="SvgjsStop2759" stop-color="rgb(255, 244, 243)" stop-opacity="0.5" offset="0" /><stop id="SvgjsStop2760" stop-color="rgb(243, 212, 207)" stop-opacity="0" offset="0.9" /></radialGradient><linearGradient class="svga-on-canvas-mouth-gradient-single-0" id="SvgjsLinearGradient2883" gradientUnits="userSpaceOnUse" x1="100" y1="141" x2="100" y2="138"><stop id="SvgjsStop2884" stop-color="rgb(235, 195, 189)" stop-opacity="1" offset="0.1" /><stop id="SvgjsStop2885" stop-color="rgb(228, 179, 171)" stop-opacity="1" offset="1" /></linearGradient><radialGradient class="svga-on-canvas-eyesback-gradient-left-0" id="SvgjsRadialGradient4167" gradientUnits="userSpaceOnUse" gradientTransform="matrix(-1.0592, 0.0004, -0.0004, 1.0589, 206.511, -6.1261)" cx="125.187" cy="86.184" r="12.84"><stop id="SvgjsStop4168" stop-color="rgb(255, 255, 255)" stop-opacity="1" offset="0" /><stop id="SvgjsStop4169" stop-color="rgb(253, 254, 254)" stop-opacity="1" offset="0.544" /><stop id="SvgjsStop4170" stop-color="rgb(246, 248, 249)" stop-opacity="1" offset="0.74" /><stop id="SvgjsStop4171" stop-color="rgb(234, 239, 242)" stop-opacity="1" offset="0.879" /><stop id="SvgjsStop4172" stop-color="rgb(217, 227, 232)" stop-opacity="1" offset="0.992" /><stop id="SvgjsStop4173" stop-color="rgb(216, 226, 231)" stop-opacity="1" offset="1" /></radialGradient><radialGradient class="svga-on-canvas-eyesback-gradient-right-0" id="SvgjsRadialGradient4175" gradientUnits="userSpaceOnUse" gradientTransform="matrix(1.0592, 0.0004, 0.0004, 1.0589, -6.5114, -6.1261)" cx="125.187" cy="86.184" r="12.84"><stop id="SvgjsStop4176" stop-color="rgb(255, 255, 255)" stop-opacity="1" offset="0" /><stop id="SvgjsStop4177" stop-color="rgb(253, 254, 254)" stop-opacity="1" offset="0.544" /><stop id="SvgjsStop4178" stop-color="rgb(246, 248, 249)" stop-opacity="1" offset="0.74" /><stop id="SvgjsStop4179" stop-color="rgb(234, 239, 242)" stop-opacity="1" offset="0.879" /><stop id="SvgjsStop4180" stop-color="rgb(217, 227, 232)" stop-opacity="1" offset="0.992" /><stop id="SvgjsStop4181" stop-color="rgb(216, 226, 231)" stop-opacity="1" offset="1" /></radialGradient><radialGradient class="svga-on-canvas-eyesfront-gradient-left-0" id="SvgjsRadialGradient4183" gradientUnits="userSpaceOnUse" gradientTransform="matrix(-1.0592, 0.0004, -0.0004, 1.0589, 206.511, -6.1261)" cx="125.187" cy="86.184" r="12.84"><stop id="SvgjsStop4184" stop-color="rgb(255, 255, 255)" stop-opacity="1" offset="0" /><stop id="SvgjsStop4185" stop-color="rgb(253, 254, 254)" stop-opacity="1" offset="0.544" /><stop id="SvgjsStop4186" stop-color="rgb(246, 248, 249)" stop-opacity="1" offset="0.74" /><stop id="SvgjsStop4187" stop-color="rgb(234, 239, 242)" stop-opacity="1" offset="0.879" /><stop id="SvgjsStop4188" stop-color="rgb(217, 227, 232)" stop-opacity="1" offset="0.992" /><stop id="SvgjsStop4189" stop-color="rgb(216, 226, 231)" stop-opacity="1" offset="1" /></radialGradient><radialGradient class="svga-on-canvas-eyesfront-gradient-left-3" id="SvgjsRadialGradient4193" gradientUnits="userSpaceOnUse" gradientTransform="matrix(0.9998, 0.0208, 0.0166, -0.7998, -47.4114, 149.329)" cx="123.021" cy="84.391" r="17.898" fx="133.604" fy="80.492"><stop id="SvgjsStop4194" stop-color="rgb(228, 179, 171)" stop-opacity="1" offset="0" /><stop id="SvgjsStop4195" stop-color="rgb(228, 179, 171)" stop-opacity="0.3" offset="0.7" /><stop id="SvgjsStop4196" stop-color="rgb(243, 212, 207)" stop-opacity="0" offset="1" /></radialGradient><radialGradient class="svga-on-canvas-eyesfront-gradient-left-4" id="SvgjsRadialGradient4198" gradientUnits="userSpaceOnUse" gradientTransform="matrix(1.0971, -0.0567, 0.0576, 1.0844, -20.1314, 20.8883)" cx="79.54" cy="83.579" r="23.208"><stop id="SvgjsStop4199" stop-color="rgb(0, 0, 0)" stop-opacity="0" offset="0.94" /><stop id="SvgjsStop4200" stop-color="rgb(0, 0, 0)" stop-opacity="0.3" offset="1" /></radialGradient><radialGradient class="svga-on-canvas-eyesfront-gradient-right-0" id="SvgjsRadialGradient4204" gradientUnits="userSpaceOnUse" gradientTransform="matrix(1.0592, 0.0004, 0.0004, 1.0589, -6.5114, -6.1261)" cx="125.187" cy="86.184" r="12.84"><stop id="SvgjsStop4205" stop-color="rgb(255, 255, 255)" stop-opacity="1" offset="0" /><stop id="SvgjsStop4206" stop-color="rgb(253, 254, 254)" stop-opacity="1" offset="0.544" /><stop id="SvgjsStop4207" stop-color="rgb(246, 248, 249)" stop-opacity="1" offset="0.74" /><stop id="SvgjsStop4208" stop-color="rgb(234, 239, 242)" stop-opacity="1" offset="0.879" /><stop id="SvgjsStop4209" stop-color="rgb(217, 227, 232)" stop-opacity="1" offset="0.992" /><stop id="SvgjsStop4210" stop-color="rgb(216, 226, 231)" stop-opacity="1" offset="1" /></radialGradient><radialGradient class="svga-on-canvas-eyesfront-gradient-right-3" id="SvgjsRadialGradient4214" gradientUnits="userSpaceOnUse" gradientTransform="matrix(-0.9998, 0.0208, -0.0166, -0.7998, 247.419, 149.329)" cx="123.021" cy="84.391" r="17.898" fx="133.604" fy="80.492"><stop id="SvgjsStop4215" stop-color="rgb(228, 179, 171)" stop-opacity="1" offset="0" /><stop id="SvgjsStop4216" stop-color="rgb(228, 179, 171)" stop-opacity="0.3" offset="0.7" /><stop id="SvgjsStop4217" stop-color="rgb(243, 212, 207)" stop-opacity="0" offset="1" /></radialGradient><radialGradient class="svga-on-canvas-eyesfront-gradient-right-4" id="SvgjsRadialGradient4219" gradientUnits="userSpaceOnUse" gradientTransform="matrix(-1.0971, -0.0567, -0.0576, 1.0844, 220.131, 20.8883)" cx="79.54" cy="83.579" r="23.208"><stop id="SvgjsStop4220" stop-color="rgb(0, 0, 0)" stop-opacity="0" offset="0.94" /><stop id="SvgjsStop4221" stop-color="rgb(0, 0, 0)" stop-opacity="0.3" offset="1" /></radialGradient><radialGradient class="svga-on-canvas-eyesiris-gradient-left-1" id="SvgjsRadialGradient4351" gradientUnits="userSpaceOnUse" gradientTransform="matrix(0.096, -0.0248, 0.0245, 0.0961, 140.548, 120.358)" cx="-558.588" cy="-490.918" r="84.646"><stop id="SvgjsStop4352" stop-color="rgb(255, 255, 255)" stop-opacity="0.8" offset="0" /><stop id="SvgjsStop4353" stop-color="rgb(255, 255, 255)" stop-opacity="0" offset="1" /></radialGradient><radialGradient class="svga-on-canvas-eyesiris-gradient-left-2" id="SvgjsRadialGradient4355" gradientUnits="userSpaceOnUse" gradientTransform="matrix(0.0991, 0.000885632, -0.0011, 0.0991, 130.377, 136.353)" cx="-565.337" cy="-492.691" r="84.644"><stop id="SvgjsStop4356" stop-color="rgb(255, 255, 255)" stop-opacity="0.8" offset="0" /><stop id="SvgjsStop4357" stop-color="rgb(255, 255, 255)" stop-opacity="0" offset="1" /></radialGradient><linearGradient class="svga-on-canvas-eyesiris-gradient-left-5" id="SvgjsLinearGradient4361" gradientUnits="userSpaceOnUse" gradientTransform="matrix(1, 0, 0, 1, -52, 0)" x1="122.283" y1="93.047" x2="123.61" y2="91.466"><stop id="SvgjsStop4362" stop-color="rgb(255, 255, 255)" stop-opacity="1" offset="0" /><stop id="SvgjsStop4363" stop-color="rgb(255, 255, 255)" stop-opacity="0" offset="1" /></linearGradient><linearGradient class="svga-on-canvas-eyesiris-gradient-left-6" id="SvgjsLinearGradient4365" gradientUnits="userSpaceOnUse" gradientTransform="matrix(1, 0, 0, 1, -50, 0)" x1="127" y1="85" x2="125" y2="87"><stop id="SvgjsStop4366" stop-color="rgb(255, 255, 255)" stop-opacity="1" offset="0" /><stop id="SvgjsStop4367" stop-color="rgb(255, 255, 255)" stop-opacity="0" offset="1" /></linearGradient><linearGradient class="svga-on-canvas-eyesiris-gradient-left-7" id="SvgjsLinearGradient4369" gradientUnits="userSpaceOnUse" gradientTransform="matrix(1, 0, 0, 1, -50, 0)" x1="130" y1="81" x2="126" y2="85"><stop id="SvgjsStop4370" stop-color="rgb(255, 255, 255)" stop-opacity="1" offset="0" /><stop id="SvgjsStop4371" stop-color="rgb(255, 255, 255)" stop-opacity="0" offset="1" /></linearGradient><radialGradient class="svga-on-canvas-eyesiris-gradient-right-1" id="SvgjsRadialGradient4374" gradientUnits="userSpaceOnUse" gradientTransform="matrix(0.096, -0.0248, 0.0245, 0.0961, 192.479, 119.84)" cx="-578.76" cy="-490.73" r="84.646"><stop id="SvgjsStop4375" stop-color="rgb(255, 255, 255)" stop-opacity="0.8" offset="0" /><stop id="SvgjsStop4376" stop-color="rgb(255, 255, 255)" stop-opacity="0" offset="1" /></radialGradient><radialGradient class="svga-on-canvas-eyesiris-gradient-right-2" id="SvgjsRadialGradient4378" gradientUnits="userSpaceOnUse" gradientTransform="matrix(0.0991, 0.000885632, -0.0011, 0.0991, 182.31, 135.839)" cx="-584.778" cy="-487.329" r="84.644"><stop id="SvgjsStop4379" stop-color="rgb(255, 255, 255)" stop-opacity="0.8" offset="0" /><stop id="SvgjsStop4380" stop-color="rgb(255, 255, 255)" stop-opacity="0" offset="1" /></radialGradient><linearGradient class="svga-on-canvas-eyesiris-gradient-right-5" id="SvgjsLinearGradient4384" gradientUnits="userSpaceOnUse" x1="120.284" y1="93.047" x2="121.611" y2="91.467"><stop id="SvgjsStop4385" stop-color="rgb(255, 255, 255)" stop-opacity="1" offset="0" /><stop id="SvgjsStop4386" stop-color="rgb(255, 255, 255)" stop-opacity="0" offset="1" /></linearGradient><linearGradient class="svga-on-canvas-eyesiris-gradient-right-6" id="SvgjsLinearGradient4388" gradientUnits="userSpaceOnUse" x1="127" y1="85" x2="125" y2="87"><stop id="SvgjsStop4389" stop-color="rgb(255, 255, 255)" stop-opacity="1" offset="0" /><stop id="SvgjsStop4390" stop-color="rgb(255, 255, 255)" stop-opacity="0" offset="1" /></linearGradient><linearGradient class="svga-on-canvas-eyesiris-gradient-right-7" id="SvgjsLinearGradient4392" gradientUnits="userSpaceOnUse" x1="130" y1="81" x2="126" y2="85"><stop id="SvgjsStop4393" stop-color="rgb(255, 255, 255)" stop-opacity="1" offset="0" /><stop id="SvgjsStop4394" stop-color="rgb(255, 255, 255)" stop-opacity="0" offset="1" /></linearGradient><linearGradient class="svga-on-canvas-chinshadow-gradient-single-0" id="SvgjsLinearGradient4421" gradientUnits="userSpaceOnUse" x1="99.98" y1="171.27" x2="99.98" y2="136.351"><stop id="SvgjsStop4422" stop-color="rgb(228, 179, 171)" stop-opacity="0.8" offset="0" /><stop id="SvgjsStop4423" stop-color="rgb(197, 121, 109)" stop-opacity="1" offset="0.7" /></linearGradient></defs></svg>