<svg xmlns="http://www.w3.org/2000/svg" version="1.1" width="600px" height="600px" xlink="http://www.w3.org/1999/xlink" style="overflow:hidden!important;"><g id="svga-group-wrapper" transform="scale(3 3)"><g id="svga-group-backs-single"><path id="SvgjsPath4177" opacity="1" fill="#ecf0f1" stroke-width="none" d="M 225 225 H -25 V -25 h 250 V 225 Z" /></g><g id="svga-group-subwrapper" ><g id="svga-group-hair-back" ><path id="SvgjsPath3440" opacity="1" fill="#2a232b" stroke-width="none" d="M 100.5 100.5 h -1 v -1 h 1 V 100.5 Z" /></g><g id="svga-group-humanbody-single"><path id="SvgjsPath2893" opacity="1" fill="#f0c7b1" stroke="none" stroke-width="none" d="M 195.417 199.778 c -2.196 -4.746 -8.195 -11.779 -14.86 -13.722 c -8.239 -2.403 -26.837 -5.308 -33.733 -6.923 c -5.528 -1.296 -16.662 -11.294 -20.564 -14.65 c -0.7 -0.6 -1.273 -1.839 -1.287 -2.76 c -0.139 -10.864 4.195 -39.724 4.195 -39.724 H 100 H 70.833 c 0 0 4.334 28.859 4.193 39.724 c -0.011 0.921 -0.587 2.16 -1.285 2.76 c -3.902 3.356 -15.036 13.354 -20.564 14.65 c -6.897 1.615 -25.495 4.619 -33.733 7.022 c -6.667 1.942 -12.664 8.876 -14.86 13.622 c -3.708 8.008 -4.584 22.5 -4.584 35 h 100 h 100 C 200 222.278 199.123 207.786 195.417 199.778 Z" /><path id="SvgjsPath2894" opacity="1" fill="#ffe4d6" stroke="none" stroke-width="none" d="M 159.156 184.058 c 24.342 3.542 34.586 8.708 37.794 50.721 H 200 c 0 -12.5 -0.877 -26.992 -4.583 -35 c -2.196 -4.746 -8.195 -11.779 -14.86 -13.722 c -8.239 -2.403 -26.837 -5.308 -33.733 -6.923 c -5.528 -1.296 -18.242 -12.069 -21.643 -16.35 c 3.36 4.704 12.791 15.605 21.054 18.46 C 150.188 182.61 153.48 183.232 159.156 184.058 Z M 53.766 181.244 c 8.263 -2.854 17.693 -13.756 21.054 -18.46 c -3.4 4.28 -16.114 15.054 -21.643 16.35 c -6.896 1.615 -25.494 4.619 -33.733 7.022 c -6.665 1.942 -12.664 8.876 -14.86 13.622 c -3.706 8.008 -4.583 22.5 -4.583 35 h 3.05 c 3.188 -41.744 13.475 -47.183 37.794 -50.721 C 46.52 183.232 49.813 182.61 53.766 181.244 Z" /><path id="SvgjsPath2895" opacity="1" fill="#e1ac8f" stroke="none" stroke-width="none" d="M 95.646 197.62 c 0 0 -5.074 -1.609 -7.083 -2.379 c -10.449 -4.009 -44.395 -6.607 -44.395 -6.607 s 35.754 1.419 43.644 2.779 c -0.458 -4.767 -3.017 -20.004 -3.017 -20.004 s 5.149 16.815 6.409 21.057 C 91.878 194.734 95.646 197.62 95.646 197.62 Z M 106.445 196.278 c -0.089 0.073 -0.191 0.168 -0.302 0.268 C 106.256 196.461 106.358 196.372 106.445 196.278 Z M 95.646 197.62 c 0 0 2.893 2.992 4.347 3.03 c 1.91 0.051 4.828 -2.899 6.151 -4.104 c -1.265 0.957 -4.159 1.391 -5.31 1.436 C 99.504 198.033 95.646 197.62 95.646 197.62 Z M 116.664 190.101 c -1.545 0.248 -4.386 0.789 -4.386 0.789 l 2.287 -14.89 c -0.646 3.071 -4.474 16.211 -8.12 20.278 c 1.91 -1.616 6.158 -2.391 8.324 -2.704 c 10.236 -1.484 10.232 -1.483 41.062 -4.94 C 155.831 188.634 126.76 188.479 116.664 190.101 Z" /><path id="SvgjsPath2896" opacity="1" fill="none" stroke="#c27b55" stroke-width="1.5" d="M 195.417 199.778 c -2.196 -4.746 -8.195 -11.779 -14.86 -13.722 c -8.239 -2.403 -26.837 -5.308 -33.733 -6.923 c -5.528 -1.296 -16.662 -11.294 -20.564 -14.65 c -0.7 -0.6 -1.273 -1.839 -1.287 -2.76 c -0.139 -10.864 4.195 -39.724 4.195 -39.724 H 100 H 70.833 c 0 0 4.334 28.859 4.193 39.724 c -0.011 0.921 -0.587 2.16 -1.285 2.76 c -3.902 3.356 -15.036 13.354 -20.564 14.65 c -6.897 1.615 -25.495 4.619 -33.733 7.022 c -6.667 1.942 -12.664 8.876 -14.86 13.622 c -3.708 8.008 -4.584 22.5 -4.584 35 h 100 h 100 C 200 222.278 199.123 207.786 195.417 199.778 Z" /></g><g id="svga-group-chinshadow-single"><path id="SvgjsPath3209" opacity="1" fill="url(#SvgjsLinearGradient3210)" d="M 109.536 170.861 c 4.446 -1.662 9.623 -5.664 14.692 -10.57 c 0.134 -7.874 1.927 -22.141 3.129 -30.907 c -15.727 -1.816 -38.988 -1.81 -54.712 0.013 c 1.201 8.766 2.992 23.017 3.125 30.887 c 5.071 4.909 10.251 8.915 14.699 10.578 C 94.942 172.534 105.063 172.534 109.536 170.861 Z" /></g><g id="svga-group-clothes-single" ><path id="SvgjsPath4172" opacity="1" fill="#386e77" stroke-width="none" d="M -4.807 234.6 c 1.472 -10.806 -0.208 -11.777 4.116 -33.015 c 1.228 -7.384 2.66 -13.32 8.141 -10.607 c 4.045 -6.008 15.513 -6.566 57.339 -20.658 v -0.258 c 0.278 -1.001 2.706 -4.267 3.099 -9.897 c 0.383 -5.449 2.718 -9.56 5.614 -11.604 c -6.746 23.685 23.144 14.953 24.208 31.108 c 0.084 1.273 -0.974 10.149 -0.813 10.969 c 3.355 -0.679 6.721 -0.684 10.359 -0.645 c -3.928 -15.24 -0.545 -16.872 7.344 -19.838 c 9.564 -3.591 12.873 -7.169 12.01 -20.697 c 4.57 4.109 1.516 9.7 7.174 17.534 c 36.249 13.159 50.02 16.863 56.963 21.507 c 5.981 -4.517 9.697 2.65 17.292 46.103 C 136.218 235.212 54.269 235.12 -4.807 234.6 Z" /><path id="SvgjsPath4173" opacity="1" fill="#265e68" stroke-width="none" d="M 92.119 197.235 c 0.304 -0.029 3.375 -5.505 3.375 -5.505 c 5.764 -2.145 18.375 2.005 34.019 -10.176 C 117.994 199.61 97.143 186.737 92.119 197.235 Z M 70.115 179.378 c 8.754 10.018 23.629 13.732 26.773 10.686 C 96.885 190.135 79.619 189.396 70.115 179.378 Z" /><path id="SvgjsPath4174" opacity="1" fill="#184f58" stroke-width="none" d="M 73.607 149.423 c 0 0 0.705 6.944 0.82 11.739 C 72.326 156.482 71.897 155.232 73.607 149.423 Z" /><path id="SvgjsPath4175" opacity="1" fill="#4d7e86" stroke-width="none" d="M 4.781 194.15 C 0 207.902 -0.398 222.744 -3.298 234.612 c -0.693 -0.006 -0.823 0.293 -1.509 0.287 c 1.472 -10.806 -0.208 -12.355 4.116 -33.593 c 1.228 -7.384 2.66 -13.32 8.141 -10.607 c 4.045 -6.008 15.513 -6.566 57.339 -20.658 v -0.258 c 0.278 -1.001 2.706 -4.267 3.099 -9.897 c 0.345 -4.904 2.622 -9.431 5.25 -11.325 c -5.936 6.453 -1.918 18.345 -8.092 22.976 C 53.103 178.967 18.588 187.846 4.781 194.15 Z M 190.747 188.499 c -6.943 -4.644 -20.714 -8.348 -56.963 -21.507 c -5.658 -7.834 -2.604 -13.425 -7.174 -17.534 c 0.063 1.001 -0.018 0.613 0 1.51 c 2.161 -0.43 2.695 15.819 7.443 18.193 c 19 9 45.261 17.317 59.521 22.632 c 6.636 10.021 8.157 26.964 13.401 42.817 c 1.067 -0.009 0 0 1.063 -0.009 C 200.444 191.149 196.729 183.982 190.747 188.499 Z M 125.992 162.465 c -7.33 12.798 -21.646 4.662 -20.242 19.81 C 108.488 167.635 121.171 175.921 125.992 162.465 Z M 97.372 184.295 c 2.628 -16.491 -15.517 -13.785 -23.633 -23.296 C 78.812 171.409 95.553 168.227 97.372 184.295 Z" /><path id="SvgjsPath4176" opacity="1" fill="#0c4049" stroke-width="none" d="M 196.139 187.915 c -1.581 -1.609 -3.779 -1.259 -5.409 -0.029 c -7.133 -4.756 -26.235 -9.496 -56.63 -21.609 c 0 0 -2.289 -2.963 -3.469 -8.017 c -0.783 -3.353 -0.308 -7.087 -4.192 -9.838 c -0.749 9.286 -0.411 16.736 -9.51 20.304 c -8.959 3.582 -14.71 3.744 -10.319 20.76 c -2.301 -0.026 -6.457 -0.018 -9.318 0.563 c -0.058 -0.295 1.027 -8.769 0.918 -10.412 c -1.014 -15.376 -28.515 -9.625 -24.93 -27.551 c 0.33 -1.649 0.454 -2.542 0.187 -3.81 c -3.67 1.92 -5.337 6.074 -5.847 9.51 c -0.556 3.889 0.319 4.852 -3.32 12.13 c 0 0.011 -0.01 0.021 -0.01 0.03 c -0.17 0.05 -0.35 0.11 -0.53 0.17 c -41.434 13.791 -52.827 14.785 -56.48 20.22 c -5.931 -2.941 -7.458 5.121 -8.46 11.15 c -4.398 21.597 -2.602 22.344 -4.2 33.61 c 1 0 109.661 0.96 212.96 0.01 c 0.36 0 0.71 -0.01 1.06 -0.01 C 208.319 233.75 202.222 193.853 196.139 187.915 Z M 117.52 170.155 c 9.877 -4.015 9.506 -9.654 9.367 -19.766 c 3.437 1.52 0.914 8.914 6.792 16.516 c 0 4.854 -1.267 9.955 -4.229 13.46 c -5.51 6.101 -14.719 9.317 -22.23 9.13 C 104.685 173.337 107.914 174.091 117.52 170.155 Z M 68.349 159.005 c 0.062 -2.714 2.16 -8.263 4.9 -10.1 c -8.723 23.076 22.427 15.489 23.73 31.92 c 0.027 0.457 -0.38 8.333 -0.39 8.84 c -16.104 -1.896 -23.674 -5.555 -31.64 -19.189 c 0.02 -0.04 0.04 -0.08 0.06 -0.12 c 0.01 0.01 0.01 0 0.01 0 C 67.547 165.299 68.017 164.151 68.349 159.005 Z M -4.591 234.455 c 1.436 -5.179 1.375 -14.908 4.04 -28.63 c 1.58 -7.847 1.629 -17.345 7.48 -15.03 c 0.02 0 0.03 0.011 0.04 0.011 c 3.516 8.49 11.016 31.499 11.33 32.5 c 0.155 0.456 2.074 8.248 2.56 9.89 c -2.124 -16.99 -11.493 -39.731 -12.99 -42.14 c 4.051 -4.15 3.094 -2.325 35.92 -12.7 c 7.099 -2.245 19.409 -7.106 20.27 -7.601 c 9.185 19.855 28.548 19.105 32.33 19.521 c -11.02 3.397 -4.729 31.249 -3.77 40.96 c -0.163 -7.896 -3.465 -29.31 1.25 -36.84 c 0 0 0.648 -1.301 3.14 -2.38 c 6.946 -2.627 15.325 2.951 29.95 -7.34 c 4.758 -4.518 7.13 -7.39 7.13 -17.53 c 24.029 11.337 46.962 16.747 56.11 21.7 c -0.013 0.081 -0.05 0.414 -0.05 0.42 c -1.544 13.248 1.243 -1.169 -4.4 28.689 c -1.47 8.541 -0.406 5.667 -1.13 13.28 c 1.481 -7.851 -0.067 -3.756 2.12 -13.12 c 4.586 -19.338 3.858 -22.946 4.16 -29.39 c 3.326 -2.396 5.107 0.213 6.399 3.96 c 4.836 14.695 7.982 34.133 10.09 41.76 C 141.558 233.843 61.242 233.874 -4.591 234.455 Z M 107.847 202.681 c -3.239 1.259 -7.306 0.944 -10.905 0.433 C 103.167 202.238 107.208 202.645 107.847 202.681 Z" /></g><g id="svga-group-head" ><g id="svga-group-ears-left" ><path id="SvgjsPath3784" opacity="1" fill="#f0c7b1" stroke="#c27b55" stroke-width="1.5" d="M 45.443 82.722 c -1.469 -2.433 -6.648 -7.545 -10.31 -6.61 c -2.979 0.762 -6.032 3.243 -6.032 7.473 c -0.001 6.553 1.496 9.338 2.501 12.311 c 0.856 2.53 3.915 7.167 5.761 8.964 c 2.273 2.208 5.957 9.35 6.404 10.079 c 0.705 1.154 1.877 2.988 4.043 3.057 c 3.29 0.104 7.085 -2.105 7.323 -3.488 C 56.42 107.009 49.263 89.052 45.443 82.722 Z" /><path id="SvgjsPath3785" opacity="1" fill="#c27b55" stroke-width="none" d="M 43.596 99.086 c -0.142 -0.558 0.007 -1.495 0.152 -2.4 c 0.131 -0.826 0.255 -1.605 0.18 -2.157 c -0.285 -2.064 -1.892 -5.988 -2.942 -8.115 c -1.208 -2.446 -4.117 -5.528 -6.568 -6.322 c -1.013 -0.329 -1.681 0.064 -2.067 0.463 c -0.284 0.293 -0.347 0.637 -0.254 0.678 c 0.093 0.041 0.304 -0.244 0.61 -0.513 c 0.25 -0.22 0.617 -0.408 1.122 -0.369 c -0.203 1.028 -3.138 4.222 -1.381 10.392 c 0.822 2.888 1.992 5.214 2.202 5.549 c 0.032 0.352 0.083 0.696 0.159 1.031 c 0.991 4.357 7.286 11.54 8.785 13.162 c 0.277 0.3 0.567 0.477 0.639 0.406 c 0.072 -0.072 -0.1 -0.368 -0.376 -0.671 c -1.48 -1.611 -7.734 -8.777 -8.69 -12.981 c -1.754 -7.702 1.916 -7.832 4.499 -12.473 c 0.397 0.657 0.733 1.288 0.993 1.814 c 0.203 0.413 0.429 0.896 0.661 1.417 c -0.458 0.729 -5.059 6.055 -3.889 10.317 c 0.433 1.572 3.779 3.598 5.073 4.153 c 0.712 0.306 0.979 0.763 1.289 1.291 c 0.359 0.613 0.767 2.796 1.95 3.298 c 0.241 0.103 0.458 0.146 0.651 0.146 c 0.334 0 0.587 -0.128 0.774 -0.28 c 0.019 0.267 0.018 0.612 0.008 0.93 c -0.011 0.411 0.046 0.748 0.147 0.756 s 0.208 -0.317 0.221 -0.727 c 0.016 -0.504 0.014 -1.128 -0.077 -1.426 c -0.265 -0.88 -1.076 -1.871 -1.934 -2.921 C 44.688 102.503 43.815 99.947 43.596 99.086 Z M 34.616 95.223 c -2.322 -6.84 0.993 -12.744 1.514 -13.684 c 0.908 0.787 2.662 1.841 3.314 2.87 C 36.33 89.804 34.811 86.051 34.616 95.223 Z M 45.884 106.717 c -1.072 -0.455 -1.431 -2.555 -1.778 -3.147 c -0.314 -0.536 -0.639 -1.089 -1.461 -1.443 c -0.179 -0.077 -0.376 -0.194 -0.578 -0.328 c -3.861 -5.758 0.291 -8.626 1.027 -9.163 c 0.226 0.734 0.396 1.407 0.47 1.946 c 0.068 0.496 -0.058 1.284 -0.179 2.045 c -0.15 0.944 -0.306 1.92 -0.145 2.553 c 0.24 0.941 1.14 3.529 2.01 4.594 c 0.772 0.945 1.564 1.919 1.835 2.713 C 46.97 106.645 46.604 107.022 45.884 106.717 Z" /></g><g id="svga-group-ears-right" ><path id="SvgjsPath3786" opacity="1" fill="#f0c7b1" stroke="#c27b55" stroke-width="1.5" d="M 154.295 82.722 c 1.469 -2.433 6.648 -7.545 10.311 -6.61 c 2.979 0.762 6.031 3.243 6.031 7.473 c 0.002 6.553 -1.496 9.338 -2.5 12.311 c -0.857 2.53 -3.916 7.167 -5.762 8.964 c -2.273 2.208 -5.957 9.35 -6.404 10.079 c -0.705 1.154 -1.877 2.988 -4.043 3.057 c -3.291 0.104 -7.086 -2.105 -7.324 -3.488 C 143.318 107.009 150.475 89.052 154.295 82.722 Z" /><path id="SvgjsPath3787" opacity="1" fill="#c27b55" stroke-width="none" d="M 154.205 103.536 c -0.857 1.05 -1.668 2.041 -1.934 2.921 c -0.09 0.298 -0.092 0.922 -0.076 1.426 c 0.014 0.409 0.119 0.734 0.221 0.727 s 0.158 -0.345 0.146 -0.756 c -0.01 -0.317 -0.01 -0.663 0.01 -0.93 c 0.186 0.152 0.439 0.28 0.773 0.28 c 0.193 0 0.41 -0.043 0.65 -0.146 c 1.184 -0.502 1.592 -2.686 1.951 -3.298 c 0.311 -0.528 0.576 -0.985 1.289 -1.291 c 1.293 -0.555 4.639 -2.581 5.072 -4.153 c 1.17 -4.262 -3.432 -9.588 -3.889 -10.317 c 0.232 -0.522 0.457 -1.004 0.66 -1.417 c 0.26 -0.526 0.596 -1.157 0.994 -1.814 c 2.582 4.641 6.252 4.771 4.498 12.473 c -0.957 4.204 -7.209 11.37 -8.689 12.981 c -0.275 0.303 -0.447 0.599 -0.377 0.671 c 0.072 0.07 0.361 -0.106 0.639 -0.406 c 1.5 -1.622 7.795 -8.805 8.785 -13.162 c 0.076 -0.334 0.129 -0.679 0.16 -1.031 c 0.209 -0.334 1.379 -2.661 2.201 -5.549 c 1.758 -6.17 -1.178 -9.364 -1.381 -10.392 c 0.504 -0.039 0.871 0.149 1.123 0.369 c 0.305 0.269 0.518 0.553 0.609 0.513 c 0.094 -0.041 0.029 -0.385 -0.254 -0.678 c -0.387 -0.399 -1.055 -0.792 -2.068 -0.463 c -2.451 0.794 -5.359 3.876 -6.568 6.322 c -1.049 2.126 -2.656 6.05 -2.941 8.115 c -0.074 0.552 0.049 1.331 0.18 2.157 c 0.145 0.906 0.293 1.843 0.152 2.4 C 155.924 99.947 155.051 102.503 154.205 103.536 Z M 160.295 84.409 c 0.652 -1.029 2.406 -2.083 3.313 -2.87 c 0.521 0.939 3.836 6.843 1.516 13.684 C 164.928 86.051 163.408 89.804 160.295 84.409 Z M 152.652 106.486 c 0.271 -0.794 1.064 -1.768 1.836 -2.713 c 0.869 -1.065 1.77 -3.653 2.01 -4.594 c 0.16 -0.632 0.006 -1.608 -0.145 -2.553 c -0.121 -0.761 -0.248 -1.55 -0.18 -2.045 c 0.074 -0.539 0.244 -1.212 0.471 -1.946 c 0.734 0.537 4.887 3.405 1.025 9.163 c -0.201 0.134 -0.398 0.251 -0.578 0.328 c -0.822 0.354 -1.146 0.908 -1.461 1.443 c -0.346 0.592 -0.705 2.692 -1.777 3.147 C 153.135 107.022 152.768 106.645 152.652 106.486 Z" /></g><g id="svga-group-faceshape-wrap" ><g id="svga-group-faceshape-single" ><path id="SvgjsPath3206" opacity="1" fill="#f0c7b1" stroke-width="none" d="M 144.004 126.306 c -6.87 10.846 -23.072 30.329 -34.468 34.563 c -4.474 1.663 -14.594 1.663 -19.067 0 c -11.396 -4.235 -27.596 -23.719 -34.467 -34.563 c -6.753 -10.657 -14.852 -48.287 -14.863 -48.341 c -1.3 -4.961 -1.996 -10.168 -2.004 -15.538 C 39.082 28.614 66.289 1.169 99.907 1.116 c 33.621 -0.053 60.913 27.306 60.963 61.119 c 0.009 5.37 -0.669 10.579 -1.952 15.544 C 158.901 77.832 150.78 115.606 144.004 126.306 Z" /><path id="SvgjsPath3207" opacity="1" fill="#e8b9a0" stroke-width="none" d="M 110.152 1.978 c 26.994 6.303 47.097 30.644 47.052 59.708 c -0.009 5.369 -0.704 10.577 -2.004 15.537 c -0.012 0.054 -7.377 37.684 -14.13 48.341 c -6.872 10.844 -22.339 29.588 -33.734 33.823 c -1.476 0.549 -5.027 1.103 -7.334 1.103 c -2.307 0 -5.857 -0.554 -7.333 -1.103 c -11.396 -4.235 -26.863 -22.979 -33.734 -33.823 c -6.753 -10.657 -14.119 -48.287 -14.13 -48.341 c -1.3 -4.96 -1.996 -10.168 -2.004 -15.537 C 42.756 32.622 62.857 8.281 89.853 1.978 C 61.03 6.845 39.087 32.061 39.134 62.427 c 0.008 5.369 0.704 10.576 2.004 15.538 c 0.012 0.054 8.11 37.684 14.863 48.341 c 6.871 10.845 23.072 30.328 34.467 34.563 c 2.239 0.833 5.889 1.247 9.537 1.244 c 3.646 0.001 7.292 -0.411 9.53 -1.244 c 11.396 -4.235 27.596 -23.719 34.468 -34.563 c 6.753 -10.657 14.852 -48.287 14.862 -48.341 c 1.3 -4.961 1.996 -10.168 2.004 -15.538 C 160.918 32.061 138.975 6.845 110.152 1.978 Z" /><path id="SvgjsPath3208" opacity="1" fill="none" stroke="#c27b55" stroke-width="1.5" d="M 144.004 126.306 c -6.87 10.846 -23.072 30.329 -34.468 34.563 c -4.474 1.663 -14.594 1.663 -19.067 0 c -11.396 -4.235 -27.596 -23.719 -34.467 -34.563 c -6.753 -10.657 -14.852 -48.287 -14.863 -48.341 c -1.3 -4.961 -1.996 -10.168 -2.004 -15.538 C 39.082 28.614 66.289 1.169 99.907 1.116 c 33.621 -0.053 60.913 27.306 60.963 61.119 c 0.009 5.37 -0.669 10.579 -1.952 15.544 C 158.901 77.832 150.78 115.606 144.004 126.306 Z" /></g></g><g id="svga-group-mouth-single" ><path id="SvgjsPath4178" opacity="1" fill="url(#SvgjsLinearGradient4179)" d="M 99.825 142.068 c -3.24 0 -4.753 -2.802 -4.753 -2.802 s 4.797 0.781 9.279 -0.064 C 104.352 139.202 102.675 142.068 99.825 142.068 Z" /><path id="SvgjsPath4182" opacity="1" fill="#c27b55" stroke-width="none" d="M 95.211 139.349 c -0.132 -0.039 -0.23 -0.149 -0.208 -0.285 c 0.021 -0.137 0.151 -0.224 0.286 -0.209 c 3.612 0.857 5.963 0.661 8.766 -0.043 c 0.145 -0.035 0.27 0.062 0.297 0.195 s -0.063 0.256 -0.193 0.296 C 101.098 140.207 98.142 140.241 95.211 139.349 Z M 85.447 133.958 c 0.313 -0.144 0.582 -0.086 1.073 -0.115 c 1.419 -0.249 3.128 -0.323 4.54 -0.611 c 1.348 -0.274 2.774 -0.662 4.158 -0.597 c 1.488 0.071 2.879 0.669 4.353 0.829 c 1.401 0.151 2.708 -0.229 4.053 -0.557 c 1.542 -0.376 3.01 -0.287 4.56 0.006 c 1.938 0.363 3.774 0.857 5.689 1.038 c 0.582 0.055 0.365 0.413 0.032 0.454 c -1.713 0.205 -3.431 -0.068 -5.194 -0.249 c -1.425 -0.146 -2.868 -0.329 -4.274 0.021 c -1.518 0.379 -3.437 0.822 -4.605 0.808 c -1.3 -0.017 -2.521 -0.538 -3.784 -0.807 c -1.551 -0.327 -3.091 -0.02 -4.647 0.143 c -1.938 0.201 -3.672 0.34 -5.579 0.047 C 85.312 134.29 85.306 134.023 85.447 133.958 Z" /></g><g id="svga-group-eyes-left" ><g id="svga-group-eyesback-left"><path id="SvgjsPath4106" opacity="1" fill="url(#SvgjsRadialGradient4107)" d="M 78.863 89.23 c -4.31 0.755 -7.656 0.71 -10.688 -0.204 c -3.127 -0.943 -7.188 -4.825 -8.596 -8.495 c 3.715 -0.277 11.349 -0.597 14.89 -0.154 c 4.688 0.586 9.474 2.406 12.305 5.236 c -0.016 0.294 -0.053 0.583 -0.087 0.872 C 84.401 88.032 81.166 88.826 78.863 89.23 Z" /></g><g id="svga-group-eyesiriswrapper-left" transform="translate(0.25 0.25)"><g id="svga-group-eyesiriscontrol-left" ><g id="svga-group-eyesiris-left" ><path id="SvgjsPath4096" opacity="1" fill="#4e60a3" stroke="#152975" stroke-width="0.5" d="M 79.788 85.588 c -0.869 3.192 -4.162 5.073 -7.361 4.196 c -3.197 -0.876 -5.084 -4.178 -4.214 -7.371 c 0.869 -3.195 4.168 -5.076 7.365 -4.198 C 78.772 79.09 80.659 82.392 79.788 85.588 Z" /><path id="SvgjsPath4097" opacity="0.7" fill="url(#SvgjsLinearGradient4098)" d="M 78.717 82.673 c -0.569 0.873 -2.036 0.925 -3.276 0.117 c -1.24 -0.808 -1.784 -2.17 -1.215 -3.043 c 0.568 -0.872 2.036 -0.924 3.276 -0.117 C 78.74 80.439 79.284 81.802 78.717 82.673 L 78.717 82.673 Z" /></g></g></g><g id="svga-group-eyesfront-left"><path id="SvgjsPath4131" opacity="1" fill="#f0c7b1" stroke-width="none" d="M 55.8 85.001 c 0 13.808 8.06 24.999 18 24.999 s 18 -11.191 18 -24.999 C 91.8 71.192 83.74 60 73.8 60 S 55.8 71.192 55.8 85.001 Z M 59.58 80.531 c 3.715 -0.277 11.349 -0.597 14.89 -0.154 c 4.952 0.619 10.04 2.6 12.788 5.71 c -2.289 1.82 -5.897 2.705 -8.395 3.143 c -4.31 0.755 -7.656 0.71 -10.688 -0.204 C 65.049 88.083 60.988 84.201 59.58 80.531 Z" /><path id="SvgjsPath4132" opacity="1" fill="url(#SvgjsRadialGradient4133)" d="M 55.942 83.916 c 0.027 8.284 8.484 14.962 18.902 14.919 c 10.414 -0.047 18.836 -6.796 18.813 -15.08 c -0.027 -8.285 -8.486 -14.963 -18.902 -14.92 C 64.339 68.882 55.919 75.631 55.942 83.916 Z M 59.58 80.531 c 3.715 -0.277 11.349 -0.597 14.89 -0.154 c 4.952 0.619 10.04 2.6 12.788 5.71 c -2.289 1.82 -5.897 2.705 -8.395 3.143 c -4.31 0.755 -7.656 0.71 -10.688 -0.204 C 65.049 88.083 60.988 84.201 59.58 80.531 Z" /><path id="SvgjsPath4137" opacity="1" fill="url(#SvgjsRadialGradient4138)" d="M 59.58 80.531 c 3.715 -0.277 11.349 -0.597 14.89 -0.154 c 4.952 0.619 10.04 2.6 12.788 5.71 c -2.289 1.82 -5.897 2.705 -8.395 3.143 c -4.31 0.755 -7.656 0.71 -10.688 -0.204 C 65.049 88.083 60.988 84.201 59.58 80.531 Z" /><path id="SvgjsPath4141" opacity="1" fill="#c27b55" stroke-width="none" d="M 67.563 77.096 c 10.603 -0.48 13.849 1.478 18.339 4.3 C 78.442 77.023 69.03 77.042 67.563 77.096 Z M 59.597 84.153 c 2.854 5.494 4.797 4.894 7.531 6.058 c 0.025 0.009 -1.51 -0.579 -2.664 -1.196 C 61.474 87.296 61.108 86.564 59.597 84.153 Z" /><path id="SvgjsPath4142" opacity="1" fill="#000000" stroke-width="none" d="M 58.468 79.966 c 2.857 5.992 4.761 9.926 14.332 10.071 c 7.283 0.109 11.794 -0.564 15.584 -3.374 c -3.395 -5.194 -7.754 -6.771 -13.57 -7.358 C 68.915 78.709 58.468 79.966 58.468 79.966 Z M 60.505 80.827 c 3.467 -0.258 10.59 -0.557 13.895 -0.144 c 4.621 0.577 9.369 2.426 11.934 5.328 c -2.137 1.699 -5.504 2.524 -7.834 2.933 c -4.021 0.705 -7.145 0.663 -9.973 -0.19 C 65.608 87.875 61.819 84.252 60.505 80.827 Z" /></g></g><g id="svga-group-eyes-right" ><g id="svga-group-eyesback-right"><path id="SvgjsPath4114" opacity="1" fill="url(#SvgjsRadialGradient4115)" d="M 120.737 89.23 c 4.31 0.755 7.656 0.71 10.688 -0.204 c 3.127 -0.943 7.188 -4.825 8.596 -8.495 c -3.715 -0.277 -11.349 -0.597 -14.89 -0.154 c -4.688 0.586 -9.474 2.406 -12.305 5.236 c 0.016 0.294 0.053 0.583 0.087 0.872 C 115.199 88.032 118.435 88.826 120.737 89.23 Z" /></g><g id="svga-group-eyesiriswrapper-right" transform="translate(-0.25 0.25)"><g id="svga-group-eyesiriscontrol-right" ><g id="svga-group-eyesiris-right" ><path id="SvgjsPath4101" opacity="1" fill="#4e60a3" stroke="#152975" stroke-width="0.5" d="M 131.788 85.588 c -0.869 3.192 -4.162 5.073 -7.362 4.196 c -3.196 -0.876 -5.084 -4.178 -4.214 -7.371 c 0.869 -3.195 4.169 -5.076 7.365 -4.198 C 130.772 79.09 132.658 82.392 131.788 85.588 Z" /><path id="SvgjsPath4102" opacity="0.7" fill="url(#SvgjsLinearGradient4103)" d="M 130.717 82.673 c -0.569 0.873 -2.036 0.925 -3.276 0.117 c -1.239 -0.808 -1.784 -2.17 -1.215 -3.043 c 0.568 -0.872 2.035 -0.924 3.275 -0.117 C 130.74 80.439 131.284 81.802 130.717 82.673 L 130.717 82.673 Z" /></g></g></g><g id="svga-group-eyesfront-right"><path id="SvgjsPath4152" opacity="1" fill="#f0c7b1" stroke-width="none" d="M 125.801 60 c -9.94 0 -18 11.193 -18 25.001 c 0 13.808 8.06 24.999 18 24.999 s 18 -11.191 18 -24.999 C 143.801 71.192 135.741 60 125.801 60 Z M 131.425 89.026 c -3.031 0.914 -6.378 0.959 -10.688 0.204 c -2.497 -0.438 -6.105 -1.323 -8.395 -3.143 c 2.748 -3.11 7.836 -5.091 12.788 -5.71 c 3.541 -0.443 11.175 -0.123 14.89 0.154 C 138.612 84.201 134.552 88.083 131.425 89.026 Z" /><path id="SvgjsPath4153" opacity="1" fill="url(#SvgjsRadialGradient4154)" d="M 124.846 68.835 c -10.416 -0.043 -18.875 6.635 -18.902 14.92 c -0.023 8.284 8.398 15.033 18.813 15.08 c 10.418 0.043 18.875 -6.635 18.902 -14.919 C 143.682 75.631 135.262 68.882 124.846 68.835 Z M 131.425 89.026 c -3.031 0.914 -6.378 0.959 -10.688 0.204 c -2.497 -0.438 -6.105 -1.323 -8.395 -3.143 c 2.748 -3.11 7.836 -5.091 12.788 -5.71 c 3.541 -0.443 11.175 -0.123 14.89 0.154 C 138.612 84.201 134.552 88.083 131.425 89.026 Z" /><path id="SvgjsPath4158" opacity="1" fill="url(#SvgjsRadialGradient4159)" d="M 140.021 80.531 c -3.715 -0.277 -11.349 -0.597 -14.89 -0.154 c -4.952 0.619 -10.04 2.6 -12.788 5.71 c 2.289 1.82 5.897 2.705 8.395 3.143 c 4.31 0.755 7.656 0.71 10.688 -0.204 C 134.552 88.083 138.612 84.201 140.021 80.531 Z" /><path id="SvgjsPath4162" opacity="1" fill="#c27b55" stroke-width="none" d="M 113.697 81.396 c 4.491 -2.822 7.736 -4.781 18.34 -4.3 C 130.57 77.042 121.158 77.023 113.697 81.396 Z M 135.137 89.016 c -1.154 0.617 -2.689 1.205 -2.664 1.196 c 2.734 -1.164 4.678 -0.564 7.531 -6.058 C 138.492 86.564 138.127 87.296 135.137 89.016 Z" /><path id="SvgjsPath4163" opacity="1" fill="#000000" stroke-width="none" d="M 124.787 79.305 c -5.816 0.587 -10.176 2.165 -13.57 7.358 c 3.79 2.809 8.301 3.483 15.584 3.374 c 9.57 -0.145 11.474 -4.079 14.331 -10.071 C 141.132 79.966 130.686 78.709 124.787 79.305 Z M 131.074 88.754 c -2.828 0.853 -5.951 0.895 -9.973 0.19 c -2.33 -0.409 -5.697 -1.234 -7.834 -2.933 c 2.564 -2.902 7.313 -4.751 11.934 -5.328 c 3.305 -0.413 10.428 -0.114 13.895 0.144 C 137.781 84.252 133.992 87.875 131.074 88.754 Z" /></g></g><g id="svga-group-facehighlight-single" ><path id="SvgjsPath2885" opacity="1" fill="url(#SvgjsRadialGradient2886)" d="M 141 113.974 c 0.035 22.622 -18.292 40.994 -40.938 41.025 c -22.642 0.037 -41.028 -18.273 -41.063 -40.9 c -0.035 -22.62 18.292 -41.064 40.937 -41.1 C 122.579 72.964 140.967 91.349 141 113.974 Z" /><path id="SvgjsPath2889" opacity="1" fill="url(#SvgjsRadialGradient2890)" d="M 137.5 53.999 c 0 20.711 -16.789 37.5 -37.499 37.5 c -20.711 0 -37.501 -16.789 -37.501 -37.5 s 16.79 -37.5 37.501 -37.5 C 120.711 16.499 137.5 33.288 137.5 53.999 Z" /></g><g id="svga-group-eyebrows-left" transform="rotate(7.5 72.6685 71.0502)" ><path id="SvgjsPath4094" opacity="1" fill="#2a232b" stroke-width="none" d="M 55.992 72.441 c 14.723 -3.028 32.888 2.77 33.336 -0.649 c 0.164 -1.252 -0.892 -1.729 -1.755 -1.795 C 72.692 68.733 60.5 68.555 55.992 72.441 Z" /></g><g id="svga-group-eyebrows-right" transform="rotate(-7.5 127.332 71.0502)" ><path id="SvgjsPath4095" opacity="1" fill="#2a232b" stroke-width="none" d="M 144.008 72.441 c -14.724 -3.028 -32.888 2.77 -33.336 -0.649 c -0.164 -1.252 0.892 -1.729 1.755 -1.795 C 127.308 68.733 139.5 68.555 144.008 72.441 Z" /></g><g id="svga-group-nose-single" ><path id="SvgjsPath3213" opacity="1" fill="#e1ac8f" stroke-width="none" d="M 91.115 115.499 c -0.878 2.064 5.934 4.292 8.519 4.429 c 2.8 0.147 10.646 -2.9 9.316 -4.992 c -1.399 -2.195 -6.643 -0.286 -8.906 -0.286 C 97.792 114.649 92.291 112.745 91.115 115.499 Z" /><path id="SvgjsPath3214" opacity="1" fill="#c27b55" stroke-width="none" d="M 101.857 117.058 c -0.23 -0.759 1.876 -1.584 2.657 -1.694 c 1.101 -0.16 3.36 0.802 3.158 1.592 c -0.184 0.698 -2.148 -0.533 -2.86 -0.429 C 104.078 116.634 102.075 117.769 101.857 117.058 Z M 94.974 116.811 c 0.968 0 2.404 0.623 2.668 0.074 c 0.315 -0.655 -2.139 -1.461 -2.86 -1.372 c -0.596 0.07 -2.733 1.315 -2.439 1.839 C 92.617 117.833 93.698 116.811 94.974 116.811 Z" /><path id="SvgjsPath3215" opacity="0.2" fill="#fff5ef" stroke-width="none" d="M 100.089 111.999 c 0.607 0 1.742 -0.74 1.792 -2.23 c 0.201 -6.008 -0.956 -23.833 -1.792 -23.77 c -0.78 0.059 -2.267 17.637 -1.948 23.77 C 98.22 111.271 99.404 111.999 100.089 111.999 Z" /></g><g id="svga-group-beardwrap" ><g id="svga-group-beard-single" ><path id="SvgjsPath4168" opacity="1" fill="#2a232b" stroke-width="none" d="M 93.82 138.68 c 3.68 -1.48 3.65 -0.37 8.15 -0.68 c 1.53 -0.11 3.03 -0.06 4.35 0.95 c -1 1.27 -4.59 5.67 -5.85 8.45 C 97.11 142.06 96.66 141.51 93.82 138.68 Z" /><path id="SvgjsPath4169" opacity="1" fill="#1b141c" stroke-width="none" d="M 98.35 142.37 c -1.25 -2.36 -1.09 -2.01 -1.93 -3.28 C 97.33 140.03 97.81 140.55 98.35 142.37 Z M 98.54 139.48 c 0.14 0.76 1.02 4.55 1.26 5.32 C 99.64 142.54 99.36 141.49 98.54 139.48 Z M 100.21 139.37 c -0.06 -0.27 -0.01 -0.47 -0.01 -0.47 s -0.09 0.2 -0.07 0.48 c 0.03 0.74 0.17 1.7 0.17 1.7 c 0.04 0.53 0.17 1.33 0.17 1.33 C 100.51 141.37 100.49 140.74 100.21 139.37 Z M 102.24 139.4 c -0.84 1.67 -1.14 2.6 -1.04 4.86 C 101.56 141.9 101.6 141.57 102.24 139.4 Z M 104.09 139.09 c -0.8 0.52 -1.37 1.75 -1.12 3.04 C 102.98 140.97 103.51 139.71 104.09 139.09 Z" /><path id="SvgjsPath4170" opacity="1" fill="#0c080c" stroke-width="none" d="M 101.72 137.92 c -3.64 0.42 -3.98 -0.96 -8.08 0.73 c 3.17 3.14 3.42 3.56 6.84 8.97 c 1.21 -2.82 5.17 -7.68 5.98 -8.68 C 104.78 137.59 102.72 137.85 101.72 137.92 Z M 100.33 146.99 c -1.41 -2.48 -2.24 -4.25 -3.68 -5.79 c -0.09 -0.09 -2.47 -2.43 -2.6 -2.43 c 3.5 -1.07 2.57 -0.1 9.25 -0.48 c 0.96 0.05 2 0.2 2.84 0.7 c -3.69 3.82 -2.92 3.72 -4.59 5.85 C 101.03 145.51 100.56 146.14 100.33 146.99 Z" /></g></g><g id="svga-group-mustache-single" ><path id="SvgjsPath3452" opacity="1" fill="#2a232b" stroke-width="none" d="M 102.33 124.84 c -0.64 -0.1 -1.76 -0.16 -2.25 0.27 c -0.03 0.03 -0.05 0.05 -0.08 0.08 c -0.03 -0.03 -0.05 -0.06 -0.08 -0.08 c -0.49 -0.42 -1.61 -0.37 -2.25 -0.27 L 75.2 130.4 l 22.66 -0.87 c 0.61 0.03 1.2 -0.19 1.64 -0.62 c 0.21 -0.21 0.78 -0.21 1 0 c 0.44 0.42 1.03 0.64 1.64 0.62 l 22.66 0.87 L 102.33 124.84 Z" /></g><g id="svga-group-hair-front" ><path id="SvgjsPath3442" opacity="1" fill="#2a232b" stroke-width="none" d="M 162.973 40.273 C 147.94 -14.754 61.012 -21.557 36.378 40.045 c -11.02 27.558 15.94 73.711 15.94 73.711 c -0.962 -6.957 -4.86 -37.856 -4.86 -37.856 c 0 -2 1.915 -4.507 2.272 -5.973 c 1.718 -7.055 -4.882 -16.666 -2.272 -28.859 c 2.222 -10.38 5.558 -17.637 15.408 -23.673 c 13.231 -8.108 20.458 5.525 26.34 9.323 c 4.617 2.98 17.091 3.121 21.972 0.597 c 6.122 -3.166 14.95 -14.205 24.761 -11.017 c 11.622 3.776 16.601 19.828 17.03 22.789 c 0.916 8.798 -4.469 26.247 -2.699 30.84 c 0.504 1.309 1.617 3.689 1.898 4.807 c 1.16 4.612 -4.088 39.009 -4.088 39.009 S 170.468 67.708 162.973 40.273 Z" /><path id="SvgjsPath3443" opacity="1" fill="#1b141c" stroke-width="none" d="M 137.697 13.5 C 127.979 8.857 119 17 110 23 c -13.773 7.069 -21 -5 -32 -10 c -9 -5 -21 3 -28 12 c -10.24 15.824 -7.005 28.784 -3.229 45.535 c -3.841 3.196 2.723 27.464 5.036 39.4 C 50.406 99.271 47.458 75.9 47.458 75.9 c 0 -0.415 0.096 -0.854 0.229 -1.299 c 0.511 -1.699 1.76 -3.512 2.042 -4.674 c 1.718 -7.055 -4.882 -16.666 -2.272 -28.859 c 2.222 -10.38 5.558 -17.637 15.408 -23.673 c 13.231 -8.108 20.458 5.525 26.34 9.323 c 4.617 2.98 17.091 3.121 21.972 0.597 c 6.122 -3.166 14.95 -14.205 24.761 -11.017 c 11.622 3.776 16.601 19.828 17.03 22.789 c 0.916 8.798 -4.469 26.247 -2.699 30.84 c 0.504 1.309 1.617 3.689 1.898 4.807 c 0.037 0.146 0.066 0.323 0.091 0.527 c 0.001 -0.016 0.003 -0.032 0.005 -0.047 c 0.54 4.834 -2.166 24.674 -3.489 33.824 c 3.99 -18.04 8.449 -34.593 4.355 -41.351 C 156.869 45.402 161.567 24.902 137.697 13.5 Z" /><path id="SvgjsPath3444" opacity="1" fill="#000000" stroke-width="none" d="M 148.08 113.744 c 8.659 -21.56 17.811 -48.317 13.182 -72.508 c -1.357 -4.808 -3.467 -12.578 -12.334 -22.463 C 115.737 -18.332 59.483 -6.218 39.958 35.8 c -11.417 24.404 -0.214 54.246 12.359 77.957 c -11.042 -19.293 -16.693 -32.944 -18.75 -54.101 c -0.622 -7.079 0.718 -16.492 4.499 -24.868 c 15.194 -33.563 54.39 -49.58 87.349 -35.863 c 13.259 5.328 27.885 17.106 35.03 32.893 c 4.882 10.828 4.249 20.507 3.181 32.421 c -0.771 6.491 -3.043 16.094 -3.617 17.865 c -2.544 8.367 -0.627 2.872 -4.759 14.623 C 152.264 104.495 150.642 107.987 148.08 113.744 Z" /></g><g id="svga-group-glasses-single" ><path id="SvgjsPath4164" opacity="0.2" fill="#ffffff" stroke-width="none" d="M 52.7 78.99 c 11.69 3.22 28.34 -0.15 40.03 7.14 c -0.08 0.44 -0.16 0.87 -0.25 1.31 c -0.64 2.91 -3.23 4.82 -6.36 5.38 c -8.44 1.51 -22.57 1.32 -30.84 0.74 c -1.19 -0.08 -2.16 -0.9 -2.36 -2 C 52.11 87.2 51.8 83.54 52.7 78.99 Z M 106.69 80.35 c 0.05 2.48 0.32 4.73 0.83 7.1 c 0.63 2.91 3.23 4.82 6.36 5.38 c 8.44 1.51 22.57 1.32 30.84 0.74 c 1.19 -0.08 2.16 -0.9 2.36 -2 c 0.31 -1.69 0.55 -3.28 0.67 -4.85 c -11.7 -8.04 -28.85 -4.44 -40.84 -7.71 C 106.77 79.44 106.68 79.89 106.69 80.35 Z" /><path id="SvgjsPath4165" opacity="0.4" fill="#ffffff" stroke-width="none" d="M 93.31 80.35 c -0.05 2.02 -0.24 3.88 -0.58 5.78 c -11.69 -7.3 -28.35 -3.92 -40.03 -7.14 c 0.03 -0.12 0.04 -0.24 0.07 -0.37 c 0.26 -1.24 1.34 -2.15 2.68 -2.28 c 12.7 -1.18 21.35 -1.08 33.89 -0.11 C 91.61 76.42 93.36 78.22 93.31 80.35 Z M 147.24 78.63 c -0.26 -1.24 -1.34 -2.15 -2.68 -2.28 c -12.7 -1.18 -21.35 -1.08 -33.89 -0.11 c -1.78 0.14 -3.22 1.27 -3.75 2.78 c 11.98 3.27 29.14 -0.33 40.84 7.71 C 147.96 84.13 147.85 81.57 147.24 78.63 Z" /><path id="SvgjsPath4166" opacity="1" fill="#26120b" stroke-width="none" d="M 153 78.74 h -5.22 c -0.02 -0.07 -0.02 -0.14 -0.04 -0.21 c -0.3 -1.44 -1.57 -2.52 -3.13 -2.67 c -12.9 -1.2 -21.6 -1.07 -33.98 -0.11 c -0.15 0.01 -0.29 0.05 -0.43 0.07 l 0.03 -0.03 c 0 0 -0.12 0.03 -0.33 0.08 c -0.09 0.02 -0.19 0.04 -0.28 0.06 c -1.08 0.24 -3.42 0.7 -5.37 0.76 c -3.91 0.12 -4.75 0.11 -8.5 0 c -1.95 -0.06 -4.29 -0.52 -5.37 -0.76 c -0.09 -0.03 -0.18 -0.04 -0.28 -0.06 c -0.21 -0.05 -0.33 -0.08 -0.33 -0.08 l 0.03 0.03 c -0.14 -0.02 -0.28 -0.06 -0.43 -0.07 c -12.39 -0.96 -21.09 -1.09 -33.98 0.11 c -1.56 0.15 -2.83 1.23 -3.13 2.67 c -0.02 0.07 -0.02 0.14 -0.04 0.21 H 47 v 2.92 h 4.79 c -0.17 1.7 -0.19 3.33 -0.07 4.97 h 1.06 c -0.2 -2.54 -0.09 -5.05 0.51 -7.92 c 0.21 -1.02 1.1 -1.78 2.21 -1.88 c 6.3 -0.59 11.69 -0.86 16.98 -0.86 c 4.97 0 9.99 0.22 16.81 0.75 c 2 0.15 3.53 1.74 3.49 3.61 c -0.05 2.2 -0.28 4.22 -0.69 6.29 h 1.07 c 0.39 -2.02 0.62 -4.02 0.67 -6.27 c 0.01 -0.66 -0.13 -1.28 -0.39 -1.85 c 0.33 -0.07 0.85 -0.16 1.51 -0.21 c 2.51 -0.18 8.07 -0.14 10.11 0 c 0.66 0.05 1.19 0.14 1.51 0.21 c -0.26 0.57 -0.41 1.19 -0.39 1.85 c 0.05 2.25 0.28 4.25 0.67 6.27 h 1.07 c -0.41 -2.07 -0.64 -4.09 -0.68 -6.29 c -0.04 -1.87 1.49 -3.46 3.49 -3.61 c 6.82 -0.53 11.84 -0.75 16.81 -0.75 c 5.29 0 10.69 0.27 16.98 0.86 c 1.11 0.1 2 0.86 2.21 1.88 c 0.6 2.87 0.71 5.38 0.51 7.92 h 1.05 c 0.13 -1.64 0.1 -3.27 -0.07 -4.97 H 153 V 78.74 Z" /></g></g></g><rect id="SvgjsRect1036" style="display:none;" opacity="0.5" fill="#ecf0f1" x="0" y="185" width="200" height="15" /><text id="SvgjsText1037" font-family="&quot;Roboto&quot;,&quot;Helvetica Neue&quot;,Helvetica,Arial,sans-serif" font-size="0.84em" font-weight="400" style="font-size:0.84em;font-family:&quot;Roboto&quot;, &quot;Helvetica Neue&quot;, Helvetica, Arial, sans-serif;text-anchor:middle;font-weight:400;display:none;" fill="#000000" text-anchor="middle" x="100" y="185"><tspan id="SvgjsTspan1038" style="font-size:0.84em;font-family:&quot;Roboto&quot;, &quot;Helvetica Neue&quot;, Helvetica, Arial, sans-serif;text-anchor:middle;font-weight:400;" x="100" dy="1.2em">Created on AvatarMaker.com</tspan></text></g><defs id="SvgjsDefs1001"><radialGradient class="svga-on-canvas-facehighlight-gradient-single-0" id="SvgjsRadialGradient2886" gradientUnits="userSpaceOnUse" cx="100" cy="114" r="41"><stop id="SvgjsStop2887" stop-color="rgb(255, 228, 214)" stop-opacity="0.5" offset="0" /><stop id="SvgjsStop2888" stop-color="rgb(240, 199, 177)" stop-opacity="0" offset="0.9" /></radialGradient><radialGradient class="svga-on-canvas-facehighlight-gradient-single-1" id="SvgjsRadialGradient2890" gradientUnits="userSpaceOnUse" cx="100" cy="54" r="37"><stop id="SvgjsStop2891" stop-color="rgb(255, 228, 214)" stop-opacity="0.5" offset="0" /><stop id="SvgjsStop2892" stop-color="rgb(240, 199, 177)" stop-opacity="0" offset="0.9" /></radialGradient><linearGradient class="svga-on-canvas-chinshadow-gradient-single-0" id="SvgjsLinearGradient3210" gradientUnits="userSpaceOnUse" x1="100" y1="171" x2="100" y2="128"><stop id="SvgjsStop3211" stop-color="rgb(225, 172, 143)" stop-opacity="0.8" offset="0" /><stop id="SvgjsStop3212" stop-color="rgb(194, 123, 85)" stop-opacity="1" offset="0.7" /></linearGradient><radialGradient class="svga-on-canvas-eyesiris-gradient-left-2" id="SvgjsRadialGradient3552" gradientUnits="userSpaceOnUse" gradientTransform="matrix(0.0991, 0.000885632, -0.0011, 0.0991, 131.113, 135.986)" cx="-582.838" cy="-519.099" r="59.745"><stop id="SvgjsStop3553" stop-color="rgb(255, 255, 255)" stop-opacity="1" offset="0" /><stop id="SvgjsStop3554" stop-color="rgb(255, 255, 255)" stop-opacity="0" offset="1" /></radialGradient><linearGradient class="svga-on-canvas-eyesiris-gradient-left-5" id="SvgjsLinearGradient3558" gradientUnits="userSpaceOnUse" gradientTransform="matrix(1, 0, 0, 1, -52, 0)" x1="122.67" y1="88.268" x2="123.606" y2="87.152"><stop id="SvgjsStop3559" stop-color="rgb(255, 255, 255)" stop-opacity="1" offset="0" /><stop id="SvgjsStop3560" stop-color="rgb(255, 255, 255)" stop-opacity="0" offset="1" /></linearGradient><linearGradient class="svga-on-canvas-eyesiris-gradient-left-7" id="SvgjsLinearGradient3566" gradientUnits="userSpaceOnUse" gradientTransform="matrix(1, 0, 0, 1, -52, 0)" x1="129.636" y1="79.822" x2="127.91" y2="81.879"><stop id="SvgjsStop3567" stop-color="rgb(255, 255, 255)" stop-opacity="1" offset="0" /><stop id="SvgjsStop3568" stop-color="rgb(255, 255, 255)" stop-opacity="0" offset="1" /></linearGradient><radialGradient class="svga-on-canvas-eyesiris-gradient-right-2" id="SvgjsRadialGradient3575" gradientUnits="userSpaceOnUse" gradientTransform="matrix(0.0991, 0.000885632, -0.0011, 0.0991, 183.113, 135.986)" cx="-582.833" cy="-519.102" r="59.747"><stop id="SvgjsStop3576" stop-color="rgb(255, 255, 255)" stop-opacity="1" offset="0" /><stop id="SvgjsStop3577" stop-color="rgb(255, 255, 255)" stop-opacity="0" offset="1" /></radialGradient><linearGradient class="svga-on-canvas-eyesiris-gradient-right-5" id="SvgjsLinearGradient3581" gradientUnits="userSpaceOnUse" x1="122.67" y1="88.268" x2="123.606" y2="87.152"><stop id="SvgjsStop3582" stop-color="rgb(255, 255, 255)" stop-opacity="1" offset="0" /><stop id="SvgjsStop3583" stop-color="rgb(255, 255, 255)" stop-opacity="0" offset="1" /></linearGradient><linearGradient class="svga-on-canvas-eyesiris-gradient-right-7" id="SvgjsLinearGradient3589" gradientUnits="userSpaceOnUse" x1="129.636" y1="79.822" x2="127.91" y2="81.879"><stop id="SvgjsStop3590" stop-color="rgb(255, 255, 255)" stop-opacity="1" offset="0" /><stop id="SvgjsStop3591" stop-color="rgb(255, 255, 255)" stop-opacity="0" offset="1" /></linearGradient><linearGradient class="svga-on-canvas-eyesiris-gradient-left-6" id="SvgjsLinearGradient3611" gradientUnits="userSpaceOnUse" gradientTransform="matrix(1, 0, 0, 1, -50, 0)" x1="132" y1="78" x2="126" y2="84"><stop id="SvgjsStop3612" stop-color="rgb(255, 255, 255)" stop-opacity="1" offset="0" /><stop id="SvgjsStop3613" stop-color="rgb(255, 255, 255)" stop-opacity="0" offset="1" /></linearGradient><linearGradient class="svga-on-canvas-eyesiris-gradient-right-6" id="SvgjsLinearGradient3621" gradientUnits="userSpaceOnUse" x1="132" y1="78" x2="126" y2="84"><stop id="SvgjsStop3622" stop-color="rgb(255, 255, 255)" stop-opacity="1" offset="0" /><stop id="SvgjsStop3623" stop-color="rgb(255, 255, 255)" stop-opacity="0" offset="1" /></linearGradient><linearGradient class="svga-on-canvas-glasses-gradient-single-0" id="SvgjsLinearGradient3902" gradientUnits="userSpaceOnUse" x1="100" y1="70" x2="100" y2="108"><stop id="SvgjsStop3903" stop-color="rgb(13, 23, 10)" stop-opacity="1" offset="0" /><stop id="SvgjsStop3904" stop-color="rgb(13, 23, 10)" stop-opacity="0.5" offset="1" /></linearGradient><linearGradient class="svga-on-canvas-glasses-gradient-single-1" id="SvgjsLinearGradient3935" gradientUnits="userSpaceOnUse" x1="128" y1="106" x2="128" y2="69"><stop id="SvgjsStop3936" stop-color="rgb(38, 18, 11)" stop-opacity="0.95" offset="0" /><stop id="SvgjsStop3937" stop-color="rgb(38, 18, 11)" stop-opacity="1" offset="1" /></linearGradient><linearGradient class="svga-on-canvas-glasses-gradient-single-2" id="SvgjsLinearGradient3939" gradientUnits="userSpaceOnUse" x1="72" y1="106" x2="72" y2="69"><stop id="SvgjsStop3940" stop-color="rgb(38, 18, 11)" stop-opacity="0.95" offset="0" /><stop id="SvgjsStop3941" stop-color="rgb(38, 18, 11)" stop-opacity="1" offset="1" /></linearGradient><linearGradient class="svga-on-canvas-eyesiris-gradient-left-1" id="SvgjsLinearGradient4098" gradientUnits="userSpaceOnUse" gradientTransform="matrix(1, 0, 0, 1, -50, 0)" x1="127.637" y1="79.822" x2="125.91" y2="81.88"><stop id="SvgjsStop4099" stop-color="rgb(255, 255, 255)" stop-opacity="1" offset="0" /><stop id="SvgjsStop4100" stop-color="rgb(255, 255, 255)" stop-opacity="0" offset="1" /></linearGradient><linearGradient class="svga-on-canvas-eyesiris-gradient-right-1" id="SvgjsLinearGradient4103" gradientUnits="userSpaceOnUse" x1="129.637" y1="79.823" x2="127.91" y2="81.881"><stop id="SvgjsStop4104" stop-color="rgb(255, 255, 255)" stop-opacity="1" offset="0" /><stop id="SvgjsStop4105" stop-color="rgb(255, 255, 255)" stop-opacity="0" offset="1" /></linearGradient><radialGradient class="svga-on-canvas-eyesback-gradient-left-0" id="SvgjsRadialGradient4107" gradientUnits="userSpaceOnUse" gradientTransform="matrix(-1, 0, 0, 1, 200, 0)" cx="127.199" cy="84.835" r="14"><stop id="SvgjsStop4108" stop-color="rgb(255, 255, 255)" stop-opacity="1" offset="0" /><stop id="SvgjsStop4109" stop-color="rgb(253, 254, 254)" stop-opacity="1" offset="0.544" /><stop id="SvgjsStop4110" stop-color="rgb(246, 248, 249)" stop-opacity="1" offset="0.74" /><stop id="SvgjsStop4111" stop-color="rgb(234, 239, 242)" stop-opacity="1" offset="0.879" /><stop id="SvgjsStop4112" stop-color="rgb(217, 227, 232)" stop-opacity="1" offset="0.992" /><stop id="SvgjsStop4113" stop-color="rgb(216, 226, 231)" stop-opacity="1" offset="1" /></radialGradient><radialGradient class="svga-on-canvas-eyesback-gradient-right-0" id="SvgjsRadialGradient4115" gradientUnits="userSpaceOnUse" cx="126.801" cy="84.835" r="14"><stop id="SvgjsStop4116" stop-color="rgb(255, 255, 255)" stop-opacity="1" offset="0" /><stop id="SvgjsStop4117" stop-color="rgb(253, 254, 254)" stop-opacity="1" offset="0.544" /><stop id="SvgjsStop4118" stop-color="rgb(246, 248, 249)" stop-opacity="1" offset="0.74" /><stop id="SvgjsStop4119" stop-color="rgb(234, 239, 242)" stop-opacity="1" offset="0.879" /><stop id="SvgjsStop4120" stop-color="rgb(217, 227, 232)" stop-opacity="1" offset="0.992" /><stop id="SvgjsStop4121" stop-color="rgb(216, 226, 231)" stop-opacity="1" offset="1" /></radialGradient><radialGradient class="svga-on-canvas-eyesfront-gradient-left-0" id="SvgjsRadialGradient4123" gradientUnits="userSpaceOnUse" gradientTransform="matrix(-1, 0, 0, 1, 200, 0)" cx="127.199" cy="84.835" r="14"><stop id="SvgjsStop4124" stop-color="rgb(255, 255, 255)" stop-opacity="1" offset="0" /><stop id="SvgjsStop4125" stop-color="rgb(253, 254, 254)" stop-opacity="1" offset="0.544" /><stop id="SvgjsStop4126" stop-color="rgb(246, 248, 249)" stop-opacity="1" offset="0.74" /><stop id="SvgjsStop4127" stop-color="rgb(234, 239, 242)" stop-opacity="1" offset="0.879" /><stop id="SvgjsStop4128" stop-color="rgb(217, 227, 232)" stop-opacity="1" offset="0.992" /><stop id="SvgjsStop4129" stop-color="rgb(216, 226, 231)" stop-opacity="1" offset="1" /></radialGradient><radialGradient class="svga-on-canvas-eyesfront-gradient-left-3" id="SvgjsRadialGradient4133" gradientUnits="userSpaceOnUse" gradientTransform="matrix(0.9998, 0.0208, 0.0131, -0.6281, -51.791, 134.061)" cx="125.36" cy="83.943" r="18.705" fx="138.934" fy="82.45"><stop id="SvgjsStop4134" stop-color="rgb(225, 172, 143)" stop-opacity="1" offset="0" /><stop id="SvgjsStop4135" stop-color="rgb(225, 172, 143)" stop-opacity="0.3" offset="0.7" /><stop id="SvgjsStop4136" stop-color="rgb(240, 199, 177)" stop-opacity="0" offset="1" /></radialGradient><radialGradient class="svga-on-canvas-eyesfront-gradient-left-4" id="SvgjsRadialGradient4138" gradientUnits="userSpaceOnUse" gradientTransform="matrix(1.0322, -0.0541, 0.0541, 1.0322, -5.894, 5.3941)" cx="67.679" cy="106.859" r="29.505"><stop id="SvgjsStop4139" stop-color="rgb(0, 0, 0)" stop-opacity="0" offset="0.95" /><stop id="SvgjsStop4140" stop-color="rgb(0, 0, 0)" stop-opacity="0.2" offset="1" /></radialGradient><radialGradient class="svga-on-canvas-eyesfront-gradient-right-0" id="SvgjsRadialGradient4144" gradientUnits="userSpaceOnUse" cx="126.801" cy="84.835" r="14"><stop id="SvgjsStop4145" stop-color="rgb(255, 255, 255)" stop-opacity="1" offset="0" /><stop id="SvgjsStop4146" stop-color="rgb(253, 254, 254)" stop-opacity="1" offset="0.544" /><stop id="SvgjsStop4147" stop-color="rgb(246, 248, 249)" stop-opacity="1" offset="0.74" /><stop id="SvgjsStop4148" stop-color="rgb(234, 239, 242)" stop-opacity="1" offset="0.879" /><stop id="SvgjsStop4149" stop-color="rgb(217, 227, 232)" stop-opacity="1" offset="0.992" /><stop id="SvgjsStop4150" stop-color="rgb(216, 226, 231)" stop-opacity="1" offset="1" /></radialGradient><radialGradient class="svga-on-canvas-eyesfront-gradient-right-3" id="SvgjsRadialGradient4154" gradientUnits="userSpaceOnUse" gradientTransform="matrix(-0.9998, 0.0208, -0.0131, -0.6281, 250.992, 134.07)" cx="124.961" cy="83.943" r="18.705" fx="138.535" fy="82.45"><stop id="SvgjsStop4155" stop-color="rgb(225, 172, 143)" stop-opacity="1" offset="0" /><stop id="SvgjsStop4156" stop-color="rgb(225, 172, 143)" stop-opacity="0.3" offset="0.7" /><stop id="SvgjsStop4157" stop-color="rgb(240, 199, 177)" stop-opacity="0" offset="1" /></radialGradient><radialGradient class="svga-on-canvas-eyesfront-gradient-right-4" id="SvgjsRadialGradient4159" gradientUnits="userSpaceOnUse" gradientTransform="matrix(-1.0322, -0.0541, -0.0541, 1.0322, 205.894, 5.3986)" cx="68.065" cy="106.876" r="29.506"><stop id="SvgjsStop4160" stop-color="rgb(0, 0, 0)" stop-opacity="0" offset="0.95" /><stop id="SvgjsStop4161" stop-color="rgb(0, 0, 0)" stop-opacity="0.2" offset="1" /></radialGradient><linearGradient class="svga-on-canvas-mouth-gradient-single-0" id="SvgjsLinearGradient4179" gradientUnits="userSpaceOnUse" x1="100" y1="142" x2="100" y2="139"><stop id="SvgjsStop4180" stop-color="rgb(232, 185, 160)" stop-opacity="1" offset="0.1" /><stop id="SvgjsStop4181" stop-color="rgb(225, 172, 143)" stop-opacity="1" offset="1" /></linearGradient></defs></svg>